<svg width="25" height="25" viewBox="0 0 25 25" fill="none" xmlns="http://www.w3.org/2000/svg">
<path fill-rule="evenodd" clip-rule="evenodd" d="M7.5 2.5C8.05228 2.5 8.5 2.94772 8.5 3.5V4.5H16.5V3.5C16.5 2.94772 16.9477 2.5 17.5 2.5C18.0523 2.5 18.5 2.94772 18.5 3.5V4.5H19.5C21.1569 4.5 22.5 5.84315 22.5 7.5V19.5C22.5 21.1569 21.1569 22.5 19.5 22.5H5.5C3.84315 22.5 2.5 21.1569 2.5 19.5V7.5C2.5 5.84315 3.84315 4.5 5.5 4.5H6.5V3.5C6.5 2.94772 6.94772 2.5 7.5 2.5ZM16.5 6.5V7.5C16.5 8.05228 16.9477 8.5 17.5 8.5C18.0523 8.5 18.5 8.05228 18.5 7.5V6.5H19.5C20.0523 6.5 20.5 6.94771 20.5 7.5V10.5H4.5V7.5C4.5 6.94772 4.94772 6.5 5.5 6.5H6.5V7.5C6.5 8.05228 6.94772 8.5 7.5 8.5C8.05228 8.5 8.5 8.05228 8.5 7.5V6.5H16.5ZM4.5 12.5V19.5C4.5 20.0523 4.94772 20.5 5.5 20.5H19.5C20.0523 20.5 20.5 20.0523 20.5 19.5V12.5H4.5Z" fill="#B4A9CE"/>
</svg>
