<svg width="24" height="25" viewBox="0 0 24 25" fill="none" xmlns="http://www.w3.org/2000/svg">
<path fill-rule="evenodd" clip-rule="evenodd" d="M7 2.5C7.55228 2.5 8 2.94772 8 3.5V4.5H16V3.5C16 2.94772 16.4477 2.5 17 2.5C17.5523 2.5 18 2.94772 18 3.5V4.5H19C20.6569 4.5 22 5.84315 22 7.5V19.5C22 21.1569 20.6569 22.5 19 22.5H5C3.34315 22.5 2 21.1569 2 19.5V7.5C2 5.84315 3.34315 4.5 5 4.5H6V3.5C6 2.94772 6.44772 2.5 7 2.5ZM16 6.5V7.5C16 8.05228 16.4477 8.5 17 8.5C17.5523 8.5 18 8.05228 18 7.5V6.5H19C19.5523 6.5 20 6.94771 20 7.5V10.5H4V7.5C4 6.94772 4.44772 6.5 5 6.5H6V7.5C6 8.05228 6.44772 8.5 7 8.5C7.55228 8.5 8 8.05228 8 7.5V6.5H16ZM4 12.5V19.5C4 20.0523 4.44772 20.5 5 20.5H19C19.5523 20.5 20 20.0523 20 19.5V12.5H4Z" fill="#B4A9CE"/>
</svg>
