<svg width="24" height="25" viewBox="0 0 24 25" fill="none" xmlns="http://www.w3.org/2000/svg">
<circle cx="12" cy="12.5" r="9" stroke="#B4A9CE" stroke-width="2"/>
<circle cx="12" cy="12.5" r="7" stroke="#B4A9CE"/>
<path d="M14.6444 15.4064L14.7275 15.4622C14.9744 15.0941 15.0974 14.6613 15.1 14.168L15.1 14.1667C15.0974 13.8311 15.0374 13.5294 14.9172 13.2639C14.8005 13.0006 14.6356 12.7715 14.423 12.5773C14.2121 12.3846 13.9636 12.2233 13.6787 12.0927C13.3955 11.963 13.0855 11.8596 12.749 11.7823L12.0683 11.6153L12.0683 11.6152L12.0668 11.6149C11.9053 11.5778 11.754 11.5334 11.6128 11.4819C11.4734 11.4285 11.3522 11.3673 11.2484 11.2988C11.1482 11.2301 11.0711 11.1504 11.0152 11.0601C10.965 10.9753 10.94 10.8734 10.9444 10.7506L10.9444 10.7506V10.7471C10.9444 10.6001 10.9852 10.4712 11.0663 10.3571C11.1497 10.2432 11.2716 10.1511 11.4377 10.0834L11.4378 10.0834L11.4389 10.0829C11.6034 10.0135 11.8103 9.97675 12.063 9.97675C12.4343 9.97675 12.7155 10.0586 12.9175 10.2112C13.1176 10.3624 13.2325 10.5739 13.2597 10.8555L13.2685 10.9459H13.3593H14.8963H14.9979L14.9963 10.8443C14.9886 10.3633 14.8628 9.93635 14.6166 9.56668C14.3708 9.19776 14.0276 8.91141 13.5905 8.70684L13.5481 8.79741M14.6444 15.4064L14.7276 15.462C14.4834 15.8273 14.1315 16.1085 13.6772 16.3075L13.6769 16.3076C13.2242 16.5045 12.6827 16.601 12.0556 16.601C11.4329 16.601 10.8858 16.5031 10.4165 16.3042L10.4164 16.3041C9.94821 16.1046 9.57932 15.8077 9.31336 15.4129L9.31294 15.4123C9.04849 15.0132 8.91269 14.5238 8.90002 13.9493L8.89777 13.8471H9H10.5519H10.6454L10.6516 13.9404C10.6679 14.186 10.7358 14.3844 10.8505 14.5409C10.9694 14.6973 11.1282 14.817 11.3297 14.8993C11.5359 14.98 11.7712 15.0214 12.037 15.0214C12.299 15.0214 12.5215 14.9823 12.7069 14.9071L12.7073 14.907C12.8964 14.8312 13.0373 14.7282 13.1356 14.6006C13.2328 14.4742 13.2815 14.3298 13.2815 14.1637C13.2815 14.0096 13.2375 13.8864 13.1534 13.7876L13.1527 13.7867L13.1527 13.7867C13.0668 13.6832 12.9359 13.59 12.7528 13.5105L12.7523 13.5103C12.569 13.4297 12.3414 13.3553 12.0686 13.2878L12.0676 13.2876L12.0676 13.2876L11.2424 13.075C11.2423 13.0749 11.2422 13.0749 11.2421 13.0749C10.5915 12.9124 10.0701 12.6566 9.68428 12.303C9.29014 11.9417 9.09753 11.4559 9.1 10.8573M14.6444 15.4064C14.879 15.0568 14.9975 14.6438 15 14.1675L10.4556 16.2121C10.9099 16.4047 11.4432 16.501 12.0556 16.501C12.6728 16.501 13.2 16.406 13.637 16.2159C14.0765 16.0234 14.4123 15.7535 14.6444 15.4064ZM9.1 10.8573C9.09752 10.3676 9.22492 9.93536 9.48479 9.56471L9.48506 9.56433L9.48506 9.56433C9.74573 9.19621 10.1023 8.91054 10.5512 8.70638C11.0007 8.50198 11.509 8.40098 12.0741 8.40098C12.6487 8.40098 13.1551 8.50185 13.5907 8.70694L13.5481 8.79741M9.1 10.8573C9.1 10.8572 9.1 10.857 9.1 10.8568L9.2 10.8573M9.1 10.8573C9.1 10.8575 9.1 10.8576 9.1 10.8578L9.2 10.8573M13.5481 8.79741C13.9704 8.99504 14.2988 9.26994 14.5333 9.62212C14.7509 9.94875 14.8707 10.3233 14.8929 10.7459L9.2 10.8573M13.5481 8.79741C13.1284 8.59979 12.637 8.50098 12.0741 8.50098C11.521 8.50098 11.0272 8.59979 10.5926 8.79741C10.158 8.99504 9.81605 9.26994 9.56667 9.62212M9.56667 9.62212L9.56667 9.62212L9.56667 9.62212ZM9.56667 9.62212C9.31975 9.97429 9.19753 10.386 9.2 10.8573" fill="#B4A9CE" stroke="#B4A9CE" stroke-width="0.2"/>
<path d="M12 7.5V9.5" stroke="#B4A9CE" stroke-width="2"/>
<path d="M12 15.5V17.5" stroke="#B4A9CE" stroke-width="2"/>
</svg>
