<svg width="25" height="24" viewBox="0 0 25 24" fill="none" xmlns="http://www.w3.org/2000/svg">
<path d="M17.5 7L7.5 17M22.5 12C22.5 17.5228 18.0228 22 12.5 22C6.97715 22 2.5 17.5228 2.5 12C2.5 6.47715 6.97715 2 12.5 2C18.0228 2 22.5 6.47715 22.5 12Z" stroke="#E21B57" stroke-width="2"/>
<path d="M11 8.5C11 9.60457 10.1046 10.5 9 10.5C7.89543 10.5 7 9.60457 7 8.5C7 7.39543 7.89543 6.5 9 6.5C10.1046 6.5 11 7.39543 11 8.5Z" stroke="#E21B57" stroke-width="2"/>
<path d="M18 15.5C18 16.6046 17.1046 17.5 16 17.5C14.8954 17.5 14 16.6046 14 15.5C14 14.3954 14.8954 13.5 16 13.5C17.1046 13.5 18 14.3954 18 15.5Z" stroke="#E21B57" stroke-width="2"/>
</svg>
