<svg width="44" height="39" viewBox="0 0 44 39" fill="none" xmlns="http://www.w3.org/2000/svg">
<path fill-rule="evenodd" clip-rule="evenodd" d="M26.7121 13.8056C27.5407 12.7721 28.0349 11.4639 28.0349 10.0348C28.0349 6.70186 25.333 4 22.0001 4C18.6672 4 15.9653 6.70186 15.9653 10.0348C15.9653 11.4637 16.4595 12.7718 17.2879 13.8053L17.2938 13.8127C17.4692 14.0312 17.6316 14.2613 17.8003 14.4849C18.0932 14.8734 18.5064 15.4189 18.9864 16.0462C19.881 17.2153 20.9984 18.6565 22.0008 19.8938C23.0064 18.6539 24.1264 17.2104 25.0227 16.0398C25.5036 15.4117 25.9174 14.8657 26.2108 14.4769C26.3786 14.2545 26.5379 14.023 26.7121 13.8056ZM28.2755 15.0589C28.2755 15.0589 28.2738 15.0611 28.2726 15.0627C28.2214 15.1312 27.7512 15.7595 27.0698 16.6544C26.0589 17.9819 24.5832 19.8961 23.3216 21.4393C22.6314 22.2834 21.369 22.2831 20.6793 21.4386C18.5229 18.7985 15.7341 15.0646 15.7341 15.0646L15.7276 15.0565C14.6249 13.681 13.9653 11.9349 13.9653 10.0348C13.9653 5.5973 17.5626 2 22.0001 2C26.4376 2 30.0349 5.5973 30.0349 10.0348C30.0349 11.217 29.7796 12.3396 29.321 13.3505C29.0436 13.962 28.6919 14.5326 28.2773 15.0507L28.2744 15.0543L28.2726 15.0565H28.2773L28.2755 15.0589Z" fill="url(#paint0_linear_2251_3628)"/>
<path fill-rule="evenodd" clip-rule="evenodd" d="M26.7121 13.8056C27.5407 12.7721 28.0349 11.4639 28.0349 10.0348C28.0349 6.70186 25.333 4 22.0001 4C18.6672 4 15.9653 6.70186 15.9653 10.0348C15.9653 11.4637 16.4595 12.7718 17.2879 13.8053L17.2938 13.8127C17.4692 14.0312 17.6316 14.2613 17.8003 14.4849C18.0932 14.8734 18.5064 15.4189 18.9864 16.0462C19.881 17.2153 20.9984 18.6565 22.0008 19.8938C23.0064 18.6539 24.1264 17.2104 25.0227 16.0398C25.5036 15.4117 25.9174 14.8657 26.2108 14.4769C26.3786 14.2545 26.5379 14.023 26.7121 13.8056ZM28.2755 15.0589C28.2755 15.0589 28.2738 15.0611 28.2726 15.0627C28.2214 15.1312 27.7512 15.7595 27.0698 16.6544C26.0589 17.9819 24.5832 19.8961 23.3216 21.4393C22.6314 22.2834 21.369 22.2831 20.6793 21.4386C18.5229 18.7985 15.7341 15.0646 15.7341 15.0646L15.7276 15.0565C14.6249 13.681 13.9653 11.9349 13.9653 10.0348C13.9653 5.5973 17.5626 2 22.0001 2C26.4376 2 30.0349 5.5973 30.0349 10.0348C30.0349 11.217 29.7796 12.3396 29.321 13.3505C29.0436 13.962 28.6919 14.5326 28.2773 15.0507L28.2744 15.0543L28.2726 15.0565H28.2773L28.2755 15.0589Z" fill="url(#paint1_radial_2251_3628)" fill-opacity="0.5"/>
<path fill-rule="evenodd" clip-rule="evenodd" d="M26.7121 13.8056C27.5407 12.7721 28.0349 11.4639 28.0349 10.0348C28.0349 6.70186 25.333 4 22.0001 4C18.6672 4 15.9653 6.70186 15.9653 10.0348C15.9653 11.4637 16.4595 12.7718 17.2879 13.8053L17.2938 13.8127C17.4692 14.0312 17.6316 14.2613 17.8003 14.4849C18.0932 14.8734 18.5064 15.4189 18.9864 16.0462C19.881 17.2153 20.9984 18.6565 22.0008 19.8938C23.0064 18.6539 24.1264 17.2104 25.0227 16.0398C25.5036 15.4117 25.9174 14.8657 26.2108 14.4769C26.3786 14.2545 26.5379 14.023 26.7121 13.8056ZM28.2755 15.0589C28.2755 15.0589 28.2738 15.0611 28.2726 15.0627C28.2214 15.1312 27.7512 15.7595 27.0698 16.6544C26.0589 17.9819 24.5832 19.8961 23.3216 21.4393C22.6314 22.2834 21.369 22.2831 20.6793 21.4386C18.5229 18.7985 15.7341 15.0646 15.7341 15.0646L15.7276 15.0565C14.6249 13.681 13.9653 11.9349 13.9653 10.0348C13.9653 5.5973 17.5626 2 22.0001 2C26.4376 2 30.0349 5.5973 30.0349 10.0348C30.0349 11.217 29.7796 12.3396 29.321 13.3505C29.0436 13.962 28.6919 14.5326 28.2773 15.0507L28.2744 15.0543L28.2726 15.0565H28.2773L28.2755 15.0589Z" fill="url(#paint2_radial_2251_3628)" fill-opacity="0.2"/>
<path fill-rule="evenodd" clip-rule="evenodd" d="M22 11C22.5523 11 23 10.5523 23 10C23 9.44771 22.5523 9 22 9C21.4477 9 21 9.44771 21 10C21 10.5523 21.4477 11 22 11ZM25 10C25 11.6569 23.6569 13 22 13C20.3431 13 19 11.6569 19 10C19 8.34315 20.3431 7 22 7C23.6569 7 25 8.34315 25 10Z" fill="url(#paint3_linear_2251_3628)"/>
<path fill-rule="evenodd" clip-rule="evenodd" d="M22 11C22.5523 11 23 10.5523 23 10C23 9.44771 22.5523 9 22 9C21.4477 9 21 9.44771 21 10C21 10.5523 21.4477 11 22 11ZM25 10C25 11.6569 23.6569 13 22 13C20.3431 13 19 11.6569 19 10C19 8.34315 20.3431 7 22 7C23.6569 7 25 8.34315 25 10Z" fill="url(#paint4_radial_2251_3628)" fill-opacity="0.5"/>
<path fill-rule="evenodd" clip-rule="evenodd" d="M22 11C22.5523 11 23 10.5523 23 10C23 9.44771 22.5523 9 22 9C21.4477 9 21 9.44771 21 10C21 10.5523 21.4477 11 22 11ZM25 10C25 11.6569 23.6569 13 22 13C20.3431 13 19 11.6569 19 10C19 8.34315 20.3431 7 22 7C23.6569 7 25 8.34315 25 10Z" fill="url(#paint5_radial_2251_3628)" fill-opacity="0.2"/>
<path d="M1.12243 36V27.2727H7.00311V28.794H2.9676V30.8736H6.70055V32.3949H2.9676V34.4787H7.02016V36H1.12243ZM13.762 31.321L12.1001 31.4233C12.0717 31.2812 12.0106 31.1534 11.9168 31.0398C11.8231 30.9233 11.6995 30.831 11.5461 30.7628C11.3955 30.6918 11.2151 30.6562 11.0049 30.6562C10.7237 30.6562 10.4864 30.7159 10.2933 30.8352C10.1001 30.9517 10.0035 31.108 10.0035 31.304C10.0035 31.4602 10.066 31.5923 10.191 31.7003C10.316 31.8082 10.5305 31.8949 10.8345 31.9602L12.0191 32.1989C12.6555 32.3295 13.1299 32.5398 13.4424 32.8295C13.7549 33.1193 13.9112 33.5 13.9112 33.9716C13.9112 34.4006 13.7847 34.777 13.5319 35.1009C13.2819 35.4247 12.9382 35.6776 12.5007 35.8594C12.066 36.0384 11.5646 36.1278 10.9964 36.1278C10.1299 36.1278 9.43957 35.9474 8.92537 35.5866C8.41401 35.223 8.11429 34.7287 8.02622 34.1037L9.81173 34.0099C9.86571 34.2741 9.99639 34.4759 10.2038 34.6151C10.4112 34.7514 10.6768 34.8196 11.0007 34.8196C11.3188 34.8196 11.5745 34.7585 11.7677 34.6364C11.9637 34.5114 12.0632 34.3509 12.066 34.1548C12.0632 33.9901 11.9936 33.8551 11.8572 33.75C11.7208 33.642 11.5106 33.5597 11.2265 33.5028L10.093 33.277C9.45378 33.1491 8.97793 32.9276 8.66543 32.6122C8.35577 32.2969 8.20094 31.8949 8.20094 31.4062C8.20094 30.9858 8.31457 30.6236 8.54185 30.3196C8.77196 30.0156 9.0944 29.7812 9.50918 29.6165C9.92679 29.4517 10.4154 29.3693 10.9751 29.3693C11.8018 29.3693 12.4524 29.544 12.9268 29.8935C13.4041 30.2429 13.6825 30.7187 13.762 31.321ZM14.9343 38.4545V29.4545H16.724V30.554H16.805C16.8846 30.3778 16.9996 30.1989 17.1502 30.017C17.3036 29.8324 17.5025 29.679 17.7468 29.5568C17.9939 29.4318 18.3008 29.3693 18.6672 29.3693C19.1445 29.3693 19.5848 29.4943 19.9883 29.7443C20.3917 29.9915 20.7141 30.3651 20.9556 30.8651C21.1971 31.3622 21.3178 31.9858 21.3178 32.7358C21.3178 33.4659 21.1999 34.0824 20.9641 34.5852C20.7312 35.0852 20.413 35.4645 20.0096 35.723C19.609 35.9787 19.1601 36.1065 18.663 36.1065C18.3107 36.1065 18.011 36.0483 17.7638 35.9318C17.5195 35.8153 17.3192 35.669 17.163 35.4929C17.0067 35.3139 16.8874 35.1335 16.805 34.9517H16.7496V38.4545H14.9343ZM16.7113 32.7273C16.7113 33.1165 16.7652 33.456 16.8732 33.7457C16.9812 34.0355 17.1374 34.2614 17.3419 34.4233C17.5465 34.5824 17.7951 34.6619 18.0877 34.6619C18.3831 34.6619 18.6331 34.581 18.8377 34.419C19.0422 34.2543 19.1971 34.027 19.3022 33.7372C19.4101 33.4446 19.4641 33.108 19.4641 32.7273C19.4641 32.3494 19.4115 32.017 19.3064 31.7301C19.2013 31.4432 19.0465 31.2187 18.8419 31.0568C18.6374 30.8949 18.386 30.8139 18.0877 30.8139C17.7922 30.8139 17.5422 30.892 17.3377 31.0483C17.136 31.2045 16.9812 31.4261 16.8732 31.7131C16.7652 32 16.7113 32.3381 16.7113 32.7273ZM24.2234 27.2727V36H22.408V27.2727H24.2234ZM28.5149 36.1278C27.853 36.1278 27.2806 35.9872 26.7976 35.706C26.3175 35.4219 25.9468 35.027 25.6854 34.5213C25.424 34.0128 25.2934 33.4233 25.2934 32.7528C25.2934 32.0767 25.424 31.4858 25.6854 30.9801C25.9468 30.4716 26.3175 30.0767 26.7976 29.7955C27.2806 29.5114 27.853 29.3693 28.5149 29.3693C29.1769 29.3693 29.7479 29.5114 30.228 29.7955C30.711 30.0767 31.0831 30.4716 31.3445 30.9801C31.6059 31.4858 31.7365 32.0767 31.7365 32.7528C31.7365 33.4233 31.6059 34.0128 31.3445 34.5213C31.0831 35.027 30.711 35.4219 30.228 35.706C29.7479 35.9872 29.1769 36.1278 28.5149 36.1278ZM28.5235 34.7216C28.8246 34.7216 29.076 34.6364 29.2777 34.4659C29.4794 34.2926 29.6314 34.0568 29.7337 33.7585C29.8388 33.4602 29.8914 33.1207 29.8914 32.7401C29.8914 32.3594 29.8388 32.0199 29.7337 31.7216C29.6314 31.4233 29.4794 31.1875 29.2777 31.0142C29.076 30.8409 28.8246 30.7543 28.5235 30.7543C28.2195 30.7543 27.9638 30.8409 27.7564 31.0142C27.5519 31.1875 27.397 31.4233 27.2919 31.7216C27.1897 32.0199 27.1385 32.3594 27.1385 32.7401C27.1385 33.1207 27.1897 33.4602 27.2919 33.7585C27.397 34.0568 27.5519 34.2926 27.7564 34.4659C27.9638 34.6364 28.2195 34.7216 28.5235 34.7216ZM32.7969 36V29.4545H34.5569V30.5966H34.6251C34.7444 30.1903 34.9447 29.8835 35.2259 29.6761C35.5072 29.4659 35.831 29.3608 36.1975 29.3608C36.2884 29.3608 36.3864 29.3665 36.4915 29.3778C36.5967 29.3892 36.689 29.4048 36.7685 29.4247V31.0355C36.6833 31.0099 36.5654 30.9872 36.4148 30.9673C36.2643 30.9474 36.1265 30.9375 36.0015 30.9375C35.7344 30.9375 35.4958 30.9957 35.2856 31.1122C35.0782 31.2259 34.9134 31.3849 34.7913 31.5895C34.6719 31.794 34.6123 32.0298 34.6123 32.2969V36H32.7969ZM39.2661 36.1236C38.8485 36.1236 38.4763 36.0511 38.1496 35.9062C37.8229 35.7585 37.5644 35.5412 37.374 35.2543C37.1865 34.9645 37.0928 34.6037 37.0928 34.1719C37.0928 33.8082 37.1595 33.5028 37.2931 33.2557C37.4266 33.0085 37.6084 32.8097 37.8385 32.6591C38.0686 32.5085 38.33 32.3949 38.6226 32.3182C38.9181 32.2415 39.2277 32.1875 39.5516 32.1562C39.9323 32.1165 40.2391 32.0795 40.472 32.0455C40.705 32.0085 40.874 31.9545 40.9791 31.8835C41.0842 31.8125 41.1368 31.7074 41.1368 31.5682V31.5426C41.1368 31.2727 41.0516 31.0639 40.8811 30.9162C40.7135 30.7685 40.4749 30.6946 40.1652 30.6946C39.8385 30.6946 39.5786 30.767 39.3854 30.9119C39.1922 31.054 39.0644 31.233 39.0019 31.4489L37.3229 31.3125C37.4081 30.9148 37.5757 30.571 37.8257 30.2812C38.0757 29.9886 38.3982 29.7642 38.7931 29.608C39.1908 29.4489 39.651 29.3693 40.1737 29.3693C40.5374 29.3693 40.8854 29.4119 41.2178 29.4972C41.553 29.5824 41.8499 29.7145 42.1084 29.8935C42.3698 30.0724 42.5757 30.3026 42.7263 30.5838C42.8769 30.8622 42.9521 31.196 42.9521 31.5852V36H41.2306V35.0923H41.1794C41.0743 35.2969 40.9337 35.4773 40.7575 35.6335C40.5814 35.7869 40.3698 35.9077 40.1226 35.9957C39.8754 36.081 39.5899 36.1236 39.2661 36.1236ZM39.786 34.8707C40.053 34.8707 40.2888 34.8182 40.4933 34.7131C40.6979 34.6051 40.8584 34.4602 40.9749 34.2784C41.0913 34.0966 41.1496 33.8906 41.1496 33.6605V32.9659C41.0928 33.0028 41.0146 33.0369 40.9152 33.0682C40.8186 33.0966 40.7092 33.1236 40.5871 33.1491C40.4649 33.1719 40.3428 33.1932 40.2206 33.2131C40.0985 33.2301 39.9877 33.2457 39.8882 33.2599C39.6752 33.2912 39.4891 33.3409 39.33 33.4091C39.1709 33.4773 39.0473 33.5696 38.9592 33.6861C38.8712 33.7997 38.8271 33.9418 38.8271 34.1122C38.8271 34.3594 38.9166 34.5483 39.0956 34.679C39.2774 34.8068 39.5075 34.8707 39.786 34.8707Z" fill="#41227C"/>
<defs>
<linearGradient id="paint0_linear_2251_3628" x1="22.0001" y1="2" x2="22.0001" y2="22.0722" gradientUnits="userSpaceOnUse">
<stop stop-color="#8652F9"/>
<stop offset="0.535211" stop-color="#2E099B"/>
<stop offset="1" stop-color="#200D5A"/>
</linearGradient>
<radialGradient id="paint1_radial_2251_3628" cx="0" cy="0" r="1" gradientUnits="userSpaceOnUse" gradientTransform="translate(13.9653 2) rotate(53.2684) scale(12.1697 17.0873)">
<stop stop-color="#9B0595"/>
<stop offset="1" stop-color="#E700DE" stop-opacity="0"/>
</radialGradient>
<radialGradient id="paint2_radial_2251_3628" cx="0" cy="0" r="1" gradientUnits="userSpaceOnUse" gradientTransform="translate(14.5787 22.5198) rotate(-38.7364) scale(20.4439 9.71438)">
<stop stop-color="#9B0595"/>
<stop offset="1" stop-color="#E700DE" stop-opacity="0"/>
</radialGradient>
<linearGradient id="paint3_linear_2251_3628" x1="22" y1="7" x2="22" y2="13" gradientUnits="userSpaceOnUse">
<stop stop-color="#8652F9"/>
<stop offset="0.535211" stop-color="#2E099B"/>
<stop offset="1" stop-color="#200D5A"/>
</linearGradient>
<radialGradient id="paint4_radial_2251_3628" cx="0" cy="0" r="1" gradientUnits="userSpaceOnUse" gradientTransform="translate(19 7) rotate(47.0124) scale(3.98563 5.8232)">
<stop stop-color="#9B0595"/>
<stop offset="1" stop-color="#E700DE" stop-opacity="0"/>
</radialGradient>
<radialGradient id="paint5_radial_2251_3628" cx="0" cy="0" r="1" gradientUnits="userSpaceOnUse" gradientTransform="translate(19.229 13.1338) rotate(-32.7096) scale(7.07637 3.13235)">
<stop stop-color="#9B0595"/>
<stop offset="1" stop-color="#E700DE" stop-opacity="0"/>
</radialGradient>
</defs>
</svg>
