<svg width="52" height="52" viewBox="0 0 52 52" fill="none" xmlns="http://www.w3.org/2000/svg">
<circle cx="26" cy="26" r="25" fill="url(#paint0_linear_291_6341)"/>
<circle cx="26" cy="26" r="25" fill="url(#paint1_radial_291_6341)" fill-opacity="0.5"/>
<circle cx="26" cy="26" r="25" fill="url(#paint2_radial_291_6341)" fill-opacity="0.2"/>
<circle cx="26" cy="26" r="25" stroke="#F2EFF9" stroke-width="2"/>
<path d="M20 29H17M20 29C20 30.6569 21.3431 32 23 32C24.6569 32 26 30.6569 26 29M20 29C20 27.3431 21.3431 26 23 26C24.6569 26 26 27.3431 26 29M35 29H26M26 21H17M26 21C26 22.6569 27.3431 24 29 24C30.6569 24 32 22.6569 32 21M26 21C26 19.3431 27.3431 18 29 18C30.6569 18 32 19.3431 32 21M35 21H32" stroke="white" stroke-width="1.5" stroke-linecap="round"/>
<defs>
<linearGradient id="paint0_linear_291_6341" x1="26" y1="0" x2="26" y2="52" gradientUnits="userSpaceOnUse">
<stop stop-color="#8652F9"/>
<stop offset="0.535211" stop-color="#2E099B"/>
<stop offset="1" stop-color="#200D5A"/>
</linearGradient>
<radialGradient id="paint1_radial_291_6341" cx="0" cy="0" r="1" gradientUnits="userSpaceOnUse" gradientTransform="rotate(47.0124) scale(34.5421 50.4678)">
<stop stop-color="#9B0595"/>
<stop offset="1" stop-color="#E700DE" stop-opacity="0"/>
</radialGradient>
<radialGradient id="paint2_radial_291_6341" cx="0" cy="0" r="1" gradientUnits="userSpaceOnUse" gradientTransform="translate(1.98473 53.1596) rotate(-32.7096) scale(61.3286 27.1471)">
<stop stop-color="#9B0595"/>
<stop offset="1" stop-color="#E700DE" stop-opacity="0"/>
</radialGradient>
</defs>
</svg>
