<svg width="24" height="25" viewBox="0 0 24 25" fill="none" xmlns="http://www.w3.org/2000/svg">
<path d="M6 16.6743H3M6 16.6743C6 18.3312 7.34315 19.6743 9 19.6743C10.6569 19.6743 12 18.3312 12 16.6743M6 16.6743C6 15.0175 7.34315 13.6743 9 13.6743C10.6569 13.6743 12 15.0175 12 16.6743M21 16.6743H12M12 8.67432H3M12 8.67432C12 10.3312 13.3431 11.6743 15 11.6743C16.6569 11.6743 18 10.3312 18 8.67432M12 8.67432C12 7.01746 13.3431 5.67432 15 5.67432C16.6569 5.67432 18 7.01746 18 8.67432M21 8.67432H18" stroke="#B4A9CE" stroke-width="2" stroke-linecap="round"/>
</svg>
