<svg width="20" height="20" viewBox="0 0 20 20" fill="none" xmlns="http://www.w3.org/2000/svg">
<g clip-path="url(#clip0_2307_302)">
<path d="M18.0952 0H1.90476C0.852791 0 0 1.19391 0 2.66667V17.3333C0 18.8061 0.852791 20 1.90476 20H18.0952C19.1472 20 20 18.8061 20 17.3333V2.66667C20 1.19391 19.1472 0 18.0952 0Z" fill="#22438B"/>
<path fill-rule="evenodd" clip-rule="evenodd" d="M2.85726 1.33331L0.927734 1.36798L0.952496 3.99998L17.1258 18.704L19.0658 18.6546L19.0296 16.0386L2.85726 1.33331Z" fill="white"/>
<path fill-rule="evenodd" clip-rule="evenodd" d="M1.90453 1.33331L0.952148 2.66665L18.095 18.6666L19.0474 17.3333L1.90453 1.33331Z" fill="#C7152A"/>
<path fill-rule="evenodd" clip-rule="evenodd" d="M17.1428 1.33331H19.0475V3.99998C19.0475 3.99998 7.85706 13.8613 2.87421 18.704C2.81421 18.7626 0.971349 18.708 0.971349 18.708L0.82373 16.1733L17.1428 1.33331Z" fill="white"/>
<path fill-rule="evenodd" clip-rule="evenodd" d="M18.136 1.29602L19.0474 2.66669L1.90453 18.6667L0.952148 17.3334L18.136 1.29602Z" fill="#C7152A"/>
<path fill-rule="evenodd" clip-rule="evenodd" d="M7.61881 1.33331H12.3807V6.66665H19.0474V13.3333H12.3807V18.6666H7.61881V13.3333H0.952148V6.66665H7.61881V1.33331Z" fill="white"/>
<path fill-rule="evenodd" clip-rule="evenodd" d="M8.5712 1.33331H11.4283V7.99998H19.0474V12H11.4283V18.6666H8.5712V12H0.952148V7.99998H8.5712V1.33331Z" fill="#C7152A"/>
<path d="M18.0951 0.666687H1.90465C1.11567 0.666687 0.476074 1.56212 0.476074 2.66669V17.3334C0.476074 18.4379 1.11567 19.3334 1.90465 19.3334H18.0951C18.8841 19.3334 19.5237 18.4379 19.5237 17.3334V2.66669C19.5237 1.56212 18.8841 0.666687 18.0951 0.666687Z" stroke="black" stroke-opacity="0.1"/>
</g>
<rect x="0.5" y="0.5" width="19" height="19" rx="9.5" stroke="white"/>
<defs>
<clipPath id="clip0_2307_302">
<rect width="20" height="20" rx="10" fill="white"/>
</clipPath>
</defs>
</svg>
