<svg width="20" height="21" viewBox="0 0 20 21" fill="none" xmlns="http://www.w3.org/2000/svg">
<g clip-path="url(#clip0_477_6356)">
<path d="M18.0952 0.600098H1.90476C0.852791 0.600098 0 1.794 0 3.26676V17.9334C0 19.4062 0.852791 20.6001 1.90476 20.6001H18.0952C19.1472 20.6001 20 19.4062 20 17.9334V3.26676C20 1.794 19.1472 0.600098 18.0952 0.600098Z" fill="#22438B"/>
<path fill-rule="evenodd" clip-rule="evenodd" d="M2.85726 1.93359L0.927734 1.96826L0.952496 4.60026L17.1258 19.3043L19.0658 19.2549L19.0296 16.6389L2.85726 1.93359Z" fill="white"/>
<path fill-rule="evenodd" clip-rule="evenodd" d="M1.90453 1.93359L0.952148 3.26693L18.095 19.2669L19.0474 17.9336L1.90453 1.93359Z" fill="#C7152A"/>
<path fill-rule="evenodd" clip-rule="evenodd" d="M17.1433 1.93359H19.048V4.60026C19.048 4.60026 7.85755 14.4616 2.87469 19.3043C2.81469 19.3629 0.971838 19.3083 0.971838 19.3083L0.824219 16.7736L17.1433 1.93359Z" fill="white"/>
<path fill-rule="evenodd" clip-rule="evenodd" d="M18.136 1.896L19.0474 3.26666L1.90453 19.2667L0.952148 17.9333L18.136 1.896Z" fill="#C7152A"/>
<path fill-rule="evenodd" clip-rule="evenodd" d="M7.61881 1.93359H12.3807V7.26693H19.0474V13.9336H12.3807V19.2669H7.61881V13.9336H0.952148V7.26693H7.61881V1.93359Z" fill="white"/>
<path fill-rule="evenodd" clip-rule="evenodd" d="M8.5712 1.93359H11.4283V8.60026H19.0474V12.6003H11.4283V19.2669H8.5712V12.6003H0.952148V8.60026H8.5712V1.93359Z" fill="#C7152A"/>
<path d="M18.0956 1.2666H1.90513C1.11616 1.2666 0.476562 2.16203 0.476562 3.2666V17.9333C0.476562 19.0378 1.11616 19.9333 1.90513 19.9333H18.0956C18.8846 19.9333 19.5242 19.0378 19.5242 17.9333V3.2666C19.5242 2.16203 18.8846 1.2666 18.0956 1.2666Z" stroke="black" stroke-opacity="0.1"/>
</g>
<rect x="0.5" y="1.1001" width="19" height="19" rx="9.5" stroke="white"/>
<defs>
<clipPath id="clip0_477_6356">
<rect y="0.600098" width="20" height="20" rx="10" fill="white"/>
</clipPath>
</defs>
</svg>
