<svg width="26" height="25" viewBox="0 0 26 25" fill="none" xmlns="http://www.w3.org/2000/svg">
<path d="M12.9997 22.3958L12.0859 22.802H13.9135L12.9997 22.3958ZM19.2913 10.4167C19.2913 12.6356 18.2061 14.2196 16.6793 15.9372C15.2022 17.599 13.21 19.4604 12.0859 21.9897L13.9135 22.802C14.8727 20.6437 16.5263 19.1198 18.1742 17.2659C19.7724 15.4679 21.2913 13.4061 21.2913 10.4167H19.2913ZM13.9135 21.9897C12.7894 19.4604 10.7971 17.599 9.32 15.9372C7.79322 14.2196 6.70801 12.6356 6.70801 10.4167H4.70801C4.70801 13.4061 6.22696 15.4679 7.82518 17.2659C9.47306 19.1198 11.1267 20.6437 12.0859 22.802L13.9135 21.9897ZM6.70801 10.4167C6.70801 6.94188 9.52488 4.125 12.9997 4.125V2.125C8.42031 2.125 4.70801 5.83731 4.70801 10.4167H6.70801ZM12.9997 4.125C16.4745 4.125 19.2913 6.94188 19.2913 10.4167H21.2913C21.2913 5.83731 17.579 2.125 12.9997 2.125V4.125Z" fill="#B4A9CE"/>
<ellipse cx="13.0003" cy="10.4166" rx="2.08333" ry="2.08333" stroke="#B4A9CE" stroke-width="2"/>
</svg>
