<svg width="25" height="24" viewBox="0 0 25 24" fill="none" xmlns="http://www.w3.org/2000/svg">
<g clip-path="url(#clip0_421_5980)">
<path d="M10.497 3.29695L12.1469 1.64704L13.7769 3.27701L8.82718 8.22673L3.87746 13.1764L2.24748 11.5465L3.89739 9.89657M10.497 3.29695L7.1972 6.59676L3.89739 9.89657M10.497 3.29695L8.85004 1.64996L5.55022 4.94978L2.25041 8.24959L3.89739 9.89657M22.0264 14.8264L18.7266 18.1262L15.4268 21.426M22.0264 14.8264L23.6734 16.4733L20.3736 19.7732L17.0738 23.073L15.4268 21.426M22.0264 14.8264L23.6763 13.1764L22.0265 11.5265L17.0767 16.4763M15.4268 21.426L13.7769 23.0759L12.127 21.426L17.0767 16.4763M17.0767 16.4763L8.85004 8.24959" stroke="url(#paint0_linear_421_5980)" stroke-width="1.5"/>
<path d="M10.497 3.29695L12.1469 1.64704L13.7769 3.27701L8.82718 8.22673L3.87746 13.1764L2.24748 11.5465L3.89739 9.89657M10.497 3.29695L7.1972 6.59676L3.89739 9.89657M10.497 3.29695L8.85004 1.64996L5.55022 4.94978L2.25041 8.24959L3.89739 9.89657M22.0264 14.8264L18.7266 18.1262L15.4268 21.426M22.0264 14.8264L23.6734 16.4733L20.3736 19.7732L17.0738 23.073L15.4268 21.426M22.0264 14.8264L23.6763 13.1764L22.0265 11.5265L17.0767 16.4763M15.4268 21.426L13.7769 23.0759L12.127 21.426L17.0767 16.4763M17.0767 16.4763L8.85004 8.24959" stroke="url(#paint1_radial_421_5980)" stroke-opacity="0.5" stroke-width="1.5"/>
<path d="M10.497 3.29695L12.1469 1.64704L13.7769 3.27701L8.82718 8.22673L3.87746 13.1764L2.24748 11.5465L3.89739 9.89657M10.497 3.29695L7.1972 6.59676L3.89739 9.89657M10.497 3.29695L8.85004 1.64996L5.55022 4.94978L2.25041 8.24959L3.89739 9.89657M22.0264 14.8264L18.7266 18.1262L15.4268 21.426M22.0264 14.8264L23.6734 16.4733L20.3736 19.7732L17.0738 23.073L15.4268 21.426M22.0264 14.8264L23.6763 13.1764L22.0265 11.5265L17.0767 16.4763M15.4268 21.426L13.7769 23.0759L12.127 21.426L17.0767 16.4763M17.0767 16.4763L8.85004 8.24959" stroke="url(#paint2_radial_421_5980)" stroke-opacity="0.2" stroke-width="1.5"/>
</g>
<defs>
<linearGradient id="paint0_linear_421_5980" x1="17.9117" y1="7.41169" x2="8.01219" y2="17.3112" gradientUnits="userSpaceOnUse">
<stop stop-color="#8652F9"/>
<stop offset="0.535211" stop-color="#2E099B"/>
<stop offset="1" stop-color="#200D5A"/>
</linearGradient>
<radialGradient id="paint1_radial_421_5980" cx="0" cy="0" r="1" gradientUnits="userSpaceOnUse" gradientTransform="translate(10.5) rotate(80.6205) scale(11.6804 16.199)">
<stop stop-color="#9B0595"/>
<stop offset="1" stop-color="#E700DE" stop-opacity="0"/>
</radialGradient>
<radialGradient id="paint2_radial_421_5980" cx="0" cy="0" r="1" gradientUnits="userSpaceOnUse" gradientTransform="translate(0.94552 10.686) rotate(21.7856) scale(22.6361 7.98302)">
<stop stop-color="#9B0595"/>
<stop offset="1" stop-color="#E700DE" stop-opacity="0"/>
</radialGradient>
<clipPath id="clip0_421_5980">
<rect width="24" height="24" fill="white" transform="translate(0.5)"/>
</clipPath>
</defs>
</svg>
