<svg width="48" height="39" viewBox="0 0 48 39" fill="none" xmlns="http://www.w3.org/2000/svg">
<path fill-rule="evenodd" clip-rule="evenodd" d="M21 2C21.5523 2 22 2.44772 22 3V4H30V3C30 2.44772 30.4477 2 31 2C31.5523 2 32 2.44772 32 3V4H33C34.6569 4 36 5.34315 36 7V19C36 20.6569 34.6569 22 33 22H19C17.3431 22 16 20.6569 16 19V7C16 5.34315 17.3431 4 19 4H20V3C20 2.44772 20.4477 2 21 2ZM30 6V7C30 7.55228 30.4477 8 31 8C31.5523 8 32 7.55228 32 7V6H33C33.5523 6 34 6.44771 34 7V10H18V7C18 6.44772 18.4477 6 19 6H20V7C20 7.55228 20.4477 8 21 8C21.5523 8 22 7.55228 22 7V6H30ZM18 12V19C18 19.5523 18.4477 20 19 20H33C33.5523 20 34 19.5523 34 19V12H18Z" fill="url(#paint0_linear_2307_693)"/>
<path fill-rule="evenodd" clip-rule="evenodd" d="M21 2C21.5523 2 22 2.44772 22 3V4H30V3C30 2.44772 30.4477 2 31 2C31.5523 2 32 2.44772 32 3V4H33C34.6569 4 36 5.34315 36 7V19C36 20.6569 34.6569 22 33 22H19C17.3431 22 16 20.6569 16 19V7C16 5.34315 17.3431 4 19 4H20V3C20 2.44772 20.4477 2 21 2ZM30 6V7C30 7.55228 30.4477 8 31 8C31.5523 8 32 7.55228 32 7V6H33C33.5523 6 34 6.44771 34 7V10H18V7C18 6.44772 18.4477 6 19 6H20V7C20 7.55228 20.4477 8 21 8C21.5523 8 22 7.55228 22 7V6H30ZM18 12V19C18 19.5523 18.4477 20 19 20H33C33.5523 20 34 19.5523 34 19V12H18Z" fill="url(#paint1_radial_2307_693)" fill-opacity="0.5"/>
<path fill-rule="evenodd" clip-rule="evenodd" d="M21 2C21.5523 2 22 2.44772 22 3V4H30V3C30 2.44772 30.4477 2 31 2C31.5523 2 32 2.44772 32 3V4H33C34.6569 4 36 5.34315 36 7V19C36 20.6569 34.6569 22 33 22H19C17.3431 22 16 20.6569 16 19V7C16 5.34315 17.3431 4 19 4H20V3C20 2.44772 20.4477 2 21 2ZM30 6V7C30 7.55228 30.4477 8 31 8C31.5523 8 32 7.55228 32 7V6H33C33.5523 6 34 6.44771 34 7V10H18V7C18 6.44772 18.4477 6 19 6H20V7C20 7.55228 20.4477 8 21 8C21.5523 8 22 7.55228 22 7V6H30ZM18 12V19C18 19.5523 18.4477 20 19 20H33C33.5523 20 34 19.5523 34 19V12H18Z" fill="url(#paint2_radial_2307_693)" fill-opacity="0.2"/>
<path d="M0.620476 36V27.2727H4.06366C4.72559 27.2727 5.28951 27.3991 5.75542 27.652C6.22133 27.902 6.57644 28.25 6.82076 28.696C7.06792 29.1392 7.1915 29.6506 7.1915 30.2301C7.1915 30.8097 7.0665 31.321 6.8165 31.7642C6.5665 32.2074 6.20428 32.5526 5.72985 32.7997C5.25826 33.0469 4.68724 33.1705 4.01678 33.1705H1.82218V31.6918H3.71849C4.0736 31.6918 4.36622 31.6307 4.59633 31.5085C4.82928 31.3835 5.00258 31.2116 5.11622 30.9929C5.23269 30.7713 5.29093 30.517 5.29093 30.2301C5.29093 29.9403 5.23269 29.6875 5.11622 29.4716C5.00258 29.2528 4.82928 29.0838 4.59633 28.9645C4.36337 28.8423 4.06792 28.7812 3.70997 28.7812H2.46565V36H0.620476ZM8.23592 36V29.4545H9.99586V30.5966H10.064C10.1834 30.1903 10.3836 29.8835 10.6649 29.6761C10.9461 29.4659 11.27 29.3608 11.6365 29.3608C11.7274 29.3608 11.8254 29.3665 11.9305 29.3778C12.0356 29.3892 12.128 29.4048 12.2075 29.4247V31.0355C12.1223 31.0099 12.0044 30.9872 11.8538 30.9673C11.7032 30.9474 11.5655 30.9375 11.4405 30.9375C11.1734 30.9375 10.9348 30.9957 10.7246 31.1122C10.5172 31.2259 10.3524 31.3849 10.2302 31.5895C10.1109 31.794 10.0513 32.0298 10.0513 32.2969V36H8.23592ZM15.7043 36.1278C15.031 36.1278 14.4515 35.9915 13.9657 35.7188C13.4827 35.4432 13.1106 35.054 12.8492 34.5511C12.5879 34.0455 12.4572 33.4474 12.4572 32.7571C12.4572 32.0838 12.5879 31.4929 12.8492 30.9844C13.1106 30.4759 13.4785 30.0795 13.9529 29.7955C14.4302 29.5114 14.9899 29.3693 15.6319 29.3693C16.0637 29.3693 16.4657 29.4389 16.8379 29.5781C17.2129 29.7145 17.5396 29.9205 17.818 30.196C18.0992 30.4716 18.318 30.8182 18.4742 31.2358C18.6305 31.6506 18.7086 32.1364 18.7086 32.6932V33.1918H13.1816V32.0668H16.9998C16.9998 31.8054 16.943 31.5739 16.8293 31.3722C16.7157 31.1705 16.558 31.0128 16.3563 30.8991C16.1575 30.7827 15.9259 30.7244 15.6617 30.7244C15.3862 30.7244 15.1418 30.7884 14.9288 30.9162C14.7185 31.0412 14.5538 31.2102 14.4345 31.4233C14.3151 31.6335 14.2541 31.8679 14.2512 32.1264V33.196C14.2512 33.5199 14.3109 33.7997 14.4302 34.0355C14.5524 34.2713 14.7242 34.4531 14.9458 34.581C15.1674 34.7088 15.4302 34.7727 15.7342 34.7727C15.9359 34.7727 16.1205 34.7443 16.2881 34.6875C16.4558 34.6307 16.5992 34.5455 16.7185 34.4318C16.8379 34.3182 16.9288 34.179 16.9913 34.0142L18.6702 34.125C18.585 34.5284 18.4103 34.8807 18.1461 35.1818C17.8847 35.4801 17.5467 35.7131 17.1319 35.8807C16.72 36.0455 16.2441 36.1278 15.7043 36.1278ZM21.5886 32.2159V36H19.7733V29.4545H21.5034V30.6094H21.5801C21.725 30.2287 21.9679 29.9276 22.3088 29.706C22.6497 29.4815 23.063 29.3693 23.5488 29.3693C24.0034 29.3693 24.3997 29.4688 24.7377 29.6676C25.0758 29.8665 25.3386 30.1506 25.5261 30.5199C25.7136 30.8864 25.8074 31.3239 25.8074 31.8324V36H23.992V32.1562C23.9949 31.7557 23.8926 31.4432 23.6852 31.2188C23.4778 30.9915 23.1923 30.8778 22.8287 30.8778C22.5843 30.8778 22.3684 30.9304 22.1809 31.0355C21.9963 31.1406 21.8514 31.294 21.7463 31.4957C21.644 31.6946 21.5914 31.9347 21.5886 32.2159ZM30.0755 36.1278C29.4136 36.1278 28.8411 35.9872 28.3582 35.706C27.878 35.4219 27.5073 35.027 27.2459 34.5213C26.9846 34.0128 26.8539 33.4233 26.8539 32.7528C26.8539 32.0767 26.9846 31.4858 27.2459 30.9801C27.5073 30.4716 27.878 30.0767 28.3582 29.7955C28.8411 29.5114 29.4136 29.3693 30.0755 29.3693C30.7374 29.3693 31.3084 29.5114 31.7886 29.7955C32.2715 30.0767 32.6437 30.4716 32.905 30.9801C33.1664 31.4858 33.2971 32.0767 33.2971 32.7528C33.2971 33.4233 33.1664 34.0128 32.905 34.5213C32.6437 35.027 32.2715 35.4219 31.7886 35.706C31.3084 35.9872 30.7374 36.1278 30.0755 36.1278ZM30.084 34.7216C30.3852 34.7216 30.6366 34.6364 30.8383 34.4659C31.04 34.2926 31.192 34.0568 31.2942 33.7585C31.3994 33.4602 31.4519 33.1207 31.4519 32.7401C31.4519 32.3594 31.3994 32.0199 31.2942 31.7216C31.192 31.4233 31.04 31.1875 30.8383 31.0142C30.6366 30.8409 30.3852 30.7543 30.084 30.7543C29.78 30.7543 29.5244 30.8409 29.317 31.0142C29.1124 31.1875 28.9576 31.4233 28.8525 31.7216C28.7502 32.0199 28.6991 32.3594 28.6991 32.7401C28.6991 33.1207 28.7502 33.4602 28.8525 33.7585C28.9576 34.0568 29.1124 34.2926 29.317 34.4659C29.5244 34.6364 29.78 34.7216 30.084 34.7216ZM37.839 29.4545V30.8182H33.8973V29.4545H37.839ZM34.7921 27.8864H36.6075V33.9886C36.6075 34.1562 36.633 34.2869 36.6842 34.3807C36.7353 34.4716 36.8063 34.5355 36.8973 34.5724C36.991 34.6094 37.099 34.6278 37.2211 34.6278C37.3063 34.6278 37.3916 34.6207 37.4768 34.6065C37.562 34.5895 37.6274 34.5767 37.6728 34.5682L37.9583 35.919C37.8674 35.9474 37.7396 35.9801 37.5748 36.017C37.41 36.0568 37.2098 36.081 36.974 36.0895C36.5365 36.1065 36.1529 36.0483 35.8234 35.9148C35.4967 35.7812 35.2424 35.5739 35.0606 35.2926C34.8788 35.0114 34.7893 34.6562 34.7921 34.2273V27.8864ZM40.768 36.1236C40.3504 36.1236 39.9782 36.0511 39.6515 35.9062C39.3248 35.7585 39.0663 35.5412 38.876 35.2543C38.6885 34.9645 38.5947 34.6037 38.5947 34.1719C38.5947 33.8082 38.6615 33.5028 38.795 33.2557C38.9285 33.0085 39.1103 32.8097 39.3405 32.6591C39.5706 32.5085 39.8319 32.3949 40.1246 32.3182C40.42 32.2415 40.7297 32.1875 41.0535 32.1562C41.4342 32.1165 41.741 32.0795 41.974 32.0455C42.2069 32.0085 42.376 31.9545 42.4811 31.8835C42.5862 31.8125 42.6388 31.7074 42.6388 31.5682V31.5426C42.6388 31.2727 42.5535 31.0639 42.3831 30.9162C42.2155 30.7685 41.9768 30.6946 41.6672 30.6946C41.3405 30.6946 41.0805 30.767 40.8873 30.9119C40.6942 31.054 40.5663 31.233 40.5038 31.4489L38.8248 31.3125C38.9101 30.9148 39.0777 30.571 39.3277 30.2812C39.5777 29.9886 39.9001 29.7642 40.295 29.608C40.6927 29.4489 41.153 29.3693 41.6757 29.3693C42.0393 29.3693 42.3873 29.4119 42.7197 29.4972C43.0549 29.5824 43.3518 29.7145 43.6103 29.8935C43.8717 30.0724 44.0777 30.3026 44.2282 30.5838C44.3788 30.8622 44.4541 31.196 44.4541 31.5852V36H42.7325V35.0923H42.6814C42.5763 35.2969 42.4356 35.4773 42.2595 35.6335C42.0834 35.7869 41.8717 35.9077 41.6246 35.9957C41.3774 36.081 41.0919 36.1236 40.768 36.1236ZM41.2879 34.8707C41.5549 34.8707 41.7907 34.8182 41.9953 34.7131C42.1998 34.6051 42.3603 34.4602 42.4768 34.2784C42.5933 34.0966 42.6515 33.8906 42.6515 33.6605V32.9659C42.5947 33.0028 42.5166 33.0369 42.4172 33.0682C42.3206 33.0966 42.2112 33.1236 42.089 33.1491C41.9669 33.1719 41.8447 33.1932 41.7226 33.2131C41.6004 33.2301 41.4896 33.2457 41.3902 33.2599C41.1771 33.2912 40.991 33.3409 40.8319 33.4091C40.6728 33.4773 40.5493 33.5696 40.4612 33.6861C40.3731 33.7997 40.3291 33.9418 40.3291 34.1122C40.3291 34.3594 40.4186 34.5483 40.5976 34.679C40.7794 34.8068 41.0095 34.8707 41.2879 34.8707Z" fill="#41227C"/>
<defs>
<linearGradient id="paint0_linear_2307_693" x1="26" y1="2" x2="26" y2="22" gradientUnits="userSpaceOnUse">
<stop stop-color="#8652F9"/>
<stop offset="0.535211" stop-color="#2E099B"/>
<stop offset="1" stop-color="#200D5A"/>
</linearGradient>
<radialGradient id="paint1_radial_2307_693" cx="0" cy="0" r="1" gradientUnits="userSpaceOnUse" gradientTransform="translate(16 2) rotate(47.0124) scale(13.2854 19.4107)">
<stop stop-color="#9B0595"/>
<stop offset="1" stop-color="#E700DE" stop-opacity="0"/>
</radialGradient>
<radialGradient id="paint2_radial_2307_693" cx="0" cy="0" r="1" gradientUnits="userSpaceOnUse" gradientTransform="translate(16.7634 22.446) rotate(-32.7096) scale(23.5879 10.4412)">
<stop stop-color="#9B0595"/>
<stop offset="1" stop-color="#E700DE" stop-opacity="0"/>
</radialGradient>
</defs>
</svg>
