<svg width="24" height="25" viewBox="0 0 24 25" fill="none" xmlns="http://www.w3.org/2000/svg">
<path fill-rule="evenodd" clip-rule="evenodd" d="M16.7121 14.3056C17.5407 13.2721 18.0349 11.9639 18.0349 10.5348C18.0349 7.20186 15.333 4.5 12.0001 4.5C8.6672 4.5 5.96533 7.20186 5.96533 10.5348C5.96533 11.9637 6.45949 13.2718 7.28786 14.3053L7.29382 14.3127C7.4692 14.5312 7.63157 14.7613 7.80026 14.9849C8.09325 15.3734 8.5064 15.9189 8.98644 16.5462C9.88098 17.7153 10.9984 19.1565 12.0008 20.3938C13.0064 19.1539 14.1264 17.7104 15.0227 16.5398C15.5036 15.9117 15.9174 15.3657 16.2108 14.9769C16.3786 14.7545 16.5379 14.523 16.7121 14.3056ZM18.2755 15.5589C18.2755 15.5589 18.2738 15.5611 18.2726 15.5627C18.2214 15.6312 17.7512 16.2595 17.0698 17.1544C16.0589 18.4819 14.5832 20.3961 13.3216 21.9393C12.6314 22.7834 11.369 22.7831 10.6793 21.9386C8.52295 19.2985 5.73409 15.5646 5.73409 15.5646L5.72759 15.5565C4.62491 14.181 3.96533 12.4349 3.96533 10.5348C3.96533 6.0973 7.56263 2.5 12.0001 2.5C16.4376 2.5 20.0349 6.0973 20.0349 10.5348C20.0349 11.717 19.7796 12.8396 19.321 13.8505C19.0436 14.462 18.6919 15.0326 18.2773 15.5507L18.2744 15.5543L18.2726 15.5565H18.2773L18.2755 15.5589Z" fill="#B4A9CE"/>
<path fill-rule="evenodd" clip-rule="evenodd" d="M12 11.5C12.5523 11.5 13 11.0523 13 10.5C13 9.94771 12.5523 9.5 12 9.5C11.4477 9.5 11 9.94771 11 10.5C11 11.0523 11.4477 11.5 12 11.5ZM15 10.5C15 12.1569 13.6569 13.5 12 13.5C10.3431 13.5 9 12.1569 9 10.5C9 8.84315 10.3431 7.5 12 7.5C13.6569 7.5 15 8.84315 15 10.5Z" fill="#B4A9CE"/>
</svg>
