<svg width="24" height="25" viewBox="0 0 24 25" fill="none" xmlns="http://www.w3.org/2000/svg">
<path d="M4 4.5C4 3.39543 4.89543 2.5 6 2.5H18C19.1046 2.5 20 3.39543 20 4.5V17.5C20 18.6046 19.1046 19.5 18 19.5H14.5L12 22.5L9.5 19.5H6C4.89543 19.5 4 18.6046 4 17.5V4.5Z" stroke="#B4A9CE" stroke-width="2" stroke-linejoin="round"/>
<path d="M13.2222 8.69911C13.2222 9.35153 12.6849 9.89822 12 9.89822V11.8982C13.7697 11.8982 15.2222 10.4758 15.2222 8.69911H13.2222ZM12 9.89822C11.3151 9.89822 10.7778 9.35153 10.7778 8.69911H8.77778C8.77778 10.4758 10.2303 11.8982 12 11.8982V9.89822ZM10.7778 8.69911C10.7778 8.04669 11.3151 7.5 12 7.5V5.5C10.2303 5.5 8.77778 6.92246 8.77778 8.69911H10.7778ZM12 7.5C12.6849 7.5 13.2222 8.04669 13.2222 8.69911H15.2222C15.2222 6.92246 13.7697 5.5 12 5.5V7.5ZM8.958 16.2868C9.37707 14.8868 10.6041 13.9212 12 13.9212V11.9212C9.64195 11.9212 7.69125 13.5444 7.042 15.7132L8.958 16.2868ZM12 13.9212C13.3959 13.9212 14.6229 14.8868 15.042 16.2868L16.958 15.7132C16.3088 13.5444 14.358 11.9212 12 11.9212V13.9212Z" fill="#B4A9CE"/>
</svg>
