<svg width="24" height="25" viewBox="0 0 24 25" fill="none" xmlns="http://www.w3.org/2000/svg">
<path d="M12 16.5C13.4319 16.5 14.7465 17.001 15.7786 17.8389C14.7467 17.0018 13.4309 16.5 12 16.5ZM12 16.5C10.5662 16.5 9.25001 17.0023 8.21732 17.8422C9.24984 17.0031 10.5672 16.5 12 16.5ZM16.4596 20.319L16.5286 20.2796C15.2696 21.0142 13.8166 21.4516 12.264 21.4962C12.2725 21.496 12.281 21.4957 12.2896 21.4954C13.8024 21.4475 15.223 21.0257 16.4596 20.319ZM18.2481 18.9778L18.2578 18.9684C19.9475 17.3334 21 15.0387 21 12.5C21 15.0435 19.946 17.3398 18.2481 18.9778ZM11.7625 21.4969C10.1997 21.4565 8.73711 21.0183 7.47083 20.2792L7.5404 20.319C8.77443 21.0242 10.1917 21.4457 11.701 21.4951C11.7214 21.4958 11.7419 21.4964 11.7625 21.4969ZM5.74221 18.9684L5.75357 18.9794C4.05471 17.3413 3 15.0443 3 12.5C3 15.0387 4.05245 17.3334 5.74221 18.9684Z" fill="black" stroke="#B4A9CE" stroke-width="2"/>
</svg>
