<svg width="44" height="39" viewBox="0 0 44 39" fill="none" xmlns="http://www.w3.org/2000/svg">
<circle cx="22" cy="19.5" r="9" stroke="#B4A9CE" stroke-width="2"/>
<circle cx="22" cy="19.5" r="7" stroke="#B4A9CE"/>
<path d="M24.6444 22.4064L24.7275 22.4622C24.9744 22.0941 25.0974 21.6613 25.1 21.168L25.1 21.1667C25.0974 20.8311 25.0374 20.5294 24.9172 20.2639C24.8005 20.0006 24.6356 19.7715 24.423 19.5773C24.2121 19.3846 23.9636 19.2233 23.6787 19.0927C23.3955 18.963 23.0855 18.8596 22.749 18.7823L22.0683 18.6153L22.0683 18.6152L22.0668 18.6149C21.9053 18.5778 21.754 18.5334 21.6128 18.4819C21.4734 18.4285 21.3522 18.3673 21.2484 18.2988C21.1482 18.2301 21.0711 18.1504 21.0152 18.0601C20.965 17.9753 20.94 17.8734 20.9444 17.7506L20.9444 17.7506V17.7471C20.9444 17.6001 20.9852 17.4712 21.0663 17.3571C21.1497 17.2432 21.2716 17.1511 21.4377 17.0834L21.4378 17.0834L21.4389 17.0829C21.6034 17.0135 21.8103 16.9767 22.063 16.9767C22.4343 16.9767 22.7155 17.0586 22.9175 17.2112C23.1176 17.3624 23.2325 17.5739 23.2597 17.8555L23.2685 17.9459H23.3593H24.8963H24.9979L24.9963 17.8443C24.9886 17.3633 24.8628 16.9363 24.6166 16.5667C24.3708 16.1978 24.0276 15.9114 23.5905 15.7068L23.5481 15.7974M24.6444 22.4064L24.7276 22.462C24.4834 22.8273 24.1315 23.1085 23.6772 23.3075L23.6769 23.3076C23.2242 23.5045 22.6827 23.601 22.0556 23.601C21.4329 23.601 20.8858 23.5031 20.4165 23.3042L20.4164 23.3041C19.9482 23.1046 19.5793 22.8077 19.3134 22.4129L19.3129 22.4123C19.0485 22.0132 18.9127 21.5238 18.9 20.9493L18.8978 20.8471H19H20.5519H20.6454L20.6516 20.9404C20.6679 21.186 20.7358 21.3844 20.8505 21.5409C20.9694 21.6973 21.1282 21.817 21.3297 21.8993C21.5359 21.98 21.7712 22.0214 22.037 22.0214C22.299 22.0214 22.5215 21.9823 22.7069 21.9071L22.7073 21.907C22.8964 21.8312 23.0373 21.7282 23.1356 21.6006C23.2328 21.4742 23.2815 21.3298 23.2815 21.1637C23.2815 21.0096 23.2375 20.8864 23.1534 20.7876L23.1527 20.7867L23.1527 20.7867C23.0668 20.6832 22.9359 20.59 22.7528 20.5105L22.7523 20.5103C22.569 20.4297 22.3414 20.3553 22.0686 20.2878L22.0676 20.2876L22.0676 20.2876L21.2424 20.075C21.2423 20.0749 21.2422 20.0749 21.2421 20.0749C20.5915 19.9124 20.0701 19.6566 19.6843 19.303C19.2901 18.9417 19.0975 18.4559 19.1 17.8573M24.6444 22.4064C24.879 22.0568 24.9975 21.6438 25 21.1675L20.4556 23.2121C20.9099 23.4047 21.4432 23.501 22.0556 23.501C22.6728 23.501 23.2 23.406 23.637 23.2159C24.0765 23.0234 24.4123 22.7535 24.6444 22.4064ZM19.1 17.8573C19.0975 17.3676 19.2249 16.9354 19.4848 16.5647L19.4851 16.5643L19.4851 16.5643C19.7457 16.1962 20.1023 15.9105 20.5512 15.7064C21.0007 15.502 21.509 15.401 22.0741 15.401C22.6487 15.401 23.1551 15.5018 23.5907 15.7069L23.5481 15.7974M19.1 17.8573C19.1 17.8572 19.1 17.857 19.1 17.8568L19.2 17.8573M19.1 17.8573C19.1 17.8575 19.1 17.8576 19.1 17.8578L19.2 17.8573M23.5481 15.7974C23.9704 15.995 24.2988 16.2699 24.5333 16.6221C24.7509 16.9488 24.8707 17.3233 24.8929 17.7459L19.2 17.8573M23.5481 15.7974C23.1284 15.5998 22.637 15.501 22.0741 15.501C21.521 15.501 21.0272 15.5998 20.5926 15.7974C20.158 15.995 19.816 16.2699 19.5667 16.6221M19.5667 16.6221L19.5667 16.6221L19.5667 16.6221ZM19.5667 16.6221C19.3198 16.9743 19.1975 17.386 19.2 17.8573" fill="#B4A9CE" stroke="#B4A9CE" stroke-width="0.2"/>
<path d="M22 14.5V16.5" stroke="#B4A9CE" stroke-width="2"/>
<path d="M22 22.5005V24.5005" stroke="#B4A9CE" stroke-width="2"/>
</svg>
