<svg width="24" height="24" viewBox="0 0 24 24" fill="none" xmlns="http://www.w3.org/2000/svg">
<path d="M4 5V19C4 19.5523 4.44772 20 5 20H19C19.5523 20 20 19.5523 20 19V5C20 4.44772 19.5523 4 19 4H5C4.44772 4 4 4.44772 4 5Z" stroke="#62557F" stroke-width="2"/>
<path d="M8 11L8.70711 10.2929L8 9.58579L7.29289 10.2929L8 11ZM11 14L10.2929 14.7071L11 15.4142L11.7071 14.7071L11 14ZM15 10L15.7071 9.29289L15 8.58579L14.2929 9.29289L15 10ZM7.29289 10.2929L3.29289 14.2929L4.70711 15.7071L8.70711 11.7071L7.29289 10.2929ZM11.7071 13.2929L8.70711 10.2929L7.29289 11.7071L10.2929 14.7071L11.7071 13.2929ZM11.7071 14.7071L15.7071 10.7071L14.2929 9.29289L10.2929 13.2929L11.7071 14.7071ZM14.2929 10.7071L19.2929 15.7071L20.7071 14.2929L15.7071 9.29289L14.2929 10.7071ZM10.7929 12.7929L7.79289 15.7929L9.20711 17.2071L12.2071 14.2071L10.7929 12.7929Z" fill="#62557F"/>
<path d="M13 8C13 8.55228 12.5523 9 12 9C11.4477 9 11 8.55228 11 8C11 7.44772 11.4477 7 12 7C12.5523 7 13 7.44772 13 8Z" fill="#62557F"/>
</svg>
