<svg width="20" height="20" viewBox="0 0 20 20" fill="none" xmlns="http://www.w3.org/2000/svg">
<path d="M9.45216 14.1665C9.45216 14.5807 9.78795 14.9165 10.2022 14.9165C10.6164 14.9165 10.9522 14.5807 10.9522 14.1665H9.45216ZM9.36883 8.4165C8.95461 8.4165 8.61883 8.75229 8.61883 9.1665C8.61883 9.58072 8.95461 9.9165 9.36883 9.9165V8.4165ZM9.99366 5.9165C9.57945 5.9165 9.24366 6.25229 9.24366 6.6665C9.24366 7.08072 9.57945 7.4165 9.99366 7.4165V5.9165ZM10.0012 7.4165C10.4154 7.4165 10.7512 7.08072 10.7512 6.6665C10.7512 6.25229 10.4154 5.9165 10.0012 5.9165V7.4165ZM19.0837 9.99984C19.0837 4.98325 15.0169 0.916504 10.0003 0.916504V2.4165C14.1884 2.4165 17.5837 5.81168 17.5837 9.99984H19.0837ZM10.0003 0.916504C4.98374 0.916504 0.916992 4.98325 0.916992 9.99984H2.41699C2.41699 5.81168 5.81216 2.4165 10.0003 2.4165V0.916504ZM0.916992 9.99984C0.916992 15.0164 4.98373 19.0832 10.0003 19.0832V17.5832C5.81217 17.5832 2.41699 14.188 2.41699 9.99984H0.916992ZM10.0003 19.0832C15.0169 19.0832 19.0837 15.0164 19.0837 9.99984H17.5837C17.5837 14.188 14.1884 17.5832 10.0003 17.5832V19.0832ZM10.9522 14.1665V9.99984H9.45216V14.1665H10.9522ZM10.9522 9.99984C10.9522 9.82463 10.9538 9.61775 10.9302 9.44267C10.9038 9.24598 10.834 8.98175 10.6104 8.75817L9.54975 9.81883C9.50484 9.77392 9.47461 9.72392 9.45708 9.68132C9.44202 9.6447 9.44129 9.62549 9.44359 9.64261C9.44596 9.66021 9.44886 9.69453 9.45049 9.75906C9.45211 9.82321 9.45216 9.89884 9.45216 9.99984H10.9522ZM10.6104 8.75817C10.3868 8.53456 10.1225 8.46486 9.92592 8.43844C9.75089 8.41491 9.54404 8.4165 9.36883 8.4165V9.9165C9.46982 9.9165 9.54545 9.91655 9.60961 9.91817C9.67415 9.9198 9.70848 9.9227 9.7261 9.92507C9.74325 9.92737 9.72403 9.92665 9.68741 9.91159C9.64479 9.89406 9.59473 9.86382 9.54975 9.81883L10.6104 8.75817ZM9.99366 7.4165H10.0012V5.9165H9.99366V7.4165Z" fill="#62557F"/>
</svg>
