<svg width="52" height="52" viewBox="0 0 52 52" fill="none" xmlns="http://www.w3.org/2000/svg">
<circle cx="26" cy="26" r="25" fill="url(#paint0_linear_291_6338)"/>
<circle cx="26" cy="26" r="25" fill="url(#paint1_radial_291_6338)" fill-opacity="0.5"/>
<circle cx="26" cy="26" r="25" fill="url(#paint2_radial_291_6338)" fill-opacity="0.2"/>
<circle cx="26" cy="26" r="25" stroke="#F2EFF9" stroke-width="2"/>
<path fill-rule="evenodd" clip-rule="evenodd" d="M26 33.5C30.6944 33.5 34.5 29.6944 34.5 25C34.5 20.3056 30.6944 16.5 26 16.5C21.3056 16.5 17.5 20.3056 17.5 25C17.5 29.6944 21.3056 33.5 26 33.5ZM26 35C31.5228 35 36 30.5228 36 25C36 19.4772 31.5228 15 26 15C20.4772 15 16 19.4772 16 25C16 30.5228 20.4772 35 26 35Z" fill="white"/>
<path d="M27 31C27 31.5523 26.5523 32 26 32C25.4477 32 25 31.5523 25 31C25 30.4477 25.4477 30 26 30C26.5523 30 27 30.4477 27 31Z" fill="white"/>
<path fill-rule="evenodd" clip-rule="evenodd" d="M25.9999 20.75C25.0214 20.75 24.187 21.375 23.8777 22.2499C23.7397 22.6405 23.3112 22.8452 22.9207 22.7071C22.5301 22.5691 22.3254 22.1406 22.4635 21.7501C22.9779 20.2946 24.366 19.25 25.9999 19.25C28.071 19.25 29.7499 20.9289 29.7499 23C29.7499 24.8142 28.4616 26.3275 26.7499 26.675V28C26.7499 28.4142 26.4141 28.75 25.9999 28.75C25.5857 28.75 25.2499 28.4142 25.2499 28V26C25.2499 25.5858 25.5857 25.25 25.9999 25.25C27.2425 25.25 28.2499 24.2426 28.2499 23C28.2499 21.7574 27.2425 20.75 25.9999 20.75Z" fill="white"/>
<defs>
<linearGradient id="paint0_linear_291_6338" x1="26" y1="0" x2="26" y2="52" gradientUnits="userSpaceOnUse">
<stop stop-color="#8652F9"/>
<stop offset="0.535211" stop-color="#2E099B"/>
<stop offset="1" stop-color="#200D5A"/>
</linearGradient>
<radialGradient id="paint1_radial_291_6338" cx="0" cy="0" r="1" gradientUnits="userSpaceOnUse" gradientTransform="rotate(47.0124) scale(34.5421 50.4678)">
<stop stop-color="#9B0595"/>
<stop offset="1" stop-color="#E700DE" stop-opacity="0"/>
</radialGradient>
<radialGradient id="paint2_radial_291_6338" cx="0" cy="0" r="1" gradientUnits="userSpaceOnUse" gradientTransform="translate(1.98473 53.1596) rotate(-32.7096) scale(61.3286 27.1471)">
<stop stop-color="#9B0595"/>
<stop offset="1" stop-color="#E700DE" stop-opacity="0"/>
</radialGradient>
</defs>
</svg>
