<svg width="56" height="56" viewBox="0 0 56 56" fill="none" xmlns="http://www.w3.org/2000/svg">
<g filter="url(#filter0_d_425_6678)">
<path d="M3 28C3 14.7452 13.7452 4 27 4C40.2548 4 51 14.7452 51 28C51 41.2548 40.2548 52 27 52C13.7452 52 3 41.2548 3 28Z" fill="white"/>
<mask id="mask0_425_6678" style="mask-type:luminance" maskUnits="userSpaceOnUse" x="3" y="4" width="48" height="48">
<path fill-rule="evenodd" clip-rule="evenodd" d="M3 28C3 14.7452 13.7452 4 27 4C40.2548 4 51 14.7452 51 28C51 41.2548 40.2548 52 27 52C13.7452 52 3 41.2548 3 28Z" fill="white"/>
</mask>
<g mask="url(#mask0_425_6678)">
<path fill-rule="evenodd" clip-rule="evenodd" d="M27.0014 15.2C23.5251 15.2 23.0888 15.2152 21.7235 15.2773C20.3608 15.3397 19.4306 15.5554 18.6168 15.872C17.7749 16.1989 17.0608 16.6362 16.3493 17.348C15.6373 18.0594 15.1999 18.7736 14.8719 19.6152C14.5546 20.4293 14.3386 21.3597 14.2773 22.7219C14.2162 24.0872 14.2002 24.5238 14.2002 28.0001C14.2002 31.4764 14.2157 31.9113 14.2775 33.2767C14.3402 34.6394 14.5559 35.5695 14.8722 36.3834C15.1994 37.2252 15.6367 37.9394 16.3485 38.6509C17.0597 39.3629 17.7738 39.8013 18.6152 40.1282C19.4296 40.4447 20.36 40.6605 21.7224 40.7229C23.0878 40.785 23.5238 40.8002 26.9998 40.8002C30.4764 40.8002 30.9113 40.785 32.2766 40.7229C33.6393 40.6605 34.5705 40.4447 35.3849 40.1282C36.2266 39.8013 36.9396 39.3629 37.6508 38.6509C38.3628 37.9394 38.8002 37.2252 39.1282 36.3836C39.4429 35.5695 39.6589 34.6391 39.7229 33.2769C39.7842 31.9116 39.8002 31.4764 39.8002 28.0001C39.8002 24.5238 39.7842 24.0875 39.7229 22.7222C39.6589 21.3595 39.4429 20.4293 39.1282 19.6155C38.8002 18.7736 38.3628 18.0594 37.6508 17.348C36.9388 16.636 36.2268 16.1986 35.3841 15.872C34.5681 15.5554 33.6375 15.3397 32.2748 15.2773C30.9094 15.2152 30.4748 15.2 26.9974 15.2H27.0014ZM26.5745 17.5065H26.5748L27.0014 17.5066C30.419 17.5066 30.8241 17.5189 32.1737 17.5802C33.4217 17.6373 34.0991 17.8458 34.5503 18.021C35.1476 18.253 35.5735 18.5304 36.0212 18.9784C36.4692 19.4264 36.7466 19.8531 36.9791 20.4504C37.1543 20.9011 37.3631 21.5784 37.4199 22.8264C37.4812 24.1758 37.4946 24.5811 37.4946 27.9972C37.4946 31.4132 37.4812 31.8185 37.4199 33.1679C37.3628 34.4159 37.1543 35.0932 36.9791 35.5439C36.7471 36.1412 36.4692 36.5666 36.0212 37.0143C35.5732 37.4623 35.1479 37.7397 34.5503 37.9717C34.0996 38.1477 33.4217 38.3557 32.1737 38.4127C30.8244 38.4741 30.419 38.4874 27.0014 38.4874C23.5835 38.4874 23.1784 38.4741 21.8291 38.4127C20.5811 38.3551 19.9037 38.1466 19.4523 37.9714C18.8549 37.7394 18.4282 37.462 17.9802 37.014C17.5322 36.566 17.2549 36.1404 17.0224 35.5428C16.8472 35.0922 16.6384 34.4148 16.5816 33.1668C16.5202 31.8175 16.508 31.4121 16.508 27.994C16.508 24.5758 16.5202 24.1726 16.5816 22.8232C16.6386 21.5752 16.8472 20.8979 17.0224 20.4467C17.2544 19.8493 17.5322 19.4227 17.9802 18.9747C18.4282 18.5267 18.8549 18.2493 19.4523 18.0168C19.9035 17.8408 20.5811 17.6328 21.8291 17.5754C23.0099 17.5221 23.4675 17.5061 25.8531 17.5034V17.5066C26.076 17.5063 26.3158 17.5064 26.5745 17.5065ZM32.298 21.1675C32.298 20.3192 32.986 19.632 33.834 19.632V19.6315C34.682 19.6315 35.37 20.3195 35.37 21.1675C35.37 22.0155 34.682 22.7035 33.834 22.7035C32.986 22.7035 32.298 22.0155 32.298 21.1675ZM27.0011 21.4267C23.3711 21.4268 20.428 24.37 20.428 28.0001C20.428 31.6303 23.3712 34.5722 27.0014 34.5722C30.6316 34.5722 33.5737 31.6303 33.5737 28.0001C33.5737 24.3699 30.6313 21.4267 27.0011 21.4267ZM31.2681 28.0001C31.2681 25.6435 29.3577 23.7334 27.0014 23.7334C24.6448 23.7334 22.7347 25.6435 22.7347 28.0001C22.7347 30.3564 24.6448 32.2668 27.0014 32.2668C29.3577 32.2668 31.2681 30.3564 31.2681 28.0001Z" fill="#41227C"/>
</g>
</g>
<defs>
<filter id="filter0_d_425_6678" x="0" y="0" width="56" height="56" filterUnits="userSpaceOnUse" color-interpolation-filters="sRGB">
<feFlood flood-opacity="0" result="BackgroundImageFix"/>
<feColorMatrix in="SourceAlpha" type="matrix" values="0 0 0 0 0 0 0 0 0 0 0 0 0 0 0 0 0 0 127 0" result="hardAlpha"/>
<feOffset dx="1"/>
<feGaussianBlur stdDeviation="2"/>
<feComposite in2="hardAlpha" operator="out"/>
<feColorMatrix type="matrix" values="0 0 0 0 0.116609 0 0 0 0 0.215313 0 0 0 0 0.270833 0 0 0 0.3 0"/>
<feBlend mode="normal" in2="BackgroundImageFix" result="effect1_dropShadow_425_6678"/>
<feBlend mode="normal" in="SourceGraphic" in2="effect1_dropShadow_425_6678" result="shape"/>
</filter>
</defs>
</svg>
