<svg width="24" height="24" viewBox="0 0 24 24" fill="none" xmlns="http://www.w3.org/2000/svg">
<g clip-path="url(#clip0_2162_4315)">
<mask id="mask0_2162_4315" style="mask-type:alpha" maskUnits="userSpaceOnUse" x="0" y="0" width="24" height="24">
<path d="M21.7143 0H2.28571C1.02335 0 0 1.43269 0 3.2V20.8C0 22.5673 1.02335 24 2.28571 24H21.7143C22.9767 24 24 22.5673 24 20.8V3.2C24 1.43269 22.9767 0 21.7143 0Z" fill="white"/>
</mask>
<g mask="url(#mask0_2162_4315)">
<path d="M21.7143 0H2.28571C1.02335 0 0 1.43269 0 3.2V20.8C0 22.5673 1.02335 24 2.28571 24H21.7143C22.9767 24 24 22.5673 24 20.8V3.2C24 1.43269 22.9767 0 21.7143 0Z" fill="white"/>
<path fill-rule="evenodd" clip-rule="evenodd" d="M0 0H8V24H0V0Z" fill="#009342"/>
<path fill-rule="evenodd" clip-rule="evenodd" d="M16 0H24V24H16V0Z" fill="#D02832"/>
<path d="M21.7143 0.800049H2.28571C1.33894 0.800049 0.571426 1.87457 0.571426 3.20005V20.8001C0.571426 22.1255 1.33894 23.2001 2.28571 23.2001H21.7143C22.6611 23.2001 23.4286 22.1255 23.4286 20.8001V3.20005C23.4286 1.87457 22.6611 0.800049 21.7143 0.800049Z" stroke="black" stroke-opacity="0.1"/>
</g>
</g>
<rect x="0.5" y="0.5" width="23" height="23" rx="11.5" stroke="#F9F9F9"/>
<defs>
<clipPath id="clip0_2162_4315">
<rect width="24" height="24" rx="12" fill="white"/>
</clipPath>
</defs>
</svg>
