<svg width="25" height="25" viewBox="0 0 25 25" fill="none" xmlns="http://www.w3.org/2000/svg">
<path fill-rule="evenodd" clip-rule="evenodd" d="M17.2117 14.3056C18.0402 13.2721 18.5344 11.9639 18.5344 10.5348C18.5344 7.20186 15.8325 4.5 12.4996 4.5C9.16671 4.5 6.46484 7.20186 6.46484 10.5348C6.46484 11.9637 6.959 13.2718 7.78737 14.3053L7.79333 14.3127C7.96871 14.5312 8.13108 14.7613 8.29977 14.9849C8.59276 15.3734 9.00592 15.9189 9.48595 16.5462C10.3805 17.7153 11.4979 19.1565 12.5003 20.3938C13.5059 19.1539 14.6259 17.7104 15.5222 16.5398C16.0031 15.9117 16.4169 15.3657 16.7103 14.9769C16.8781 14.7545 17.0374 14.523 17.2117 14.3056ZM18.7751 15.5589C18.7751 15.5589 18.7734 15.5611 18.7722 15.5627C18.7209 15.6312 18.2507 16.2595 17.5693 17.1544C16.5584 18.4819 15.0827 20.3961 13.8211 21.9393C13.131 22.7834 11.8685 22.7831 11.1788 21.9386C9.02246 19.2985 6.23361 15.5646 6.23361 15.5646L6.2271 15.5565C5.12442 14.181 4.46484 12.4349 4.46484 10.5348C4.46484 6.0973 8.06214 2.5 12.4996 2.5C16.9371 2.5 20.5344 6.0973 20.5344 10.5348C20.5344 11.717 20.2791 12.8396 19.8205 13.8505C19.5431 14.462 19.1914 15.0326 18.7768 15.5507L18.7739 15.5543L18.7722 15.5565H18.7768L18.7751 15.5589Z" fill="url(#paint0_linear_121_6742)"/>
<path fill-rule="evenodd" clip-rule="evenodd" d="M17.2117 14.3056C18.0402 13.2721 18.5344 11.9639 18.5344 10.5348C18.5344 7.20186 15.8325 4.5 12.4996 4.5C9.16671 4.5 6.46484 7.20186 6.46484 10.5348C6.46484 11.9637 6.959 13.2718 7.78737 14.3053L7.79333 14.3127C7.96871 14.5312 8.13108 14.7613 8.29977 14.9849C8.59276 15.3734 9.00592 15.9189 9.48595 16.5462C10.3805 17.7153 11.4979 19.1565 12.5003 20.3938C13.5059 19.1539 14.6259 17.7104 15.5222 16.5398C16.0031 15.9117 16.4169 15.3657 16.7103 14.9769C16.8781 14.7545 17.0374 14.523 17.2117 14.3056ZM18.7751 15.5589C18.7751 15.5589 18.7734 15.5611 18.7722 15.5627C18.7209 15.6312 18.2507 16.2595 17.5693 17.1544C16.5584 18.4819 15.0827 20.3961 13.8211 21.9393C13.131 22.7834 11.8685 22.7831 11.1788 21.9386C9.02246 19.2985 6.23361 15.5646 6.23361 15.5646L6.2271 15.5565C5.12442 14.181 4.46484 12.4349 4.46484 10.5348C4.46484 6.0973 8.06214 2.5 12.4996 2.5C16.9371 2.5 20.5344 6.0973 20.5344 10.5348C20.5344 11.717 20.2791 12.8396 19.8205 13.8505C19.5431 14.462 19.1914 15.0326 18.7768 15.5507L18.7739 15.5543L18.7722 15.5565H18.7768L18.7751 15.5589Z" fill="url(#paint1_radial_121_6742)" fill-opacity="0.5"/>
<path fill-rule="evenodd" clip-rule="evenodd" d="M17.2117 14.3056C18.0402 13.2721 18.5344 11.9639 18.5344 10.5348C18.5344 7.20186 15.8325 4.5 12.4996 4.5C9.16671 4.5 6.46484 7.20186 6.46484 10.5348C6.46484 11.9637 6.959 13.2718 7.78737 14.3053L7.79333 14.3127C7.96871 14.5312 8.13108 14.7613 8.29977 14.9849C8.59276 15.3734 9.00592 15.9189 9.48595 16.5462C10.3805 17.7153 11.4979 19.1565 12.5003 20.3938C13.5059 19.1539 14.6259 17.7104 15.5222 16.5398C16.0031 15.9117 16.4169 15.3657 16.7103 14.9769C16.8781 14.7545 17.0374 14.523 17.2117 14.3056ZM18.7751 15.5589C18.7751 15.5589 18.7734 15.5611 18.7722 15.5627C18.7209 15.6312 18.2507 16.2595 17.5693 17.1544C16.5584 18.4819 15.0827 20.3961 13.8211 21.9393C13.131 22.7834 11.8685 22.7831 11.1788 21.9386C9.02246 19.2985 6.23361 15.5646 6.23361 15.5646L6.2271 15.5565C5.12442 14.181 4.46484 12.4349 4.46484 10.5348C4.46484 6.0973 8.06214 2.5 12.4996 2.5C16.9371 2.5 20.5344 6.0973 20.5344 10.5348C20.5344 11.717 20.2791 12.8396 19.8205 13.8505C19.5431 14.462 19.1914 15.0326 18.7768 15.5507L18.7739 15.5543L18.7722 15.5565H18.7768L18.7751 15.5589Z" fill="url(#paint2_radial_121_6742)" fill-opacity="0.2"/>
<path fill-rule="evenodd" clip-rule="evenodd" d="M12.5 11.5C13.0523 11.5 13.5 11.0523 13.5 10.5C13.5 9.94771 13.0523 9.5 12.5 9.5C11.9477 9.5 11.5 9.94771 11.5 10.5C11.5 11.0523 11.9477 11.5 12.5 11.5ZM15.5 10.5C15.5 12.1569 14.1569 13.5 12.5 13.5C10.8431 13.5 9.5 12.1569 9.5 10.5C9.5 8.84315 10.8431 7.5 12.5 7.5C14.1569 7.5 15.5 8.84315 15.5 10.5Z" fill="url(#paint3_linear_121_6742)"/>
<path fill-rule="evenodd" clip-rule="evenodd" d="M12.5 11.5C13.0523 11.5 13.5 11.0523 13.5 10.5C13.5 9.94771 13.0523 9.5 12.5 9.5C11.9477 9.5 11.5 9.94771 11.5 10.5C11.5 11.0523 11.9477 11.5 12.5 11.5ZM15.5 10.5C15.5 12.1569 14.1569 13.5 12.5 13.5C10.8431 13.5 9.5 12.1569 9.5 10.5C9.5 8.84315 10.8431 7.5 12.5 7.5C14.1569 7.5 15.5 8.84315 15.5 10.5Z" fill="url(#paint4_radial_121_6742)" fill-opacity="0.5"/>
<path fill-rule="evenodd" clip-rule="evenodd" d="M12.5 11.5C13.0523 11.5 13.5 11.0523 13.5 10.5C13.5 9.94771 13.0523 9.5 12.5 9.5C11.9477 9.5 11.5 9.94771 11.5 10.5C11.5 11.0523 11.9477 11.5 12.5 11.5ZM15.5 10.5C15.5 12.1569 14.1569 13.5 12.5 13.5C10.8431 13.5 9.5 12.1569 9.5 10.5C9.5 8.84315 10.8431 7.5 12.5 7.5C14.1569 7.5 15.5 8.84315 15.5 10.5Z" fill="url(#paint5_radial_121_6742)" fill-opacity="0.2"/>
<defs>
<linearGradient id="paint0_linear_121_6742" x1="12.4996" y1="2.5" x2="12.4996" y2="22.5722" gradientUnits="userSpaceOnUse">
<stop stop-color="#8652F9"/>
<stop offset="0.535211" stop-color="#2E099B"/>
<stop offset="1" stop-color="#200D5A"/>
</linearGradient>
<radialGradient id="paint1_radial_121_6742" cx="0" cy="0" r="1" gradientUnits="userSpaceOnUse" gradientTransform="translate(4.46484 2.5) rotate(53.2684) scale(12.1697 17.0873)">
<stop stop-color="#9B0595"/>
<stop offset="1" stop-color="#E700DE" stop-opacity="0"/>
</radialGradient>
<radialGradient id="paint2_radial_121_6742" cx="0" cy="0" r="1" gradientUnits="userSpaceOnUse" gradientTransform="translate(5.07819 23.0198) rotate(-38.7364) scale(20.4439 9.71438)">
<stop stop-color="#9B0595"/>
<stop offset="1" stop-color="#E700DE" stop-opacity="0"/>
</radialGradient>
<linearGradient id="paint3_linear_121_6742" x1="12.5" y1="7.5" x2="12.5" y2="13.5" gradientUnits="userSpaceOnUse">
<stop stop-color="#8652F9"/>
<stop offset="0.535211" stop-color="#2E099B"/>
<stop offset="1" stop-color="#200D5A"/>
</linearGradient>
<radialGradient id="paint4_radial_121_6742" cx="0" cy="0" r="1" gradientUnits="userSpaceOnUse" gradientTransform="translate(9.5 7.5) rotate(47.0124) scale(3.98563 5.8232)">
<stop stop-color="#9B0595"/>
<stop offset="1" stop-color="#E700DE" stop-opacity="0"/>
</radialGradient>
<radialGradient id="paint5_radial_121_6742" cx="0" cy="0" r="1" gradientUnits="userSpaceOnUse" gradientTransform="translate(9.72901 13.6338) rotate(-32.7096) scale(7.07637 3.13235)">
<stop stop-color="#9B0595"/>
<stop offset="1" stop-color="#E700DE" stop-opacity="0"/>
</radialGradient>
</defs>
</svg>
