<svg width="24" height="24" viewBox="0 0 24 24" fill="none" xmlns="http://www.w3.org/2000/svg">
<path d="M11.1002 3C7.45057 3.00657 5.53942 3.09617 4.31806 4.31754C3 5.63559 3 7.75698 3 11.9997C3 16.2425 3 18.3639 4.31806 19.6819C5.63611 21 7.7575 21 12.0003 21C16.243 21 18.3644 21 19.6825 19.6819C20.9038 18.4606 20.9934 16.5494 21 12.8998M20.5335 4.05097C20.5335 4.05097 15.7185 8.86583 12.6333 11.951M15.7934 3.52429L20.3153 3.5243C20.6664 3.52428 20.842 3.5243 20.9511 3.63337C21.0602 3.74244 21.0602 3.91802 21.0602 4.26912L21.0602 8.79103" stroke="#41227C" stroke-width="1.5" stroke-linecap="round" stroke-linejoin="round"/>
</svg>
