<svg width="25" height="24" viewBox="0 0 25 24" fill="none" xmlns="http://www.w3.org/2000/svg">
<path fill-rule="evenodd" clip-rule="evenodd" d="M11.5 4.67188C11.7272 4.30511 12.094 4.02213 12.5378 3.86981C12.8367 3.76719 13.1101 3.63226 13.2954 3.44071C13.4464 3.28453 13.5389 3.09071 13.5389 2.84607C13.5389 2.39796 13.2954 2.00973 13.2954 2.00973C13.382 2.00973 13.48 2.0078 13.5889 2.00567C13.9873 1.99786 14.5311 1.9872 15.1926 2.05726C15.9473 2.13718 16.8552 2.32214 17.8749 2.73621C19.148 3.25315 19.7718 4.67221 19.6597 6.0581C19.5569 7.32997 19.4305 8.74879 19.2005 9.74978C19.1297 10.0577 18.9884 10.3377 18.8047 10.5901C18.7762 10.6293 18.7466 10.6679 18.7161 10.7058C18.6432 10.7965 18.565 10.8833 18.483 10.9664L18.1168 11.3375V12.2258L20.8463 13.3322C21.845 13.737 22.5 14.7177 22.5 15.8083V18L14.4586 18V16.2222H20.7467V15.8083C20.7467 15.4448 20.5284 15.1179 20.1955 14.9829L16.3636 13.4297V10.6008L17.2437 9.70894C17.4362 9.51384 17.483 9.3896 17.493 9.34637C17.6881 8.49742 17.8069 7.21711 17.9123 5.91281C17.9811 5.06232 17.5821 4.53233 17.2231 4.38656C16.4184 4.05982 15.7124 3.90584 15.1027 3.83529C14.9414 4.23391 14.691 4.56457 14.4071 4.82061C14.1907 5.0158 13.9577 5.16661 13.7337 5.28421L11.5 4.67188Z" fill="#E21B57"/>
<path d="M12.7931 13.7972L12.5 14.0902V14.5046V15.504V16.1811L13.1288 16.4325L16.2424 17.6772C17.0019 17.9808 17.5 18.7163 17.5 19.5343V21H3.5V19.5343C3.5 18.7163 3.99809 17.9808 4.75761 17.6772L7.8712 16.4325L8.5 16.1811V15.504V14.5046V14.0902L8.20689 13.7972L7.78917 13.3798C7.48835 13.0791 7.30642 12.7808 7.23954 12.4917C6.99062 11.4159 6.83626 9.81024 6.68809 8.26895C6.68234 8.20922 6.67661 8.14959 6.67088 8.09009C6.63042 7.66986 6.88478 7.24405 7.4564 7.05055C7.8172 6.92841 8.24925 6.74105 8.6036 6.42585C8.97769 6.09308 9.26097 5.61719 9.2771 5.00675C10.2012 5.03551 11.4112 5.17929 12.8523 5.75638C13.7832 6.12915 14.3665 7.2255 14.2634 8.48348C14.1445 9.93259 14.0047 11.4509 13.7622 12.4915C13.6949 12.7803 13.5127 13.0781 13.2108 13.3798L12.7931 13.7972Z" stroke="#E21B57" stroke-width="2"/>
</svg>
