<svg width="24" height="24" viewBox="0 0 24 24" fill="none" xmlns="http://www.w3.org/2000/svg">
<path fill-rule="evenodd" clip-rule="evenodd" d="M11 4.67188C11.2272 4.30511 11.594 4.02213 12.0378 3.86981C12.3367 3.76719 12.6101 3.63226 12.7954 3.44071C12.9464 3.28453 13.0389 3.09071 13.0389 2.84607C13.0389 2.39796 12.7954 2.00973 12.7954 2.00973C12.882 2.00973 12.98 2.0078 13.0889 2.00567C13.4873 1.99786 14.0311 1.9872 14.6926 2.05726C15.4473 2.13718 16.3552 2.32214 17.3749 2.73621C18.648 3.25315 19.2718 4.67221 19.1597 6.0581C19.0569 7.32997 18.9305 8.74879 18.7005 9.74978C18.6297 10.0577 18.4884 10.3377 18.3047 10.5901C18.2762 10.6293 18.2466 10.6679 18.2161 10.7058C18.1432 10.7965 18.065 10.8833 17.983 10.9664L17.6168 11.3375V12.2258L20.3463 13.3322C21.345 13.737 22 14.7177 22 15.8083V18L13.9586 18V16.2222H20.2467V15.8083C20.2467 15.4448 20.0284 15.1179 19.6955 14.9829L15.8636 13.4297V10.6008L16.7437 9.70894C16.9362 9.51384 16.983 9.3896 16.993 9.34637C17.1881 8.49742 17.3069 7.21711 17.4123 5.91281C17.4811 5.06232 17.0821 4.53233 16.7231 4.38656C15.9184 4.05982 15.2124 3.90584 14.6027 3.83529C14.4414 4.23391 14.191 4.56457 13.9071 4.82061C13.6907 5.0158 13.4577 5.16661 13.2337 5.28421L11 4.67188Z" fill="#62557F"/>
<path d="M12.2931 13.7972L12 14.0902V14.5046V15.504V16.1811L12.6288 16.4325L15.7424 17.6772C16.5019 17.9808 17 18.7163 17 19.5343V21H3V19.5343C3 18.7163 3.49809 17.9808 4.25761 17.6772L7.3712 16.4325L8 16.1811V15.504V14.5046V14.0902L7.70689 13.7972L7.28917 13.3798C6.98835 13.0791 6.80642 12.7808 6.73954 12.4917C6.49062 11.4159 6.33626 9.81024 6.18809 8.26895C6.18234 8.20922 6.17661 8.14959 6.17088 8.09009C6.13042 7.66986 6.38478 7.24405 6.9564 7.05055C7.3172 6.92841 7.74925 6.74105 8.1036 6.42585C8.47769 6.09308 8.76097 5.61719 8.7771 5.00675C9.7012 5.03551 10.9112 5.17929 12.3523 5.75638C13.2832 6.12915 13.8665 7.2255 13.7634 8.48348C13.6445 9.93259 13.5047 11.4509 13.2622 12.4915C13.1949 12.7803 13.0127 13.0781 12.7108 13.3798L12.2931 13.7972Z" stroke="#62557F" stroke-width="2"/>
</svg>
