<svg width="24" height="24" viewBox="0 0 24 24" fill="none" xmlns="http://www.w3.org/2000/svg">
<path fill-rule="evenodd" clip-rule="evenodd" d="M14.76 6.56541C14.8879 5.00625 14.1763 3.40979 12.724 2.82823C10.541 1.95406 8.8076 1.98757 7.83487 2.00638C7.71062 2.00878 7.59878 2.01094 7.5 2.01094C7.5 2.01094 7.77783 2.44771 7.77783 2.95183C7.77783 3.56457 7.25488 3.89395 6.63576 4.10353C5.71311 4.41586 5.08214 5.21651 5.17549 6.18611C5.18244 6.25833 5.18942 6.331 5.19643 6.40404C5.34119 7.91135 5.50094 9.57479 5.76527 10.7172C5.88771 11.2464 6.19812 11.7033 6.58228 12.0872L7 12.5047L7.5 13V14.5L3.97351 15.7842C2.7886 16.2156 2 17.342 2 18.6031V20H12.044C11.6947 19.2389 11.5 18.3922 11.5 17.5C11.5 16.2733 11.8682 15.1325 12.5 14.1822V13L13 12.5047L13.4177 12.0872C13.8019 11.7033 14.1129 11.2474 14.2362 10.7185C14.4985 9.59239 14.6427 7.99625 14.76 6.56541Z" fill="#E21B57"/>
<path fill-rule="evenodd" clip-rule="evenodd" d="M17.5 22C19.9853 22 22 19.9853 22 17.5C22 15.0147 19.9853 13 17.5 13C15.0147 13 13 15.0147 13 17.5C13 19.9853 15.0147 22 17.5 22ZM14.9697 16.0303L16.4393 17.5L14.9697 18.9697L16.0303 20.0303L17.5 18.5607L18.9697 20.0303L20.0303 18.9697L18.5607 17.5L20.0303 16.0303L18.9697 14.9697L17.5 16.4393L16.0303 14.9697L14.9697 16.0303Z" fill="#E21B57"/>
</svg>
