<svg width="53" height="53" viewBox="0 0 53 53" fill="none" xmlns="http://www.w3.org/2000/svg">
<circle cx="26.5" cy="26.5" r="24.5" fill="url(#paint0_linear_112_4555)"/>
<circle cx="26.5" cy="26.5" r="24.5" fill="url(#paint1_radial_112_4555)" fill-opacity="0.5"/>
<circle cx="26.5" cy="26.5" r="24.5" fill="url(#paint2_radial_112_4555)" fill-opacity="0.2"/>
<circle cx="26.5" cy="26.5" r="24.5" stroke="#F2EFF9" stroke-width="3"/>
<path d="M27.5 18.5C27.5 17.9477 27.0523 17.5 26.5 17.5C25.9477 17.5 25.5 17.9477 25.5 18.5V24.5H19.5C18.9477 24.5 18.5 24.9477 18.5 25.5C18.5 26.0523 18.9477 26.5 19.5 26.5H25.5V32.5C25.5 33.0523 25.9477 33.5 26.5 33.5C27.0523 33.5 27.5 33.0523 27.5 32.5V26.5H33.5C34.0523 26.5 34.5 26.0523 34.5 25.5C34.5 24.9477 34.0523 24.5 33.5 24.5H27.5V18.5Z" fill="white"/>
<defs>
<linearGradient id="paint0_linear_112_4555" x1="26.5" y1="0.5" x2="26.5" y2="52.5" gradientUnits="userSpaceOnUse">
<stop stop-color="#8652F9"/>
<stop offset="0.535211" stop-color="#2E099B"/>
<stop offset="1" stop-color="#200D5A"/>
</linearGradient>
<radialGradient id="paint1_radial_112_4555" cx="0" cy="0" r="1" gradientUnits="userSpaceOnUse" gradientTransform="translate(0.5 0.5) rotate(47.0124) scale(34.5421 50.4678)">
<stop stop-color="#9B0595"/>
<stop offset="1" stop-color="#E700DE" stop-opacity="0"/>
</radialGradient>
<radialGradient id="paint2_radial_112_4555" cx="0" cy="0" r="1" gradientUnits="userSpaceOnUse" gradientTransform="translate(2.48473 53.6596) rotate(-32.7096) scale(61.3286 27.1471)">
<stop stop-color="#9B0595"/>
<stop offset="1" stop-color="#E700DE" stop-opacity="0"/>
</radialGradient>
</defs>
</svg>
