<svg width="45" height="39" viewBox="0 0 45 39" fill="none" xmlns="http://www.w3.org/2000/svg">
<path d="M22.5 23.5C23.9319 23.5 25.2465 24.001 26.2786 24.8389C25.2467 24.0018 23.9309 23.5 22.5 23.5ZM22.5 23.5C21.0662 23.5 19.75 24.0023 18.7173 24.8422C19.7498 24.0031 21.0672 23.5 22.5 23.5ZM26.9596 27.319L27.0286 27.2796C25.7696 28.0142 24.3166 28.4516 22.764 28.4962C22.7725 28.496 22.781 28.4957 22.7896 28.4954C24.3024 28.4475 25.723 28.0257 26.9596 27.319ZM28.7481 25.9778L28.7578 25.9684C30.4475 24.3334 31.5 22.0387 31.5 19.5C31.5 22.0435 30.446 24.3398 28.7481 25.9778ZM22.2625 28.4969C20.6997 28.4565 19.2371 28.0183 17.9708 27.2792L18.0404 27.319C19.2744 28.0242 20.6917 28.4457 22.201 28.4951C22.2214 28.4958 22.2419 28.4964 22.2625 28.4969ZM16.2422 25.9684L16.2536 25.9794C14.5547 24.3413 13.5 22.0443 13.5 19.5C13.5 22.0387 14.5525 24.3334 16.2422 25.9684Z" fill="black" stroke="#B4A9CE" stroke-width="2"/>
</svg>
