<svg width="25" height="25" viewBox="0 0 25 25" fill="none" xmlns="http://www.w3.org/2000/svg">
<path d="M12.5 16.5C13.9319 16.5 15.2465 17.001 16.2786 17.8389C15.2467 17.0018 13.9309 16.5 12.5 16.5ZM12.5 16.5C11.0662 16.5 9.75001 17.0023 8.71732 17.8422C9.74984 17.0031 11.0672 16.5 12.5 16.5ZM16.9596 20.319L17.0286 20.2796C15.7696 21.0142 14.3166 21.4516 12.764 21.4962C12.7725 21.496 12.781 21.4957 12.7896 21.4954C14.3024 21.4475 15.723 21.0257 16.9596 20.319ZM18.7481 18.9778L18.7578 18.9684C20.4475 17.3334 21.5 15.0387 21.5 12.5C21.5 15.0435 20.446 17.3398 18.7481 18.9778ZM12.2625 21.4969C10.6997 21.4565 9.23711 21.0183 7.97083 20.2792L8.0404 20.319C9.27443 21.0242 10.6917 21.4457 12.201 21.4951C12.2214 21.4958 12.2419 21.4964 12.2625 21.4969ZM6.24221 18.9684L6.25357 18.9794C4.55471 17.3413 3.5 15.0443 3.5 12.5C3.5 15.0387 4.55245 17.3334 6.24221 18.9684Z" fill="black" stroke="#B4A9CE" stroke-width="2"/>
</svg>
