<svg width="52" height="53" viewBox="0 0 52 53" fill="none" xmlns="http://www.w3.org/2000/svg">
<rect x="1" y="1.0415" width="50" height="50" rx="4" fill="white"/>
<rect x="1" y="1.0415" width="50" height="50" rx="4" stroke="#F2EFF9" stroke-width="2"/>
<path d="M35.333 20.7082L36.333 20.7082C36.333 20.443 36.2277 20.1886 36.0401 20.0011L35.333 20.7082ZM28.6663 14.0415L29.3734 13.3344C29.1859 13.1469 28.9316 13.0415 28.6663 13.0415L28.6663 14.0415ZM28.6663 20.7082L27.6663 20.7082L27.6663 21.7082L28.6663 21.7082L28.6663 20.7082ZM15.6663 15.0415L15.6663 37.0415L17.6663 37.0415L17.6663 15.0415L15.6663 15.0415ZM28.6663 13.0415L17.6663 13.0415L17.6663 15.0415L28.6663 15.0415L28.6663 13.0415ZM36.0401 20.0011L29.3734 13.3344L27.9592 14.7486L34.6259 21.4153L36.0401 20.0011ZM27.6663 14.0415L27.6663 20.7082L29.6663 20.7082L29.6663 14.0415L27.6663 14.0415ZM28.6663 21.7082L35.333 21.7082L35.333 19.7082L28.6663 19.7082L28.6663 21.7082ZM36.333 24.0415L36.333 20.7082L34.333 20.7082L34.333 24.0415L36.333 24.0415ZM17.6663 39.0415L23.333 39.0415L23.333 37.0415L17.6663 37.0415L17.6663 39.0415ZM15.6663 37.0415C15.6663 38.1461 16.5618 39.0415 17.6663 39.0415L17.6663 37.0415L15.6663 37.0415ZM17.6663 15.0415L17.6663 15.0415L17.6663 13.0415C16.5618 13.0415 15.6663 13.9369 15.6663 15.0415L17.6663 15.0415Z" fill="#62557F"/>
<path d="M33.1403 35.9291L38.6266 41.4153L40.0408 40.0011L34.5545 34.5148L33.1403 35.9291ZM34.4225 31.4193C34.4225 33.8371 32.4626 35.7971 30.0448 35.7971V37.7971C33.5671 37.7971 36.4225 34.9416 36.4225 31.4193H34.4225ZM30.0448 35.7971C27.627 35.7971 25.667 33.8371 25.667 31.4193H23.667C23.667 34.9416 26.5224 37.7971 30.0448 37.7971V35.7971ZM25.667 31.4193C25.667 29.0015 27.627 27.0415 30.0448 27.0415V25.0415C26.5224 25.0415 23.667 27.8969 23.667 31.4193H25.667ZM30.0448 27.0415C32.4626 27.0415 34.4225 29.0015 34.4225 31.4193H36.4225C36.4225 27.8969 33.5671 25.0415 30.0448 25.0415V27.0415Z" fill="#62557F"/>
</svg>
