<svg width="64" height="20" viewBox="0 0 64 20" fill="none" xmlns="http://www.w3.org/2000/svg">
<g clip-path="url(#clip0_425_6671)">
<path d="M18.0952 0H1.90476C0.852791 0 0 1.19391 0 2.66667V17.3333C0 18.8061 0.852791 20 1.90476 20H18.0952C19.1472 20 20 18.8061 20 17.3333V2.66667C20 1.19391 19.1472 0 18.0952 0Z" fill="white"/>
<path fill-rule="evenodd" clip-rule="evenodd" d="M0 0H6.66667V20H0V0Z" fill="#009342"/>
<path fill-rule="evenodd" clip-rule="evenodd" d="M13.333 0H19.9997V20H13.333V0Z" fill="#D02832"/>
<path d="M18.0956 0.666748H1.90513C1.11616 0.666748 0.476562 1.56218 0.476562 2.66675V17.3334C0.476562 18.438 1.11616 19.3334 1.90513 19.3334H18.0956C18.8846 19.3334 19.5242 18.438 19.5242 17.3334V2.66675C19.5242 1.56218 18.8846 0.666748 18.0956 0.666748Z" stroke="black" stroke-opacity="0.1"/>
</g>
<rect x="0.5" y="0.5" width="19" height="19" rx="9.5" stroke="white"/>
<g clip-path="url(#clip1_425_6671)">
<path d="M40.0952 0H23.9048C22.8528 0 22 1.19391 22 2.66667V17.3333C22 18.8061 22.8528 20 23.9048 20H40.0952C41.1472 20 42 18.8061 42 17.3333V2.66667C42 1.19391 41.1472 0 40.0952 0Z" fill="#22438B"/>
<path fill-rule="evenodd" clip-rule="evenodd" d="M24.8573 1.33325L22.9277 1.36792L22.9525 3.99992L39.1258 18.7039L41.0658 18.6546L41.0296 16.0386L24.8573 1.33325Z" fill="white"/>
<path fill-rule="evenodd" clip-rule="evenodd" d="M23.9045 1.33325L22.9521 2.66659L40.095 18.6666L41.0474 17.3333L23.9045 1.33325Z" fill="#C7152A"/>
<path fill-rule="evenodd" clip-rule="evenodd" d="M39.1433 1.33325H41.048V3.99992C41.048 3.99992 29.8576 13.8613 24.8747 18.7039C24.8147 18.7626 22.9718 18.7079 22.9718 18.7079L22.8242 16.1733L39.1433 1.33325Z" fill="white"/>
<path fill-rule="evenodd" clip-rule="evenodd" d="M40.136 1.2959L41.0474 2.66657L23.9045 18.6666L22.9521 17.3332L40.136 1.2959Z" fill="#C7152A"/>
<path fill-rule="evenodd" clip-rule="evenodd" d="M29.6188 1.33325H34.3807V6.66658H41.0474V13.3333H34.3807V18.6666H29.6188V13.3333H22.9521V6.66658H29.6188V1.33325Z" fill="white"/>
<path fill-rule="evenodd" clip-rule="evenodd" d="M30.5712 1.33325H33.4283V7.99992H41.0474V11.9999H33.4283V18.6666H30.5712V11.9999H22.9521V7.99992H30.5712V1.33325Z" fill="#C7152A"/>
<path d="M40.0956 0.666748H23.9051C23.1162 0.666748 22.4766 1.56218 22.4766 2.66675V17.3334C22.4766 18.438 23.1162 19.3334 23.9051 19.3334H40.0956C40.8846 19.3334 41.5242 18.438 41.5242 17.3334V2.66675C41.5242 1.56218 40.8846 0.666748 40.0956 0.666748Z" stroke="black" stroke-opacity="0.1"/>
</g>
<rect x="22.5" y="0.5" width="19" height="19" rx="9.5" stroke="white"/>
<g clip-path="url(#clip2_425_6671)">
<path d="M62.0952 0H45.9048C44.8528 0 44 1.19391 44 2.66667V17.3333C44 18.8061 44.8528 20 45.9048 20H62.0952C63.1472 20 64 18.8061 64 17.3333V2.66667C64 1.19391 63.1472 0 62.0952 0Z" fill="#E00000"/>
<path fill-rule="evenodd" clip-rule="evenodd" d="M44 13.3333H64V19.9999H44V13.3333Z" fill="#FFCF00"/>
<path fill-rule="evenodd" clip-rule="evenodd" d="M44 0H64V6.66667H44V0Z" fill="#41227C"/>
<path d="M62.0956 0.666748H45.9051C45.1162 0.666748 44.4766 1.56218 44.4766 2.66675V17.3334C44.4766 18.438 45.1162 19.3334 45.9051 19.3334H62.0956C62.8846 19.3334 63.5242 18.438 63.5242 17.3334V2.66675C63.5242 1.56218 62.8846 0.666748 62.0956 0.666748Z" stroke="black" stroke-opacity="0.1"/>
</g>
<rect x="44.5" y="0.5" width="19" height="19" rx="9.5" stroke="white"/>
<defs>
<clipPath id="clip0_425_6671">
<rect width="20" height="20" rx="10" fill="white"/>
</clipPath>
<clipPath id="clip1_425_6671">
<rect x="22" width="20" height="20" rx="10" fill="white"/>
</clipPath>
<clipPath id="clip2_425_6671">
<rect x="44" width="20" height="20" rx="10" fill="white"/>
</clipPath>
</defs>
</svg>
