<svg width="25" height="25" viewBox="0 0 25 25" fill="none" xmlns="http://www.w3.org/2000/svg">
<path d="M4.5 4.5C4.5 3.39543 5.39543 2.5 6.5 2.5H18.5C19.6046 2.5 20.5 3.39543 20.5 4.5V17.5C20.5 18.6046 19.6046 19.5 18.5 19.5H15L12.5 22.5L10 19.5H6.5C5.39543 19.5 4.5 18.6046 4.5 17.5V4.5Z" stroke="#B4A9CE" stroke-width="2" stroke-linejoin="round"/>
<path d="M13.7222 8.69911C13.7222 9.35153 13.1849 9.89822 12.5 9.89822V11.8982C14.2697 11.8982 15.7222 10.4758 15.7222 8.69911H13.7222ZM12.5 9.89822C11.8151 9.89822 11.2778 9.35153 11.2778 8.69911H9.27778C9.27778 10.4758 10.7303 11.8982 12.5 11.8982V9.89822ZM11.2778 8.69911C11.2778 8.04669 11.8151 7.5 12.5 7.5V5.5C10.7303 5.5 9.27778 6.92246 9.27778 8.69911H11.2778ZM12.5 7.5C13.1849 7.5 13.7222 8.04669 13.7222 8.69911H15.7222C15.7222 6.92246 14.2697 5.5 12.5 5.5V7.5ZM9.458 16.2868C9.87707 14.8868 11.1041 13.9212 12.5 13.9212V11.9212C10.142 11.9212 8.19125 13.5444 7.542 15.7132L9.458 16.2868ZM12.5 13.9212C13.8959 13.9212 15.1229 14.8868 15.542 16.2868L17.458 15.7132C16.8088 13.5444 14.858 11.9212 12.5 11.9212V13.9212Z" fill="#B4A9CE"/>
</svg>
