<svg width="33" height="32" viewBox="0 0 33 32" fill="none" xmlns="http://www.w3.org/2000/svg">
<path d="M9.90234 20.0649C11.5912 18.3771 13.9237 17.3333 16.5 17.3333C18.9895 17.3333 21.2512 18.3079 22.9246 19.8964" stroke="#8652F9" stroke-width="2"/>
<path d="M26.5663 16C23.9396 13.5202 20.3973 12 16.4998 12C12.4505 12 8.7844 13.641 6.13037 16.2943M26.5663 16C26.6687 16.0967 26.7697 16.1948 26.8693 16.2943L26.5663 16Z" stroke="#8652F9" stroke-width="2"/>
<path d="M2.35498 12.5273C5.97449 8.90634 10.9756 6.66663 16.4999 6.66663C21.8478 6.66663 26.7055 8.76565 30.294 12.1848" stroke="#8652F9" stroke-width="2"/>
<path fill-rule="evenodd" clip-rule="evenodd" d="M20.1677 22.7948C19.2118 21.889 17.9207 21.3333 16.4998 21.3333C15.027 21.3333 13.6936 21.9302 12.7285 22.8953L16.4998 26.6666L20.1677 22.7948Z" fill="#8652F9"/>
</svg>
