<svg width="151" height="121" viewBox="0 0 151 121" fill="none" xmlns="http://www.w3.org/2000/svg">
<path fill-rule="evenodd" clip-rule="evenodd" d="M48.7192 104.093L48.3164 105.575L67.575 104.834L67.0674 103.288L48.7192 104.093Z" fill="white"/>
<path fill-rule="evenodd" clip-rule="evenodd" d="M86.8831 104.093L87.286 105.575L68.0273 104.834L68.535 103.288L86.8831 104.093Z" fill="white"/>
<path fill-rule="evenodd" clip-rule="evenodd" d="M77.9714 91.9151L79.4369 60.8008L68.0156 61.903L69.1272 91.9151H77.9714Z" fill="#F3C3A3"/>
<path fill-rule="evenodd" clip-rule="evenodd" d="M77.7152 94.6859L77.9728 91.9153H69.129L68.8389 95.9746L74.429 97.0057L77.7152 94.6859Z" fill="white"/>
<path fill-rule="evenodd" clip-rule="evenodd" d="M86.8328 104.094L68.4844 103.288L68.8389 95.9747C68.8389 95.9747 74.4291 96.5546 75.0087 96.0391C75.5887 95.5239 75.3633 94.5894 75.9432 94.4606C76.5232 94.3318 77.7153 94.686 77.7153 94.686C77.7153 94.686 77.2319 96.8123 79.487 99.0033C81.7424 101.194 84.8354 102.161 85.6407 102.676C86.4461 103.192 86.8328 104.094 86.8328 104.094Z" fill="#38305E"/>
<path fill-rule="evenodd" clip-rule="evenodd" d="M80.4613 102.271C80.6518 102.431 80.9365 102.407 81.0969 102.216L82.2589 100.836C82.4196 100.646 82.395 100.361 82.2045 100.201C82.014 100.04 81.7294 100.065 81.569 100.255L80.4069 101.635C80.2462 101.826 80.2708 102.11 80.4613 102.271Z" fill="white"/>
<path fill-rule="evenodd" clip-rule="evenodd" d="M78.9075 100.962C79.098 101.122 79.3826 101.098 79.543 100.908L80.7051 99.5275C80.8658 99.337 80.8412 99.0523 80.6507 98.8919C80.4602 98.7315 80.1755 98.7558 80.0151 98.9463L78.8531 100.326C78.6927 100.517 78.717 100.802 78.9075 100.962Z" fill="white"/>
<path fill-rule="evenodd" clip-rule="evenodd" d="M77.1 99.4415C77.2905 99.6019 77.5751 99.5776 77.7355 99.3871L78.8976 98.007C79.0583 97.8165 79.0337 97.5318 78.8432 97.3714C78.6527 97.211 78.3681 97.2353 78.2076 97.4258L77.0456 98.806C76.8849 98.9964 76.9095 99.2811 77.1 99.4415Z" fill="white"/>
<path fill-rule="evenodd" clip-rule="evenodd" d="M77.973 103.791C77.973 103.791 76.7432 99.586 74.7351 98.8973C72.727 98.2082 68.7367 98.0852 68.7367 98.0852L68.6865 99.1202C68.6865 99.1202 74.4614 99.3618 75.2024 100.08C75.9433 100.798 76.9525 103.738 76.9525 103.738L77.973 103.791Z" fill="white"/>
<path fill-rule="evenodd" clip-rule="evenodd" d="M57.5773 91.9152L55.1895 62.3448L67.533 61.9031L66.4214 91.9152H57.5773Z" fill="#F3C3A3"/>
<path fill-rule="evenodd" clip-rule="evenodd" d="M18.2077 26.2439L16.1465 28.8322C16.1465 28.8322 16.1723 31.7317 17.3191 34.1803C18.4663 36.6289 20.9149 38.7874 20.9149 38.7874L23.6321 38.1868L18.2077 26.2439Z" fill="#D30172"/>
<path fill-rule="evenodd" clip-rule="evenodd" d="M20.9121 38.7869L22.1905 35.0183L23.6293 38.1863L20.9121 38.7869Z" fill="#1E1D1D"/>
<path fill-rule="evenodd" clip-rule="evenodd" d="M19.2888 15.6611L19.2955 15.6778C19.2152 15.6985 19.136 15.7237 19.0591 15.7553C16.4571 16.8201 16.8146 23.7109 19.8578 31.1463C22.9009 38.5814 27.4773 43.7457 30.0793 42.6806C30.1562 42.649 30.2303 42.6116 30.3023 42.57L30.309 42.5867L36.6152 40.0056L25.595 13.0801L19.2888 15.6611Z" fill="#38305E"/>
<path fill-rule="evenodd" clip-rule="evenodd" d="M35.8151 24.6136C38.8582 32.0488 39.2158 38.9398 36.6138 40.0046C34.0115 41.0697 29.435 35.9058 26.3919 28.4703C23.3488 21.0352 22.9912 14.1442 25.5935 13.0794C28.1956 12.0142 32.772 17.1785 35.8151 24.6136Z" fill="#D30172"/>
<path fill-rule="evenodd" clip-rule="evenodd" d="M114.346 12.397L114.339 12.4137C114.42 12.4343 114.499 12.4596 114.576 12.4912C117.178 13.556 116.82 20.4467 113.777 27.8821C110.734 35.3173 106.158 40.4815 103.555 39.4164C103.479 39.3848 103.404 39.3475 103.332 39.3058L103.326 39.3225L97.0195 36.7415L108.04 9.81592L114.346 12.397Z" fill="#38305E"/>
<path fill-rule="evenodd" clip-rule="evenodd" d="M97.8197 21.35C94.7766 28.7851 94.419 35.6761 97.021 36.7409C99.6233 37.8061 104.2 32.6421 107.243 25.2067C110.286 17.7715 110.644 10.8805 108.041 9.81568C105.439 8.75057 100.863 13.9148 97.8197 21.35Z" fill="#D30172"/>
<path fill-rule="evenodd" clip-rule="evenodd" d="M33.562 24.4187L31.1744 26.1579C31.1744 26.1579 30.8843 26.9636 31.2549 27.4792C31.6253 27.9944 32.4632 27.8656 32.4632 27.8656L34.4062 26.5228L34.2513 26.2227L33.562 24.4187Z" fill="#6881C4"/>
<path fill-rule="evenodd" clip-rule="evenodd" d="M53.4844 46.1338L79.0975 42.8799L78.6142 37.6284L73.2017 17.6693L70.1571 17.4277L59.9118 18.1769L56.8672 18.8775L53.4844 46.1338Z" fill="#38305E"/>
<path fill-rule="evenodd" clip-rule="evenodd" d="M56.8703 18.8772C56.8703 18.8772 52.4726 20.5201 50.7327 22.7916C48.9932 25.0631 46.8666 31.3453 46.8666 31.3453L45.2237 29.3157L38.168 33.1818C38.168 33.1818 44.6677 45.2635 45.8036 46.1819C46.9392 47.1 47.6398 47.0034 47.6398 47.0034L57.4503 34.4383C57.4503 34.4383 57.6435 30.8623 57.4503 26.2713C57.2571 21.68 56.8703 18.8772 56.8703 18.8772Z" fill="#F3C3A3"/>
<path fill-rule="evenodd" clip-rule="evenodd" d="M73.2041 17.6687C73.2041 17.6687 77.1185 18.4902 79.2934 21.4382C81.468 24.3863 86.7355 32.6985 86.7355 32.6985L90.1669 25.6428L97.126 29.3637L91.7133 41.2039H82.9177L78.5683 36.8544L78.6169 37.6276C78.6169 37.6276 76.1038 37.4857 74.7021 32.9415C73.3007 28.3973 73.2041 17.6687 73.2041 17.6687Z" fill="#F3C3A3"/>
<path fill-rule="evenodd" clip-rule="evenodd" d="M100.653 21.8257L102.261 22.6715C102.261 22.6715 102.659 23.1909 102.261 23.9037C101.862 24.6167 100.98 24.6167 100.98 24.6167L99.3311 23.7232L99.4456 23.4206L100.653 21.8257Z" fill="#38305E"/>
<path fill-rule="evenodd" clip-rule="evenodd" d="M65.0253 9.07872C65.0253 9.07872 64.3244 8.18464 64.7838 7.47193C65.2428 6.75892 66.3663 6.90383 66.4872 7.47193C66.6081 8.03973 65.9194 9.07872 65.9194 9.07872C65.9194 9.07872 66.3906 9.19963 66.5838 9.39285C66.777 9.58606 66.9222 9.93664 66.9222 9.93664L66.4993 10.8547L64.4453 10.7943L64.0225 9.93664C64.0225 9.93664 64.1555 9.44115 64.421 9.29624C64.6869 9.15133 65.0253 9.07872 65.0253 9.07872Z" fill="#1E1D1D"/>
<path fill-rule="evenodd" clip-rule="evenodd" d="M62.9111 17.6695L64.0227 9.93726C64.0227 9.93726 64.651 10.6378 65.4968 10.6138C66.3422 10.5895 66.9222 9.93726 66.9222 9.93726L68.5171 17.3554L62.9111 17.6695Z" fill="#F3C3A3"/>
<path fill-rule="evenodd" clip-rule="evenodd" d="M67.416 12.2347C67.416 12.2347 68.2913 11.5317 69.1127 12.3532C69.9345 13.1746 69.161 14.3667 68.8229 14.6246C68.4845 14.8823 68.0364 15.1198 68.0364 15.1198L67.416 12.2347Z" fill="#F3C3A3"/>
<path fill-rule="evenodd" clip-rule="evenodd" d="M63.6899 12.2497C63.6899 12.2497 63.346 11.7241 62.4276 12.0787C61.5095 12.4332 61.7993 13.899 62.17 14.3176C62.5403 14.7366 63.3004 14.9602 63.3004 14.9602L63.6899 12.2497Z" fill="#F3C3A3"/>
<path fill-rule="evenodd" clip-rule="evenodd" d="M67.7344 13.724L68.6278 12.7397L67.8161 14.1041L67.7344 13.724Z" fill="#1E1D1D"/>
<path fill-rule="evenodd" clip-rule="evenodd" d="M63.5248 13.3935L62.584 12.782L63.4735 13.7505L63.5248 13.3935Z" fill="#1E1D1D"/>
<path fill-rule="evenodd" clip-rule="evenodd" d="M64.2764 12.2325C64.2764 12.2325 64.4091 12.1902 64.5783 12.2929C64.7476 12.3956 64.8381 12.6976 64.8381 12.6976L64.2764 12.2325Z" fill="#1E1D1D"/>
<path fill-rule="evenodd" clip-rule="evenodd" d="M65.7979 12.6489C65.7979 12.6489 65.9188 12.4013 66.0698 12.2864C66.2207 12.1716 66.4383 12.2233 66.4383 12.2233L65.7979 12.6489Z" fill="#1E1D1D"/>
<path fill-rule="evenodd" clip-rule="evenodd" d="M62.9086 17.6694L59.9123 18.1767C59.9123 18.1767 59.864 25.6191 61.4106 26.7064C62.9569 27.7937 66.783 27.818 68.6273 26.8513C70.4717 25.8849 70.4234 22.7437 70.3751 21.5598C70.3268 20.3756 70.1575 17.4278 70.1575 17.4278L68.5146 17.3552L62.9086 17.6694Z" fill="#F3C3A3"/>
<path fill-rule="evenodd" clip-rule="evenodd" d="M35.3643 28.3723L38.1671 33.1808L45.2228 29.3147L43.0482 25.9802L35.3643 28.3723Z" fill="#1E1D1D"/>
<path fill-rule="evenodd" clip-rule="evenodd" d="M34.2527 26.2228L35.3643 28.3734L43.0482 25.9813L41.5016 23.4923L44.4739 18.1039C44.4739 18.1039 43.3623 17.4516 42.1541 18.1039C40.9459 18.7564 40.5352 19.8194 40.5352 19.8194L34.4702 19.892C34.4702 19.892 33.9868 19.9163 33.7453 20.4963C33.5035 21.0759 33.5278 25.8121 33.6484 25.9813C33.7693 26.1502 34.2527 26.2228 34.2527 26.2228Z" fill="#F3C3A3"/>
<path fill-rule="evenodd" clip-rule="evenodd" d="M40.5355 21.2456C40.5355 21.2456 40.5838 25.8849 40.2936 26.1024C40.0038 26.3199 34.2529 26.2233 34.2529 26.2233L35.3645 25.9815L35.5577 21.2456L35.8719 25.9815H37.66L37.9258 21.2456L38.1191 25.9815C38.1191 25.9815 39.8106 26.0541 39.9434 25.8609C40.0764 25.6677 40.5355 21.2456 40.5355 21.2456Z" fill="#1E1D1D"/>
<path fill-rule="evenodd" clip-rule="evenodd" d="M99.4459 23.4205L98.5761 25.716L94.0158 23.4205C94.0158 23.4205 93.2116 23.5414 93.0546 23.4809C92.8975 23.4205 92.8039 22.8105 92.8039 22.8105L91.4718 22.1397C91.4718 22.1397 91.6331 21.3264 91.4718 20.827C91.3108 20.3275 88.6689 14.6894 88.6689 14.6894C88.6689 14.6894 90.1026 14.1577 91.0531 14.8182C92.0034 15.4789 93.1955 17.7823 93.1955 17.7823L99.6069 17.6696C99.6069 17.6696 100.493 17.8789 100.574 18.749C100.654 19.6188 100.702 22.3411 100.574 22.7761C100.444 23.2112 99.4459 23.4205 99.4459 23.4205Z" fill="#F3C3A3"/>
<path fill-rule="evenodd" clip-rule="evenodd" d="M92.2441 17.6687L93.1792 22.9988H95.2405L95.4498 18.2809L95.7235 22.9988H97.9306L98.0755 18.2487L98.3976 22.9988L100.486 22.9293C100.486 22.9293 99.4608 23.1781 98.8487 23.323C98.2365 23.4679 92.8794 23.1574 92.8794 23.1574L92.2441 17.6687Z" fill="#1E1D1D"/>
<path fill-rule="evenodd" clip-rule="evenodd" d="M78.5677 36.855L75.668 33.5928L78.616 37.6281L78.5677 36.855Z" fill="#1E1D1D"/>
<path fill-rule="evenodd" clip-rule="evenodd" d="M46.8662 31.3445L49.9592 35.5973L47.1168 30.6296L46.8662 31.3445Z" fill="#1E1D1D"/>
<path fill-rule="evenodd" clip-rule="evenodd" d="M55.1881 62.3439L67.9503 61.8873L79.436 60.8L79.0975 42.8787L61.7322 44.5863L53.4844 46.1329L54.9341 59.181L55.1881 62.3439Z" fill="#1E1D1D"/>
<path fill-rule="evenodd" clip-rule="evenodd" d="M68.0169 47.0063L67.5342 61.9031L67.9525 61.8882V61.2599L68.0169 47.0063Z" fill="#F8F2ED"/>
<path fill-rule="evenodd" clip-rule="evenodd" d="M57.8367 94.6859L57.5791 91.9153H66.4229L66.7131 95.9746L61.1229 97.0057L57.8367 94.6859Z" fill="white"/>
<path fill-rule="evenodd" clip-rule="evenodd" d="M48.7188 104.094L67.0669 103.288L66.7127 95.9747C66.7127 95.9747 61.1225 96.5546 60.5428 96.0391C59.9629 95.5239 60.1883 94.5894 59.6084 94.4606C59.0284 94.3318 57.8363 94.686 57.8363 94.686C57.8363 94.686 58.3197 96.8123 56.0646 99.0033C53.8092 101.194 50.7162 102.161 49.9109 102.676C49.1055 103.192 48.7188 104.094 48.7188 104.094Z" fill="#38305E"/>
<path fill-rule="evenodd" clip-rule="evenodd" d="M40.5386 21.9369C40.5386 21.9369 47.8167 18.9084 52.5207 17.668C57.2244 16.4276 63.1715 15.8552 63.1715 15.8552L62.9109 17.668C62.9109 17.668 56.5801 18.1674 52.6495 19.3273C48.719 20.4872 40.5146 23.9669 40.5146 23.9669L40.5386 21.9369Z" fill="#38305E"/>
<path fill-rule="evenodd" clip-rule="evenodd" d="M68.1826 15.8018C68.1826 15.8018 74.7507 15.9133 80.6465 16.6542C86.5423 17.3952 92.4332 19.2966 92.4332 19.2966L92.6611 21.2656C92.6611 21.2656 82.5474 18.7483 78.327 18.233C74.1064 17.7175 70.1597 17.4274 70.1597 17.4274L68.5165 17.3551L68.1826 15.8018Z" fill="#38305E"/>
<path fill-rule="evenodd" clip-rule="evenodd" d="M63.1716 15.8552L61.0781 17.8457L62.9109 17.6683L63.1716 15.8552Z" fill="#1E1D1D"/>
<path fill-rule="evenodd" clip-rule="evenodd" d="M68.1826 15.8018L69.7007 17.4073L68.5165 17.3551L68.1826 15.8018Z" fill="#1E1D1D"/>
<path fill-rule="evenodd" clip-rule="evenodd" d="M97.1261 29.3643L98.5758 25.7157L91.4718 22.1394L90.167 25.6431L97.1261 29.3643Z" fill="#1E1D1D"/>
<path fill-rule="evenodd" clip-rule="evenodd" d="M63.9128 2.83923C63.7315 2.96713 63.4808 2.92399 63.3529 2.74262L62.3343 1.30049C62.2064 1.11913 62.2495 0.868191 62.4309 0.740292C62.6123 0.612394 62.8629 0.655533 62.9908 0.8369L64.0094 2.27933C64.1373 2.46039 64.0942 2.71133 63.9128 2.83923Z" fill="#1E1D1D"/>
<path fill-rule="evenodd" clip-rule="evenodd" d="M69.7415 4.92966C69.6136 4.7483 69.6568 4.49766 69.8381 4.36976L71.2802 3.35113C71.4616 3.22323 71.7126 3.26637 71.8404 3.44774C71.9683 3.62911 71.9252 3.87974 71.7438 4.00764L70.3014 5.02627C70.1203 5.15417 69.8694 5.11103 69.7415 4.92966Z" fill="#1E1D1D"/>
<path fill-rule="evenodd" clip-rule="evenodd" d="M66.7742 2.99463C66.5819 2.88374 66.5163 2.63797 66.6271 2.44566L67.51 0.916652C67.6209 0.724349 67.8666 0.658425 68.0589 0.769614C68.2509 0.8805 68.3169 1.12627 68.206 1.31827L67.3231 2.84759C67.2123 3.03989 66.9665 3.10551 66.7742 2.99463Z" fill="#1E1D1D"/>
<path fill-rule="evenodd" clip-rule="evenodd" d="M60.4333 5.14945C60.3225 5.34176 60.0767 5.40738 59.8844 5.29649L58.3554 4.41366C58.1631 4.30277 58.0971 4.057 58.2083 3.86469C58.3192 3.67269 58.565 3.60677 58.7573 3.71766L60.2863 4.60049C60.4786 4.71138 60.5442 4.95715 60.4333 5.14945Z" fill="#1E1D1D"/>
<path fill-rule="evenodd" clip-rule="evenodd" d="M55.0893 102.271C54.8988 102.431 54.6141 102.407 54.4537 102.216L53.2917 100.836C53.131 100.646 53.1556 100.361 53.3461 100.201C53.5366 100.04 53.8212 100.065 53.9816 100.255L55.1437 101.635C55.3044 101.826 55.2798 102.11 55.0893 102.271Z" fill="white"/>
<path fill-rule="evenodd" clip-rule="evenodd" d="M56.642 100.962C56.4515 101.122 56.1669 101.098 56.0065 100.908L54.8444 99.5275C54.6837 99.337 54.7083 99.0523 54.8988 98.8919C55.0893 98.7315 55.374 98.7558 55.5344 98.9463L56.6964 100.326C56.8568 100.517 56.8325 100.802 56.642 100.962Z" fill="white"/>
<path fill-rule="evenodd" clip-rule="evenodd" d="M58.4506 99.4415C58.2601 99.6019 57.9755 99.5776 57.8151 99.3871L56.653 98.007C56.4923 97.8165 56.5169 97.5318 56.7074 97.3714C56.8979 97.211 57.1826 97.2353 57.343 97.4258L58.505 98.806C58.6657 98.9964 58.6411 99.2811 58.4506 99.4415Z" fill="white"/>
<path fill-rule="evenodd" clip-rule="evenodd" d="M57.5791 103.791C57.5791 103.791 58.8089 99.586 60.817 98.8973C62.8251 98.2082 66.8155 98.0852 66.8155 98.0852L66.8656 99.1202C66.8656 99.1202 61.0907 99.3618 60.3497 100.08C59.6088 100.798 58.5996 103.738 58.5996 103.738L57.5791 103.791Z" fill="white"/>
<path fill-rule="evenodd" clip-rule="evenodd" d="M64.1777 14.4548L66.9201 14.3582C66.9201 14.3582 67.1015 16.0737 65.7122 16.1995C64.3725 16.3207 64.1777 14.4548 64.1777 14.4548Z" fill="#F8F2ED"/>
<path fill-rule="evenodd" clip-rule="evenodd" d="M111.539 86.6461L110.766 79.9771L118.176 79.3328L118.449 89.0859L111.539 86.6461Z" fill="white"/>
<path fill-rule="evenodd" clip-rule="evenodd" d="M111.539 86.6465L112.054 92.3014L126.64 93.3756C126.64 93.3756 126.683 92.4089 125.416 92.0866C124.148 91.7642 122.838 91.6998 121.979 90.6687C121.12 89.6377 119.777 86.5799 119.777 86.5799C119.777 86.5799 119.259 86.065 118.721 86.5799C118.184 87.0952 118.356 87.6323 117.98 87.7183C117.604 87.8042 111.539 86.6465 111.539 86.6465Z" fill="#38305E"/>
<path fill-rule="evenodd" clip-rule="evenodd" d="M126.638 94.2061L111.78 93.9196L112.052 92.3013L126.638 93.3755V94.2061Z" fill="white"/>
<path fill-rule="evenodd" clip-rule="evenodd" d="M119.093 89.2584C119.169 89.4662 119.399 89.5731 119.607 89.4969L121.114 88.9452C121.321 88.8689 121.428 88.6387 121.352 88.4306C121.276 88.2228 121.045 88.1158 120.838 88.1921L119.331 88.7441C119.124 88.82 119.017 89.0506 119.093 89.2584Z" fill="white"/>
<path fill-rule="evenodd" clip-rule="evenodd" d="M120.247 91.1918C120.324 91.3996 120.554 91.5065 120.762 91.4302L122.268 90.8785C122.476 90.8023 122.583 90.572 122.506 90.3639C122.43 90.1561 122.2 90.0492 121.992 90.1254L120.486 90.6774C120.278 90.7534 120.171 90.984 120.247 91.1918Z" fill="white"/>
<path fill-rule="evenodd" clip-rule="evenodd" d="M121.643 92.2445C121.719 92.4526 121.949 92.5592 122.157 92.483L123.663 91.9313C123.871 91.855 123.978 91.6248 123.902 91.4167C123.826 91.2089 123.595 91.1019 123.387 91.1782L121.881 91.7302C121.673 91.8061 121.567 92.0367 121.643 92.2445Z" fill="white"/>
<path fill-rule="evenodd" clip-rule="evenodd" d="M118.873 92.8035C118.873 92.8035 118.51 89.9922 116.888 89.0899C115.266 88.1876 111.592 87.2744 111.592 87.2744L111.662 88.1156C111.662 88.1156 115.685 89.0039 116.619 89.7021C117.554 90.4002 118.058 92.7437 118.058 92.7437L118.873 92.8035Z" fill="white"/>
<path fill-rule="evenodd" clip-rule="evenodd" d="M149.388 19.4432L147.633 17.6997L147.2 18.1354C145.38 17.5806 143.322 18.0242 141.887 19.4681C140.453 20.9121 140.023 22.9733 140.59 24.7897L140.157 25.2254L141.912 26.9689C143.99 29.0332 147.348 29.0222 149.413 26.944C151.477 24.8657 151.466 21.5075 149.388 19.4432Z" fill="#1E1D1D"/>
<path fill-rule="evenodd" clip-rule="evenodd" d="M147.659 25.2007C145.595 27.2787 142.237 27.2899 140.159 25.2256C138.08 23.161 138.07 19.8029 140.134 17.7249C142.198 15.6466 145.557 15.6357 147.635 17.7C149.713 19.7643 149.724 23.1225 147.659 25.2007Z" fill="#38305E"/>
<path fill-rule="evenodd" clip-rule="evenodd" d="M108.089 30.6834C108.089 30.6834 107.638 18.2149 108.927 15.9921C110.215 13.7689 112.065 13.1175 113.838 13.1248C115.611 13.1318 116.595 14.0107 117.014 14.3327C117.432 14.655 117.863 15.5652 117.863 15.5652L118.705 30.9279L108.089 30.6834Z" fill="#38305E"/>
<path fill-rule="evenodd" clip-rule="evenodd" d="M112.904 9.24542C112.904 9.24542 112.9 9.08016 112.946 8.93494C112.991 8.79003 113.124 8.63297 113.124 8.63297C113.124 8.63297 111.989 8.71165 111.723 7.90598C111.458 7.10061 112.497 6.39185 113.06 6.9314C113.624 7.47124 113.592 7.93848 113.592 7.93848C113.592 7.93848 114.148 7.68056 114.582 7.87378C115.017 8.06729 115.114 8.7478 115.114 8.7478L114.456 10.4232L112.915 9.65403L112.904 9.24542Z" fill="#1E1D1D"/>
<path fill-rule="evenodd" clip-rule="evenodd" d="M112.348 13.6651L112.904 10.9227C112.904 10.9227 111.901 10.5117 111.913 9.83509C111.925 9.15854 112.699 9.19499 112.952 9.25514C113.206 9.3156 113.532 9.67803 113.532 9.67803L113.762 9.17069C113.762 9.17069 114.16 9.3156 114.595 9.17069C115.03 9.02578 115.115 8.7478 115.115 8.7478L115.188 10.1975C115.188 10.1975 115.755 10.2218 115.767 10.4272C115.779 10.6326 115.236 10.9828 115.236 10.9828L115.586 13.8704L112.348 13.6651Z" fill="#E7BA8A"/>
<path fill-rule="evenodd" clip-rule="evenodd" d="M137.684 32.1499C137.684 32.1499 133.286 38.0344 130.58 38.7651C127.874 39.4957 124.974 38.4324 123.379 36.6926C121.784 34.9527 116.088 27.5589 116.088 27.5589C116.088 27.5589 113.086 27.4784 111.539 24.925C109.993 22.3719 109.13 16.7981 111.914 14.704C114.696 12.6096 116.79 14.5752 117.693 15.3806C118.595 16.1859 127.133 28.8154 127.841 29.4276C128.55 30.0397 129.323 30.0075 129.903 29.5242C130.483 29.0408 132.094 27.2688 132.094 27.2688L137.684 32.1499Z" fill="#E7BA8A"/>
<path fill-rule="evenodd" clip-rule="evenodd" d="M112.343 22.7576L116.086 27.5582L115.627 27.5105L112.343 22.7576Z" fill="#1E1D1D"/>
<path fill-rule="evenodd" clip-rule="evenodd" d="M132.094 27.2694L135.992 22.9683L141.421 27.6401L137.684 32.1505L132.094 27.2694Z" fill="#1E1D1D"/>
<path fill-rule="evenodd" clip-rule="evenodd" d="M121.325 20.3171L120.169 21.3774L121.418 22.9143L122.57 22.0922L121.325 20.3171Z" fill="#1E1D1D"/>
<path fill-rule="evenodd" clip-rule="evenodd" d="M116.43 24.3015L114.757 25.8536L116.087 27.5591L117.864 26.0648L116.43 24.3015Z" fill="#1E1D1D"/>
<path fill-rule="evenodd" clip-rule="evenodd" d="M135.991 22.9681L138.142 20.7449L143.288 21.4457C143.288 21.4457 143.349 21.7842 143.349 22.0618C143.349 22.3398 143.277 22.8353 143.277 22.8353C143.277 22.8353 144.267 21.8929 144.944 21.7477C145.62 21.6028 146.297 21.9291 146.297 21.9291L141.42 27.6396L135.991 22.9681Z" fill="#E7BA8A"/>
<path fill-rule="evenodd" clip-rule="evenodd" d="M108.253 35.0013L108.092 30.6841L118.708 30.9289L121.641 34.6228V35.5813L108.253 35.0013Z" fill="#E7BA8A"/>
<path fill-rule="evenodd" clip-rule="evenodd" d="M121.654 76.4978L128.227 66.7681L120.044 58.3271L118.175 79.3328L110.765 79.9772L107.677 45.6742L116.706 42.0891L125.199 44.5377L127.341 46.2615C127.341 46.2615 139.826 62.322 139.052 66.5102C138.279 70.6986 129.58 81.4594 129.58 81.4594L121.654 76.4978Z" fill="#E7BA8A"/>
<path fill-rule="evenodd" clip-rule="evenodd" d="M108.784 46.9858C108.784 46.9858 112.698 44.0378 118.208 44.1347C123.717 44.2313 127.342 46.261 127.342 46.261L121.929 38.2386L121.64 35.5807L108.252 35.0007C108.252 35.0007 105.933 37.2722 106.078 40.9934C106.223 44.7143 108.784 46.9858 108.784 46.9858Z" fill="#1E1D1D"/>
<path fill-rule="evenodd" clip-rule="evenodd" d="M108.784 46.9861L120.044 58.3268L119.895 60.0102L108.784 46.9861Z" fill="#1E1D1D"/>
<path fill-rule="evenodd" clip-rule="evenodd" d="M112.723 9.90356C112.723 9.90356 112.924 9.91146 113.133 10.0889C113.343 10.266 113.399 10.4231 113.399 10.4231L112.723 9.90356Z" fill="#1E1D1D"/>
<path fill-rule="evenodd" clip-rule="evenodd" d="M114.455 9.96467C114.455 10.0898 114.406 10.1913 114.346 10.1913C114.286 10.1913 114.237 10.0898 114.237 9.96467C114.237 9.83951 114.286 9.73804 114.346 9.73804C114.406 9.73804 114.455 9.83951 114.455 9.96467Z" fill="#1E1D1D"/>
<path fill-rule="evenodd" clip-rule="evenodd" d="M143.756 13.5428L142.001 11.7993L141.569 12.235C139.748 11.6802 137.69 12.1238 136.256 13.5677C134.821 15.0117 134.391 17.0729 134.958 18.8893L134.525 19.325L136.28 21.0685C138.358 23.1328 141.717 23.1218 143.781 21.0436C145.845 18.9653 145.834 15.6071 143.756 13.5428Z" fill="#1E1D1D"/>
<path fill-rule="evenodd" clip-rule="evenodd" d="M142.027 19.3003C139.962 21.3786 136.604 21.3896 134.526 19.3253C132.448 17.2606 132.437 13.9025 134.501 11.8245C136.566 9.74622 139.924 9.73528 142.002 11.7996C144.08 13.8639 144.091 17.2221 142.027 19.3003Z" fill="#38305E"/>
<path fill-rule="evenodd" clip-rule="evenodd" d="M140.471 15.3734C140.471 16.4777 139.576 17.373 138.471 17.373C137.367 17.373 136.472 16.4777 136.472 15.3734C136.472 14.2691 137.367 13.3738 138.471 13.3738C139.576 13.3738 140.471 14.2691 140.471 15.3734Z" fill="#D30172"/>
<path fill-rule="evenodd" clip-rule="evenodd" d="M137.144 16.1465C137.144 15.0422 138.04 14.1469 139.144 14.1469C139.558 14.1469 139.943 14.273 140.262 14.489C139.936 13.8289 139.258 13.3738 138.471 13.3738C137.367 13.3738 136.472 14.2691 136.472 15.3734C136.472 16.0633 136.821 16.6715 137.352 17.0309C137.221 16.7639 137.144 16.4643 137.144 16.1465Z" fill="#1E1D1D"/>
<path fill-rule="evenodd" clip-rule="evenodd" d="M123.72 25.7463L120.039 28.7387L114.597 22.0439L118.278 19.0515L123.72 25.7463Z" fill="#D30172"/>
<path fill-rule="evenodd" clip-rule="evenodd" d="M122.71 26.0754L120.048 28.2396L115.038 22.0774L117.701 19.9128L122.71 26.0754Z" fill="#1E1D1D"/>
<path fill-rule="evenodd" clip-rule="evenodd" d="M122.299 26.0017L120.068 27.8157L115.441 22.1249L117.673 20.3113L122.299 26.0017Z" fill="#F8F2ED"/>
<path fill-rule="evenodd" clip-rule="evenodd" d="M118.063 20.7917L117.094 24.1578L117.579 24.7539L118.732 21.6153L118.063 20.7917Z" fill="#689BEC"/>
<path fill-rule="evenodd" clip-rule="evenodd" d="M120.018 23.197L119.122 26.6539L119.672 27.3299L120.821 24.1847L120.018 23.197Z" fill="#689BEC"/>
<path fill-rule="evenodd" clip-rule="evenodd" d="M129.58 81.4597L127.037 84.9272L119.971 78.7653L121.655 76.498L129.58 81.4597Z" fill="white"/>
<path fill-rule="evenodd" clip-rule="evenodd" d="M129.706 91.8378C129.706 91.8378 126.369 90.732 126.269 88.8335C126.17 86.9354 129.121 81.9237 129.121 81.9237C129.121 81.9237 128.511 81.0341 127.64 81.2839C126.77 81.5336 126.334 82.4924 125.592 82.4113C124.851 82.3298 119.971 78.7654 119.971 78.7654L116.742 83.8643L124.797 91.3636L129.706 91.8378Z" fill="#38305E"/>
<path fill-rule="evenodd" clip-rule="evenodd" d="M114.75 86.2641L116.742 83.8638L124.797 91.363L129.706 91.8372C129.706 91.8372 130.366 92.4719 130.361 93.0631C130.355 93.6542 130.044 94.3086 130.044 94.3086L124.169 93.451L114.75 86.2641Z" fill="white"/>
<path fill-rule="evenodd" clip-rule="evenodd" d="M125.508 84.1179C125.415 84.3764 125.549 84.6607 125.808 84.7537L127.679 85.4251C127.938 85.5178 128.222 85.3835 128.315 85.1249C128.408 84.8667 128.273 84.5821 128.015 84.4894L126.144 83.818C125.885 83.7251 125.6 83.8596 125.508 84.1179Z" fill="white"/>
<path fill-rule="evenodd" clip-rule="evenodd" d="M124.636 86.2111C124.543 86.4694 124.677 86.754 124.936 86.847L126.807 87.5184C127.066 87.611 127.35 87.4768 127.443 87.2182C127.536 86.96 127.401 86.6754 127.143 86.5827L125.272 85.911C125.013 85.8186 124.728 85.9529 124.636 86.2111Z" fill="white"/>
<path fill-rule="evenodd" clip-rule="evenodd" d="M124.528 88.7111C124.436 88.9694 124.57 89.254 124.828 89.3467L126.7 90.0184C126.958 90.111 127.243 89.9767 127.335 89.7182C127.428 89.46 127.294 89.1753 127.035 89.0827L125.164 88.4113C124.906 88.3183 124.621 88.4529 124.528 88.7111Z" fill="white"/>
<path fill-rule="evenodd" clip-rule="evenodd" d="M119.684 79.2156C119.684 79.2156 121.77 81.3057 122.256 83.8704C122.743 86.435 121.738 88.5166 121.738 88.5166L121.074 87.8978C121.074 87.8978 121.994 85.3031 121.208 83.4305C120.423 81.5579 119.21 79.9647 119.21 79.9647L119.684 79.2156Z" fill="white"/>
<path fill-rule="evenodd" clip-rule="evenodd" d="M59.1529 62.9968L54.4368 68.4533L52.7695 75.2675L54.3642 80.511L55.1856 81.3565L92.3489 94.5981L96.2657 86.6323L59.1529 62.9968Z" fill="#E7BA8A"/>
<path fill-rule="evenodd" clip-rule="evenodd" d="M20.1597 70.7033L17.8539 81.6716L15.8965 80.9468L17.0321 69.9041L20.1597 70.7033Z" fill="#E7BA8A"/>
<path fill-rule="evenodd" clip-rule="evenodd" d="M16.8428 78.5314L18.7798 70.3556L17.7639 70.2283L16.8428 78.5314Z" fill="#1E1D1D"/>
<path fill-rule="evenodd" clip-rule="evenodd" d="M4.74504 52.6275C4.74504 52.6275 3.60945 51.9631 3.86312 51.1413C4.11679 50.3198 4.72074 50.4043 5.05917 50.6944C5.3976 50.9845 5.65127 52.1924 5.65127 52.1924L6.98434 52.2106L7.41512 52.8933L6.6298 54.7176L5.74788 54.8424C5.74788 54.8424 4.84165 54.7902 4.70889 54.0167C4.57583 53.2436 4.74504 52.6275 4.74504 52.6275Z" fill="#1E1D1D"/>
<path fill-rule="evenodd" clip-rule="evenodd" d="M20.246 85.5971C20.246 90.5882 16.2 94.6342 11.2089 94.6342C6.21785 94.6342 2.17188 90.5882 2.17188 85.5971C2.17188 80.606 6.21785 76.5601 11.2089 76.5601C16.2 76.5601 20.246 80.606 20.246 85.5971Z" fill="#38305E"/>
<path fill-rule="evenodd" clip-rule="evenodd" d="M13.2547 51.9585C13.2547 51.9585 11.9821 52.8443 10.7739 52.9895C9.5657 53.1345 8.90525 52.9895 8.90525 52.9895C8.90525 52.9895 8.79254 51.5556 7.69704 51.62C6.60185 51.6847 7.05269 53.0539 7.05269 53.0539L5.52246 52.7638C5.52246 52.7638 6.11851 53.3599 6.07021 53.9076C6.0219 54.4554 5.74788 54.8418 5.74788 54.8418C5.74788 54.8418 7.31061 55.2124 7.47163 55.567C7.63264 55.9212 7.68094 56.6461 8.01937 56.4206C8.3575 56.1952 8.47051 55.889 8.76033 55.9051C9.05016 55.9212 11.4344 57.1133 11.4344 57.1133L13.2547 51.9585Z" fill="#E7BA8A"/>
<path fill-rule="evenodd" clip-rule="evenodd" d="M7.61449 52.2156C7.61449 52.2156 7.53004 52.5176 7.65672 52.7411C7.78371 52.9647 8.19444 53.0191 8.19444 53.0191L7.61449 52.2156Z" fill="#1E1D1D"/>
<path fill-rule="evenodd" clip-rule="evenodd" d="M7.07769 54.5485C7.07769 54.5485 6.93673 54.3942 6.88843 54.1189C6.84012 53.8437 6.98291 53.6948 6.98291 53.6948C6.98291 53.6948 6.94281 53.9886 6.97805 54.1217C7.01329 54.2544 7.07769 54.5485 7.07769 54.5485Z" fill="#1E1D1D"/>
<path fill-rule="evenodd" clip-rule="evenodd" d="M9.38948 55.2974C9.38948 55.2974 9.87282 55.2208 9.81631 54.794C9.76011 54.3672 9.30502 54.1879 9.01885 54.3659C8.73297 54.5443 8.89429 55.1686 9.0954 55.2652C9.29682 55.3618 9.38948 55.2974 9.38948 55.2974Z" fill="#F8F2ED"/>
<path fill-rule="evenodd" clip-rule="evenodd" d="M27.6715 70.3867L31.4088 55.6309C31.4088 55.6309 20.2935 50.9594 17.0395 50.8303C13.7856 50.7015 13.2539 51.958 13.2539 51.958L17.7094 70.7278C17.7094 70.7278 19.4963 71.0149 20.6559 70.5559C21.8158 70.0968 22.6133 68.9853 22.6133 68.9853L27.6715 70.3867Z" fill="#D30172"/>
<path fill-rule="evenodd" clip-rule="evenodd" d="M10.5975 86.0456L6.28027 87.2377C6.28027 87.2377 6.39298 88.1235 7.56898 88.2201C8.74498 88.3171 9.84048 87.8659 9.84048 87.8659L6.98903 91.6676L11.6769 92.4086C11.6769 92.4086 15.269 88.1235 15.7846 86.4162C16.3001 84.7085 18.6521 61.8177 18.6521 61.8177C18.6521 61.8177 21.616 63.1064 22.8403 60.6256C24.0646 58.1448 22.9047 55.8393 20.3595 54.3665C17.8142 52.8934 16.3323 51.3106 14.1416 51.6186C11.9507 51.927 11.0809 55.9219 10.9843 59.3691C10.8874 62.8166 10.5975 86.0456 10.5975 86.0456Z" fill="#E7BA8A"/>
<path fill-rule="evenodd" clip-rule="evenodd" d="M12.416 68.4157H17.1601V59.7878H12.416V68.4157Z" fill="#25A9A9"/>
<path fill-rule="evenodd" clip-rule="evenodd" d="M12.7383 68.0351H16.1694V60.0935H12.7383V68.0351Z" fill="#1E1D1D"/>
<path fill-rule="evenodd" clip-rule="evenodd" d="M13.0195 67.7182H15.895V60.3845H13.0195V67.7182Z" fill="#F8F2ED"/>
<path fill-rule="evenodd" clip-rule="evenodd" d="M10.9309 61.8943L12.4159 62.0514V64.102L10.8984 63.8638L10.9309 61.8943Z" fill="#1E1D1D"/>
<path fill-rule="evenodd" clip-rule="evenodd" d="M17.1621 62.3894L18.5705 62.6072L18.3402 64.8155L17.1621 64.6126V62.3894Z" fill="#1E1D1D"/>
<path fill-rule="evenodd" clip-rule="evenodd" d="M8.49023 91.905L11.4832 88.2363L8.87484 91.9657L8.49023 91.905Z" fill="#1E1D1D"/>
<path fill-rule="evenodd" clip-rule="evenodd" d="M10.1172 92.162L13.3034 88.5583L10.4207 92.21L10.1172 92.162Z" fill="#1E1D1D"/>
<path fill-rule="evenodd" clip-rule="evenodd" d="M31.4102 55.6316L37.5639 57.9192L34.213 72.997L27.6729 70.3873L31.4102 55.6316Z" fill="#E7BA8A"/>
<path fill-rule="evenodd" clip-rule="evenodd" d="M55.1868 81.3578L34.2129 72.9973L37.5635 57.9192L40.5437 59.0308C40.5437 59.0308 43.8138 56.0828 48.3565 56.3085C52.8992 56.5339 59.154 62.9981 59.154 62.9981C57.4446 65.5682 50.9479 73.4855 55.1868 81.3578Z" fill="#1E1D1D"/>
<path fill-rule="evenodd" clip-rule="evenodd" d="M18.6501 61.8175C18.6501 61.8175 19.4232 56.8881 19.23 55.9539C19.0368 55.0194 18.5684 54.366 18.5684 54.366C18.5684 54.366 19.3266 54.7296 19.8744 55.9539C20.4221 57.1782 19.8744 62.125 19.8744 62.125C19.8744 62.125 19.5107 62.1116 19.343 62.0751C18.9074 61.9809 18.6501 61.8175 18.6501 61.8175Z" fill="#1E1D1D"/>
<path fill-rule="evenodd" clip-rule="evenodd" d="M11.1749 56.9854C11.1749 56.9854 11.3574 55.749 11.5273 55.1535C11.6971 54.5578 11.8906 54.0024 11.8906 54.0024C11.8906 54.0024 11.3292 55.0922 11.2326 55.4427C11.136 55.793 10.8252 56.8141 10.8252 56.8141L11.1749 56.9854Z" fill="#1E1D1D"/>
<path fill-rule="evenodd" clip-rule="evenodd" d="M15.895 60.9871L13.0195 62.7992V63.9351L15.895 62.1242V60.9871Z" fill="#689BEC"/>
<path fill-rule="evenodd" clip-rule="evenodd" d="M15.892 64.2097L13.0166 66.0219V67.1578L15.892 65.3468V64.2097Z" fill="#689BEC"/>
<path fill-rule="evenodd" clip-rule="evenodd" d="M92.2549 94.4379L98.9065 97.9151L102.031 89.8876L96.2662 86.6333L92.2549 94.4379Z" fill="white"/>
<path fill-rule="evenodd" clip-rule="evenodd" d="M99.6798 104.677C99.6798 104.677 101.924 102.355 101.196 100.767C100.468 99.1798 95.9297 96.3587 95.9297 96.3587C95.9297 96.3587 96.047 95.3747 96.8617 95.2067C97.6768 95.0387 98.4406 95.6332 99.0093 95.2511C99.5783 94.8686 102.031 89.8872 102.031 89.8872L106.832 92.6612L103.473 102.199L99.6798 104.677Z" fill="#38305E"/>
<path fill-rule="evenodd" clip-rule="evenodd" d="M109.475 93.766L106.831 92.6614L103.472 102.199L99.6785 104.678C99.6785 104.678 99.4115 105.476 99.6679 105.955C99.9243 106.433 100.456 106.834 100.456 106.834L104.873 103.631L109.475 93.766Z" fill="white"/>
<path fill-rule="evenodd" clip-rule="evenodd" d="M99.8066 96.6037C99.9922 96.7744 100.004 97.0633 99.8333 97.249L98.5965 98.5933C98.4258 98.7789 98.1369 98.7907 97.9513 98.62C97.7656 98.4493 97.7535 98.1604 97.9242 97.9747L99.1613 96.6304C99.332 96.4451 99.6209 96.433 99.8066 96.6037Z" fill="white"/>
<path fill-rule="evenodd" clip-rule="evenodd" d="M101.407 97.9371C101.593 98.1078 101.605 98.3967 101.434 98.5823L100.197 99.9266C100.026 100.112 99.7374 100.124 99.5518 99.9534C99.3662 99.7826 99.354 99.4937 99.5251 99.3081L100.762 97.9638C100.933 97.7782 101.221 97.7663 101.407 97.9371Z" fill="white"/>
<path fill-rule="evenodd" clip-rule="evenodd" d="M102.561 99.9253C102.747 100.096 102.759 100.385 102.588 100.571L101.351 101.915C101.181 102.101 100.892 102.112 100.706 101.942C100.521 101.771 100.508 101.482 100.679 101.296L101.916 99.9521C102.087 99.7665 102.376 99.7546 102.561 99.9253Z" fill="white"/>
<path fill-rule="evenodd" clip-rule="evenodd" d="M102.455 90.1326C102.455 90.1326 101.649 92.7227 102.346 95.0176C103.044 97.3128 104.749 98.5787 104.749 98.5787L105.026 97.7916C105.026 97.7916 103.171 96.0718 103.012 94.2129C102.853 92.3539 103.161 90.5403 103.161 90.5403L102.455 90.1326Z" fill="white"/>
<path d="M92.0791 39.3745L107.762 56.1031L103.601 61.1926L99.6036 58.8133L92.0791 39.3745Z" fill="#A35824"/>
<path d="M48.0423 44.4091L49.4713 42.3897L49.9726 42.7442C51.6702 41.8845 53.7743 41.9674 55.4358 43.1431C57.0972 44.3188 57.8753 46.2753 57.6295 48.1622L58.1308 48.5167L56.7017 50.536C55.0096 52.9272 51.6997 53.4938 49.3085 51.802C46.9167 50.1101 46.3501 46.8002 48.0423 44.4091Z" fill="#1E1D1D"/>
<path d="M79.2919 66.4615L101.055 64.1417C101.055 64.1417 96.6919 47.5395 94.5143 43.1745C92.3367 38.8096 90.5814 38.0972 90.5814 38.0972L78.9727 43.1745L79.2919 66.4615Z" fill="#38305E"/>
<ellipse cx="53.7995" cy="45.4505" rx="5.30391" ry="5.30391" transform="rotate(-54.7174 53.7995 45.4505)" fill="#38305E"/>
<path d="M62.0073 45.6161L59.3454 43.7568L54.3959 45.3326C54.3959 45.3326 54.3947 45.6762 54.4424 45.9499C54.4901 46.2237 54.6469 46.6991 54.6469 46.6991C54.6469 46.6991 53.5088 45.9411 52.8174 45.9147C52.126 45.8883 51.5156 46.3261 51.5156 46.3261L57.6903 51.2865L62.0073 45.6161Z" fill="#A35824"/>
<path d="M52.5772 37.6267L54.0063 35.6074L54.5075 35.9619C56.2051 35.1025 58.3092 35.1851 59.9707 36.3608C61.6322 37.5365 62.4102 39.4929 62.1644 41.3798L62.6657 41.7344L61.2366 43.7537C59.5445 46.1449 56.2346 46.7115 53.8434 45.0196C51.4519 43.3281 50.8854 40.0179 52.5772 37.6267Z" fill="#1E1D1D"/>
<ellipse cx="58.3337" cy="38.6705" rx="5.30391" ry="5.30391" transform="rotate(-54.7174 58.3337 38.6705)" fill="#38305E"/>
<ellipse cx="58.095" cy="38.5238" rx="1.9996" ry="1.9996" transform="rotate(-9.90409 58.095 38.5238)" fill="#D30172"/>
<path d="M59.5366 39.0543C59.3468 37.9664 58.3108 37.2385 57.2229 37.4287C56.8146 37.5001 56.4571 37.6906 56.1797 37.9582C56.3878 37.2516 56.9778 36.6868 57.7524 36.5514C58.8403 36.3615 59.8763 37.0894 60.0662 38.177C60.185 38.8566 59.9453 39.5158 59.4835 39.9612C59.5676 39.6756 59.5913 39.3676 59.5366 39.0543Z" fill="#1E1D1D"/>
<path d="M82.6583 35.0797C82.6583 35.0797 82.4168 34.4354 82.5295 33.8232C82.6422 33.2111 82.9645 32.8808 82.9645 32.8808C82.9645 32.8808 82.3524 32.0995 82.3363 31.0687C82.3202 30.0376 82.8518 29.7156 83.0612 29.9571C83.2705 30.1986 83.9309 31.8097 83.9309 31.8097C83.9309 31.8097 84.8168 28.7167 85.7513 28.7972C86.6855 28.8777 85.864 31.5356 85.864 31.5356C85.864 31.5356 88.8603 29.9732 89.4886 31.3585C90.1169 32.7438 88.0711 33.0179 87.7649 33.1467C87.4589 33.2755 87.201 33.4204 87.4264 34.0164C87.6518 34.6125 88.1835 35.4018 87.5874 35.9495C86.9914 36.4972 86.4919 36.4811 86.4919 36.4811L82.6583 35.0797Z" fill="#1E1D1D"/>
<path d="M84.7037 38.5757L83.8822 37.126C83.8822 37.126 83.1895 37.4645 83.0607 37.126C82.9319 36.7879 83.4958 36.4817 83.4958 36.4817L82.6582 35.0803C82.6582 35.0803 83.3992 35.1125 83.6811 34.8387C83.963 34.565 83.8342 33.711 83.8342 33.711C83.8342 33.711 84.1079 34.3876 84.5591 34.2749C85.0102 34.1622 84.8492 33.4212 85.5257 33.711C86.2023 34.0012 86.0413 34.7904 85.8964 35.032C85.7515 35.2735 85.5257 35.4348 85.5257 35.4348L87.4749 37.3678L84.7037 38.5757Z" fill="#A35824"/>
<path d="M84.9619 34.9721C84.9619 34.9721 84.9376 34.5531 85.1311 34.3721C85.3243 34.1907 85.5419 34.239 85.5419 34.239L84.9619 34.9721Z" fill="#1E1D1D"/>
<path d="M62.5244 55.1363C62.5244 55.1363 70.3533 61.1287 72.0448 60.9838C73.7364 60.8389 84.1748 52.6233 84.1748 52.6233C84.1748 52.6233 85.7695 54.8948 89.1043 53.2033C92.439 51.5117 93.6469 45.6159 92.7289 41.943C91.8108 38.2701 89.7808 37.1588 87.8477 37.1102C85.9147 37.0619 80.4296 42.0396 77.4576 44.5283C74.4855 47.017 70.8232 50.3038 69.3386 50.3758C67.8539 50.4478 66.8499 49.2402 66.8499 49.2402L62.5244 55.1363Z" fill="#A35824"/>
<path d="M90.6739 46.7034L84.1738 52.6235L84.4846 52.9604L90.6739 46.7034Z" fill="#1E1D1D"/>
<path d="M62.5242 55.1354L57.6914 51.2854L62.0087 45.615L66.8494 49.2396L62.5242 55.1354Z" fill="#38305E"/>
<path d="M92.3411 85.2923L105.438 79.7347L101.056 64.1414L79.293 66.4612L76.0068 66.8798L82.7724 79.4126L88.5716 80.2663L92.3411 85.2923Z" fill="#1E1D1D"/>
<path d="M84.8496 74.322L88.5705 80.2661L87.6746 80.1343L84.8496 74.322Z" fill="#F8F2ED"/>
<path d="M92.3408 85.2915C92.3408 85.2915 102.731 102.238 104.858 104.179C106.984 106.12 108.095 105.782 110.029 105.444C111.962 105.105 117.857 102.206 117.857 102.206L114.555 94.2806C114.555 94.2806 112.01 95.7303 110.56 95.0054C109.11 94.2806 105.438 79.7341 105.438 79.7341L92.3408 85.2915Z" fill="#A35824"/>
<path d="M62.7172 92.6865L71.9717 92.7202C71.9717 92.7202 70.9811 81.1847 71.9717 79.735C72.9624 78.2853 82.7727 79.413 82.7727 79.413L76.0068 66.8801C76.0068 66.8801 67.4531 67.6855 65.52 68.1044C63.5869 68.5234 61.4124 70.6013 61.509 73.1144C61.6056 75.6271 62.7172 92.6865 62.7172 92.6865Z" fill="#A35824"/>
<path d="M107.466 64.1413L103.6 61.1923L107.76 56.1028L110.945 59.7757L107.466 64.1413Z" fill="#38305E"/>
<path d="M117.858 102.206L123.468 99.9992L120.726 91.365L114.556 94.2805L117.858 102.206Z" fill="#38305E"/>
<path d="M127.281 104.447L130.922 103.738L124.93 89.2803L120.726 91.3665L119.267 92.0561C119.267 92.0561 122.223 97.0368 121.869 97.7456C121.514 98.4543 120.226 98.3255 119.936 98.9699C119.646 99.6142 120.9 101.011 120.9 101.011C120.9 101.011 123.77 100.21 125.703 101.096C127.636 101.982 128.055 102.997 128.023 103.351C127.99 103.706 127.281 104.447 127.281 104.447Z" fill="#1E1D1D"/>
<path d="M127.764 87.9502L124.929 89.2793L130.921 103.737L127.28 104.446C127.28 104.446 126.926 104.687 126.894 105.316C126.861 105.944 126.958 106.266 126.958 106.266L133.176 105.412L127.764 87.9502Z" fill="white"/>
<path d="M62.7178 92.6863L63.1367 99.8386L72.0738 100.771L71.9724 92.7197L62.7178 92.6863Z" fill="#38305E"/>
<path d="M54.8027 105.235L72.3173 103.898L72.0724 99.5487C72.0724 99.5487 65.1167 100.096 64.7703 99.3876C64.424 98.6789 64.585 97.68 64.263 97.197C63.941 96.7136 62.9533 96.7288 62.9533 96.7288C62.9533 96.7288 61.5246 100.225 59.5271 101.997C57.5293 103.769 54.8027 105.235 54.8027 105.235Z" fill="#1E1D1D"/>
<path d="M72.3171 106.25V103.898L54.8026 105.235C54.8026 105.235 54.0656 105.525 53.7274 105.799C53.389 106.073 53.1797 106.492 53.1797 106.492L72.3171 106.25Z" fill="white"/>
<path d="M104.52 64.6804C104.52 64.6804 112.494 68.6915 112.687 69.7065C112.88 70.7215 111.962 71.9054 111.503 72.1469C111.044 72.3884 102.901 67.894 102.949 67.3141C102.997 66.7344 104.14 64.4872 104.52 64.6804Z" fill="#38305E"/>
<path d="M109.801 58.4564C109.801 58.4564 115.511 64.173 116.067 64.3905C116.623 64.608 118.362 62.7715 118.217 62.2882C118.073 61.8049 111.887 56.1749 111.597 56.1023C111.307 56.03 109.454 58.0074 109.801 58.4564Z" fill="#38305E"/>
<path d="M107.273 66.123L112 60.6316L114.086 62.6509L109.921 67.6135L107.273 66.123Z" fill="#1E1D1D"/>
<path d="M104.98 68.8413C104.98 68.8413 104.422 69.9243 104.543 70.1419C104.663 70.3594 107.78 72.0023 108.071 72.0023C108.36 72.0023 108.747 70.9639 108.747 70.9639L104.98 68.8413Z" fill="#1E1D1D"/>
<path d="M113.038 57.2989C113.038 57.2989 113.967 56.5622 114.281 56.7071C114.595 56.852 117.205 59.3893 117.253 59.7035C117.301 60.0176 116.654 60.6316 116.654 60.6316L113.038 57.2989Z" fill="#1E1D1D"/>
<path d="M110.303 62.0305C110.089 62.1059 107.419 64.8817 107.274 65.2684C107.129 65.6552 107.161 66.3639 107.918 66.8469C108.676 67.3303 109.948 68.3128 110.576 68.1357C111.205 67.9585 113.395 65.0266 113.395 64.5111C113.396 63.9958 110.85 61.837 110.303 62.0305Z" fill="#A35824"/>
<path d="M110.946 59.7756L111.797 60.8666L108.164 65.0881L107.467 64.1412L110.946 59.7756Z" fill="#A35824"/>
<path d="M112.712 65.7745L109.441 62.8298C109.441 62.8298 110.305 64.2212 111.076 64.8495C111.848 65.4777 112.712 65.7745 112.712 65.7745Z" fill="#1E1D1D"/>
<path d="M107.895 64.4761L111.689 67.1106C111.689 67.1106 110.545 66.6953 109.585 66.0224C108.625 65.3495 107.895 64.4761 107.895 64.4761Z" fill="#1E1D1D"/>
<rect x="82.6172" y="42.7996" width="5.92795" height="9.69743" transform="rotate(47.1559 82.6172 42.7996)" fill="#1E1D1D"/>
<rect x="82.5234" y="43.5024" width="4.96158" height="8.67546" transform="rotate(47.1559 82.5234 43.5024)" fill="#F8F2ED"/>
<path d="M85.3962 51.511L83.8271 49.7629L82.4238 51.0644L84.01 52.7526L84.1743 52.6238L85.3962 51.511Z" fill="#1E1D1D"/>
<path d="M78.5299 46.5898L76.9727 44.9356L78.4619 43.6772L79.9408 45.2813L78.5299 46.5898Z" fill="#1E1D1D"/>
<path d="M85.5413 47.4653L80.6882 45.199L79.7461 46.0727L84.6694 48.2734L85.5413 47.4653Z" fill="#689BEC"/>
<path d="M78.0656 47.6306L83.5488 49.3121L82.7447 50.058L76.875 48.7346L78.0656 47.6306Z" fill="#689BEC"/>
<path d="M60.5091 103.934C60.3186 104.095 60.0339 104.071 59.8735 103.88L58.7115 102.5C58.5511 102.309 58.5754 102.025 58.7659 101.864C58.9564 101.704 59.241 101.728 59.4014 101.919L60.5635 103.299C60.7242 103.489 60.6999 103.774 60.5091 103.934Z" fill="white"/>
<path d="M61.8968 102.472C61.7063 102.632 61.4216 102.608 61.2612 102.418L60.0992 101.037C59.9388 100.847 59.9631 100.562 60.1536 100.402C60.3441 100.242 60.6287 100.266 60.7891 100.456L61.9512 101.836C62.1116 102.027 62.0873 102.312 61.8968 102.472Z" fill="white"/>
<path d="M63.2669 100.876C63.0764 101.036 62.7918 101.012 62.6313 100.821L61.4693 99.4413C61.3089 99.2508 61.3332 98.9662 61.5237 98.8058C61.7142 98.6453 61.9988 98.6696 62.1592 98.8601L63.3213 100.24C63.4817 100.431 63.4574 100.715 63.2669 100.876Z" fill="white"/>
<path d="M122.641 101.366C122.408 101.277 122.291 101.016 122.38 100.784L123.025 99.0981C123.114 98.8654 123.374 98.7487 123.607 98.8377C123.84 98.9267 123.956 99.1874 123.867 99.4201L123.223 101.106C123.134 101.338 122.874 101.455 122.641 101.366Z" fill="white"/>
<path d="M124.889 101.704C124.656 101.615 124.539 101.354 124.629 101.122L125.273 99.4362C125.362 99.2035 125.622 99.0869 125.855 99.1759C126.088 99.2649 126.204 99.5255 126.115 99.7582L125.471 101.444C125.382 101.676 125.122 101.793 124.889 101.704Z" fill="white"/>
<path d="M126.918 102.661C126.685 102.572 126.569 102.311 126.658 102.078L127.302 100.393C127.391 100.16 127.652 100.043 127.884 100.132C128.117 100.221 128.234 100.482 128.145 100.715L127.501 102.4C127.412 102.633 127.151 102.749 126.918 102.661Z" fill="white"/>
<path d="M72.1076 100.177C72.1076 100.177 68.4189 100.741 66.9849 101.965C65.5513 103.189 64.8896 104.465 64.8896 104.465L66.1018 104.372C66.1018 104.372 67.146 102.706 68.7245 102.029C70.3033 101.353 72.1635 101.175 72.1635 101.175L72.1076 100.177Z" fill="white"/>
<path d="M119.648 91.8727C119.648 91.8727 120.562 93.9261 123.026 95.1021C125.491 96.2781 127.839 96.3027 127.839 96.3027L127.433 95.3242C127.433 95.3242 125.128 95.0216 123.465 94.2001C121.802 93.3786 120.481 91.4617 120.481 91.4617L119.648 91.8727Z" fill="white"/>
<path d="M83.8069 35.391C83.8069 35.391 83.7948 35.1373 83.9236 35.0568C84.0524 34.9763 84.2134 35.0811 84.2134 35.0811C84.2134 35.0811 84.0454 35.054 83.9276 35.1816C83.8097 35.3095 83.8069 35.391 83.8069 35.391Z" fill="#1E1D1D"/>
</svg>
