<svg width="101" height="80" viewBox="0 0 101 80" fill="none" xmlns="http://www.w3.org/2000/svg">
<path fill-rule="evenodd" clip-rule="evenodd" d="M32.6465 68.951L32.3779 69.9389L45.217 69.4449L44.8786 68.4141L32.6465 68.951Z" fill="white"/>
<path fill-rule="evenodd" clip-rule="evenodd" d="M58.09 68.951L58.3586 69.9389L45.5195 69.4449L45.858 68.4141L58.09 68.951Z" fill="white"/>
<path fill-rule="evenodd" clip-rule="evenodd" d="M52.1489 60.832L53.1259 40.0891L45.5117 40.8239L46.2528 60.832H52.1489Z" fill="#F3C3A3"/>
<path fill-rule="evenodd" clip-rule="evenodd" d="M51.9781 62.6794L52.1499 60.8323H46.254L46.0605 63.5385L49.7873 64.2259L51.9781 62.6794Z" fill="white"/>
<path fill-rule="evenodd" clip-rule="evenodd" d="M58.0565 68.9514L45.8242 68.4145L46.0606 63.5387C46.0606 63.5387 49.7874 63.9253 50.1738 63.5817C50.5604 63.2382 50.4101 62.6152 50.7968 62.5293C51.1834 62.4434 51.9781 62.6796 51.9781 62.6796C51.9781 62.6796 51.6559 64.0971 53.1593 65.5577C54.6629 67.0182 56.7249 67.6627 57.2618 68.0064C57.7987 68.35 58.0565 68.9514 58.0565 68.9514Z" fill="#38305E"/>
<path fill-rule="evenodd" clip-rule="evenodd" d="M53.8082 67.7359C53.9352 67.8428 54.125 67.8266 54.2319 67.6996L55.0066 66.7795C55.1137 66.6526 55.0973 66.4628 54.9703 66.3559C54.8433 66.2489 54.6536 66.2651 54.5466 66.3921L53.772 67.3122C53.6648 67.4392 53.6812 67.629 53.8082 67.7359Z" fill="white"/>
<path fill-rule="evenodd" clip-rule="evenodd" d="M52.773 66.8636C52.9 66.9705 53.0897 66.9543 53.1967 66.8273L53.9713 65.9072C54.0785 65.7802 54.0621 65.5905 53.9351 65.4835C53.8081 65.3766 53.6183 65.3928 53.5114 65.5198L52.7367 66.4399C52.6298 66.5669 52.646 66.7566 52.773 66.8636Z" fill="white"/>
<path fill-rule="evenodd" clip-rule="evenodd" d="M51.568 65.8499C51.695 65.9568 51.8847 65.9406 51.9917 65.8137L52.7663 64.8936C52.8735 64.7666 52.8571 64.5768 52.7301 64.4699C52.6031 64.3629 52.4133 64.3791 52.3064 64.5061L51.5317 65.4262C51.4246 65.5532 51.441 65.743 51.568 65.8499Z" fill="white"/>
<path fill-rule="evenodd" clip-rule="evenodd" d="M52.149 68.7491C52.149 68.7491 51.3291 65.9461 49.9904 65.4869C48.6517 65.0276 45.9914 64.9456 45.9914 64.9456L45.958 65.6356C45.958 65.6356 49.8079 65.7966 50.3019 66.2754C50.7959 66.7542 51.4687 68.7143 51.4687 68.7143L52.149 68.7491Z" fill="white"/>
<path fill-rule="evenodd" clip-rule="evenodd" d="M38.5528 60.8323L36.9609 41.1187L45.19 40.8242L44.4489 60.8323H38.5528Z" fill="#F3C3A3"/>
<path fill-rule="evenodd" clip-rule="evenodd" d="M12.3058 17.0515L10.9316 18.7771C10.9316 18.7771 10.9489 20.71 11.7134 22.3424C12.4782 23.9748 14.1106 25.4138 14.1106 25.4138L15.922 25.0134L12.3058 17.0515Z" fill="#D30172"/>
<path fill-rule="evenodd" clip-rule="evenodd" d="M14.1094 25.4135L14.9616 22.9011L15.9208 25.0131L14.1094 25.4135Z" fill="#1E1D1D"/>
<path fill-rule="evenodd" clip-rule="evenodd" d="M13.0268 9.99634L13.0313 10.0075C12.9778 10.0213 12.9249 10.0381 12.8737 10.0591C11.139 10.769 11.3774 15.3628 13.4062 20.3198C15.4349 25.2765 18.4858 28.7193 20.2205 28.0093C20.2718 27.9882 20.3212 27.9633 20.3692 27.9355L20.3736 27.9467L24.5778 26.226L17.231 8.27563L13.0268 9.99634Z" fill="#38305E"/>
<path fill-rule="evenodd" clip-rule="evenodd" d="M24.0447 15.9647C26.0734 20.9214 26.3118 25.5154 24.5771 26.2253C22.8423 26.9354 19.7913 23.4927 17.7626 18.5358C15.7338 13.579 15.4954 8.98502 17.2303 8.27515C18.965 7.56508 22.0159 11.0079 24.0447 15.9647Z" fill="#D30172"/>
<path fill-rule="evenodd" clip-rule="evenodd" d="M76.3986 7.82007L76.3942 7.83121C76.4476 7.84498 76.5003 7.86179 76.5517 7.88286C78.2864 8.59273 78.0482 13.1865 76.0193 18.1435C73.9905 23.1002 70.9398 26.5431 69.2049 25.833C69.1537 25.8119 69.1043 25.787 69.0563 25.7593L69.0518 25.7704L64.8477 24.0497L72.1945 6.09937L76.3986 7.82007Z" fill="#38305E"/>
<path fill-rule="evenodd" clip-rule="evenodd" d="M65.3798 13.7889C63.351 18.7456 63.1127 23.3396 64.8473 24.0495C66.5822 24.7596 69.6332 21.317 71.6619 16.36C73.6907 11.4033 73.929 6.80924 72.1942 6.09937C70.4595 5.38929 67.4085 8.83212 65.3798 13.7889Z" fill="#D30172"/>
<path fill-rule="evenodd" clip-rule="evenodd" d="M22.5426 15.8347L20.9509 16.9942C20.9509 16.9942 20.7575 17.5313 21.0046 17.875C21.2515 18.2185 21.8101 18.1326 21.8101 18.1326L23.1055 17.2374L23.0022 17.0373L22.5426 15.8347Z" fill="#6881C4"/>
<path fill-rule="evenodd" clip-rule="evenodd" d="M35.8242 30.3115L52.8996 28.1421L52.5774 24.6412L48.9691 11.3351L46.9393 11.1741L40.1092 11.6735L38.0794 12.1406L35.8242 30.3115Z" fill="#38305E"/>
<path fill-rule="evenodd" clip-rule="evenodd" d="M38.0815 12.1401C38.0815 12.1401 35.1497 13.2354 33.9898 14.7498C32.8301 16.2641 31.4124 20.4522 31.4124 20.4522L30.3171 19.0991L25.6133 21.6765C25.6133 21.6765 29.9464 29.731 30.7037 30.3432C31.4608 30.9553 31.9278 30.8909 31.9278 30.8909L38.4681 22.5142C38.4681 22.5142 38.597 20.1302 38.4681 17.0695C38.3393 14.0087 38.0815 12.1401 38.0815 12.1401Z" fill="#F3C3A3"/>
<path fill-rule="evenodd" clip-rule="evenodd" d="M48.9697 11.3347C48.9697 11.3347 51.5793 11.8824 53.0293 13.8477C54.479 15.8131 57.9907 21.3545 57.9907 21.3545L60.2783 16.6508L64.9177 19.1314L61.3091 27.0248H55.4455L52.5458 24.1252L52.5782 24.6406C52.5782 24.6406 50.9029 24.546 49.9684 21.5166C49.0341 18.4871 48.9697 11.3347 48.9697 11.3347Z" fill="#F3C3A3"/>
<path fill-rule="evenodd" clip-rule="evenodd" d="M67.2689 14.106L68.3409 14.6698C68.3409 14.6698 68.6066 15.0161 68.3409 15.4913C68.075 15.9666 67.487 15.9666 67.487 15.9666L66.3877 15.371L66.464 15.1692L67.2689 14.106Z" fill="#38305E"/>
<path fill-rule="evenodd" clip-rule="evenodd" d="M43.5172 5.60806C43.5172 5.60806 43.0499 5.01201 43.3562 4.53687C43.6622 4.06153 44.4112 4.15814 44.4918 4.53687C44.5724 4.9154 44.1132 5.60806 44.1132 5.60806C44.1132 5.60806 44.4274 5.68867 44.5562 5.81748C44.685 5.94629 44.7818 6.18001 44.7818 6.18001L44.4999 6.79206L43.1306 6.75175L42.8486 6.18001C42.8486 6.18001 42.9373 5.84968 43.1144 5.75307C43.2916 5.65647 43.5172 5.60806 43.5172 5.60806Z" fill="#1E1D1D"/>
<path fill-rule="evenodd" clip-rule="evenodd" d="M42.1084 11.3352L42.8495 6.18042C42.8495 6.18042 43.2683 6.64746 43.8321 6.63146C44.3958 6.61525 44.7824 6.18042 44.7824 6.18042L45.8457 11.1258L42.1084 11.3352Z" fill="#F3C3A3"/>
<path fill-rule="evenodd" clip-rule="evenodd" d="M45.1113 7.71187C45.1113 7.71187 45.6948 7.24321 46.2425 7.79086C46.7903 8.3385 46.2747 9.13323 46.0493 9.30518C45.8236 9.47693 45.5249 9.63531 45.5249 9.63531L45.1113 7.71187Z" fill="#F3C3A3"/>
<path fill-rule="evenodd" clip-rule="evenodd" d="M42.6275 7.72205C42.6275 7.72205 42.3983 7.37167 41.786 7.60802C41.174 7.84438 41.3672 8.82159 41.6143 9.10068C41.8612 9.37997 42.3679 9.52903 42.3679 9.52903L42.6275 7.72205Z" fill="#F3C3A3"/>
<path fill-rule="evenodd" clip-rule="evenodd" d="M45.3242 8.70479L45.9199 8.04858L45.3787 8.95815L45.3242 8.70479Z" fill="#1E1D1D"/>
<path fill-rule="evenodd" clip-rule="evenodd" d="M42.5179 8.4846L41.8906 8.0769L42.4836 8.72257L42.5179 8.4846Z" fill="#1E1D1D"/>
<path fill-rule="evenodd" clip-rule="evenodd" d="M43.0186 7.71032C43.0186 7.71032 43.1071 7.68217 43.2199 7.75063C43.3327 7.81908 43.393 8.0204 43.393 8.0204L43.0186 7.71032Z" fill="#1E1D1D"/>
<path fill-rule="evenodd" clip-rule="evenodd" d="M44.0332 7.988C44.0332 7.988 44.1138 7.82294 44.2145 7.74638C44.3151 7.66982 44.4601 7.70425 44.4601 7.70425L44.0332 7.988Z" fill="#1E1D1D"/>
<path fill-rule="evenodd" clip-rule="evenodd" d="M42.1071 11.3351L40.1095 11.6734C40.1095 11.6734 40.0773 16.635 41.1084 17.3598C42.1393 18.0847 44.6899 18.1009 45.9195 17.4565C47.1491 16.8122 47.1169 14.718 47.0847 13.9288C47.0525 13.1393 46.9397 11.1741 46.9397 11.1741L45.8444 11.1257L42.1071 11.3351Z" fill="#F3C3A3"/>
<path fill-rule="evenodd" clip-rule="evenodd" d="M23.7432 18.4705L25.6117 21.6761L30.3155 19.0987L28.8658 16.8757L23.7432 18.4705Z" fill="#1E1D1D"/>
<path fill-rule="evenodd" clip-rule="evenodd" d="M23.0021 17.0373L23.7432 18.471L28.8658 16.8763L27.8347 15.217L29.8163 11.6247C29.8163 11.6247 29.0752 11.1898 28.2697 11.6247C27.4643 12.0597 27.1904 12.7684 27.1904 12.7684L23.1471 12.8168C23.1471 12.8168 22.8249 12.833 22.6639 13.2196C22.5027 13.606 22.5189 16.7635 22.5993 16.8763C22.6799 16.9889 23.0021 17.0373 23.0021 17.0373Z" fill="#F3C3A3"/>
<path fill-rule="evenodd" clip-rule="evenodd" d="M27.1913 13.7192C27.1913 13.7192 27.2235 16.8121 27.0301 16.9571C26.8368 17.1021 23.0029 17.0377 23.0029 17.0377L23.744 16.8765L23.8728 13.7192L24.0822 16.8765H25.2743L25.4515 13.7192L25.5803 16.8765C25.5803 16.8765 26.708 16.9249 26.7965 16.7961C26.8853 16.6673 27.1913 13.7192 27.1913 13.7192Z" fill="#1E1D1D"/>
<path fill-rule="evenodd" clip-rule="evenodd" d="M66.4649 15.1692L65.885 16.6996L62.8448 15.1692C62.8448 15.1692 62.3087 15.2498 62.204 15.2095C62.0993 15.1692 62.0369 14.7626 62.0369 14.7626L61.1488 14.3154C61.1488 14.3154 61.2564 13.7732 61.1488 13.4402C61.0415 13.1073 59.2803 9.34848 59.2803 9.34848C59.2803 9.34848 60.236 8.99405 60.8697 9.43436C61.5033 9.87486 62.298 11.4105 62.298 11.4105L66.5722 11.3353C66.5722 11.3353 67.163 11.4749 67.2167 12.0549C67.2703 12.6348 67.3025 14.4496 67.2167 14.7397C67.1306 15.0297 66.4649 15.1692 66.4649 15.1692Z" fill="#F3C3A3"/>
<path fill-rule="evenodd" clip-rule="evenodd" d="M61.6641 11.3347L62.2875 14.8881H63.6616L63.8012 11.7428L63.9837 14.8881H65.455L65.5516 11.7213L65.7663 14.8881L67.1583 14.8417C67.1583 14.8417 66.4752 15.0076 66.0671 15.1042C65.659 15.2008 62.0876 14.9938 62.0876 14.9938L61.6641 11.3347Z" fill="#1E1D1D"/>
<path fill-rule="evenodd" clip-rule="evenodd" d="M52.5464 24.1252L50.6133 21.9504L52.5786 24.6407L52.5464 24.1252Z" fill="#1E1D1D"/>
<path fill-rule="evenodd" clip-rule="evenodd" d="M31.4111 20.4519L33.4731 23.2871L31.5782 19.9753L31.4111 20.4519Z" fill="#1E1D1D"/>
<path fill-rule="evenodd" clip-rule="evenodd" d="M36.96 41.1181L45.4682 40.8137L53.1252 40.0889L52.8996 28.1414L41.3227 29.2798L35.8242 30.3109L36.7907 39.0096L36.96 41.1181Z" fill="#1E1D1D"/>
<path fill-rule="evenodd" clip-rule="evenodd" d="M45.5123 30.8931L45.1904 40.8242L45.4693 40.8143V40.3954L45.5123 30.8931Z" fill="#F8F2ED"/>
<path fill-rule="evenodd" clip-rule="evenodd" d="M38.7255 62.6794L38.5537 60.8323H44.4496L44.643 63.5385L40.9162 64.2259L38.7255 62.6794Z" fill="white"/>
<path fill-rule="evenodd" clip-rule="evenodd" d="M32.6465 68.9514L44.8786 68.4145L44.6424 63.5387C44.6424 63.5387 40.9156 63.9253 40.5292 63.5817C40.1426 63.2382 40.2928 62.6152 39.9062 62.5293C39.5196 62.4434 38.7249 62.6796 38.7249 62.6796C38.7249 62.6796 39.0471 64.0971 37.5437 65.5577C36.0401 67.0182 33.9781 67.6627 33.4412 68.0064C32.9043 68.35 32.6465 68.9514 32.6465 68.9514Z" fill="#38305E"/>
<path fill-rule="evenodd" clip-rule="evenodd" d="M27.1928 14.1802C27.1928 14.1802 32.0448 12.1612 35.1808 11.3342C38.3166 10.5073 42.2813 10.1257 42.2813 10.1257L42.1076 11.3342C42.1076 11.3342 37.887 11.6672 35.2667 12.4405C32.6463 13.2137 27.1768 15.5335 27.1768 15.5335L27.1928 14.1802Z" fill="#38305E"/>
<path fill-rule="evenodd" clip-rule="evenodd" d="M45.6221 10.0901C45.6221 10.0901 50.0008 10.1644 53.9313 10.6584C57.8618 11.1524 61.7891 12.42 61.7891 12.42L61.941 13.7326C61.941 13.7326 55.1986 12.0544 52.385 11.7109C49.5712 11.3672 46.9401 11.1738 46.9401 11.1738L45.8447 11.1256L45.6221 10.0901Z" fill="#38305E"/>
<path fill-rule="evenodd" clip-rule="evenodd" d="M42.2824 10.1257L40.8867 11.4527L42.1086 11.3344L42.2824 10.1257Z" fill="#1E1D1D"/>
<path fill-rule="evenodd" clip-rule="evenodd" d="M45.6221 10.0901L46.6341 11.1605L45.8447 11.1256L45.6221 10.0901Z" fill="#1E1D1D"/>
<path fill-rule="evenodd" clip-rule="evenodd" d="M64.9177 19.1318L65.8842 16.6994L61.1482 14.3152L60.2783 16.651L64.9177 19.1318Z" fill="#1E1D1D"/>
<path fill-rule="evenodd" clip-rule="evenodd" d="M42.7762 1.44832C42.6553 1.53358 42.4882 1.50482 42.4029 1.38391L41.7238 0.422497C41.6386 0.301586 41.6673 0.134295 41.7882 0.0490295C41.9092 -0.0362361 42.0762 -0.00747668 42.1615 0.113434L42.8406 1.07505C42.9259 1.19576 42.8971 1.36305 42.7762 1.44832Z" fill="#1E1D1D"/>
<path fill-rule="evenodd" clip-rule="evenodd" d="M46.6623 2.8421C46.577 2.72119 46.6058 2.55411 46.7267 2.46884L47.6881 1.78975C47.809 1.70449 47.9763 1.73325 48.0616 1.85416C48.1469 1.97507 48.1181 2.14216 47.9972 2.22742L47.0356 2.90651C46.9149 2.99178 46.7476 2.96302 46.6623 2.8421Z" fill="#1E1D1D"/>
<path fill-rule="evenodd" clip-rule="evenodd" d="M44.6838 1.55183C44.5556 1.47791 44.5118 1.31406 44.5857 1.18586L45.1743 0.166521C45.2482 0.038319 45.4121 -0.00563031 45.5403 0.0684961C45.6683 0.14242 45.7122 0.306268 45.6383 0.434268L45.0497 1.45381C44.9758 1.58201 44.812 1.62576 44.6838 1.55183Z" fill="#1E1D1D"/>
<path fill-rule="evenodd" clip-rule="evenodd" d="M40.4569 2.98847C40.3829 3.11667 40.2191 3.16042 40.0909 3.08649L39.0716 2.49794C38.9433 2.42401 38.8994 2.26017 38.9735 2.13196C39.0474 2.00396 39.2113 1.96001 39.3395 2.03394L40.3588 2.62249C40.487 2.69642 40.5308 2.86027 40.4569 2.98847Z" fill="#1E1D1D"/>
<path fill-rule="evenodd" clip-rule="evenodd" d="M36.8942 67.7359C36.7672 67.8428 36.5774 67.8266 36.4705 67.6996L35.6958 66.7795C35.5886 66.6526 35.605 66.4628 35.732 66.3559C35.859 66.2489 36.0488 66.2651 36.1557 66.3921L36.9304 67.3122C37.0375 67.4392 37.0211 67.629 36.8942 67.7359Z" fill="white"/>
<path fill-rule="evenodd" clip-rule="evenodd" d="M37.9293 66.8636C37.8023 66.9705 37.6126 66.9543 37.5056 66.8273L36.7309 65.9072C36.6238 65.7802 36.6402 65.5905 36.7672 65.4835C36.8942 65.3766 37.0839 65.3928 37.1909 65.5198L37.9656 66.4399C38.0725 66.5669 38.0563 66.7566 37.9293 66.8636Z" fill="white"/>
<path fill-rule="evenodd" clip-rule="evenodd" d="M39.1344 65.8499C39.0074 65.9568 38.8176 65.9406 38.7107 65.8137L37.936 64.8936C37.8289 64.7666 37.8453 64.5768 37.9723 64.4699C38.0993 64.3629 38.289 64.3791 38.396 64.5061L39.1706 65.4262C39.2778 65.5532 39.2614 65.743 39.1344 65.8499Z" fill="white"/>
<path fill-rule="evenodd" clip-rule="evenodd" d="M38.5537 68.7491C38.5537 68.7491 39.3736 65.9461 40.7123 65.4869C42.051 65.0276 44.7113 64.9456 44.7113 64.9456L44.7447 65.6356C44.7447 65.6356 40.8948 65.7966 40.4008 66.2754C39.9068 66.7542 39.234 68.7143 39.234 68.7143L38.5537 68.7491Z" fill="white"/>
<path fill-rule="evenodd" clip-rule="evenodd" d="M42.9531 9.19209L44.7814 9.12769C44.7814 9.12769 44.9023 10.2714 43.9761 10.3552C43.0829 10.436 42.9531 9.19209 42.9531 9.19209Z" fill="#F8F2ED"/>
<path fill-rule="evenodd" clip-rule="evenodd" d="M74.5262 57.3196L74.0107 52.8737L78.9507 52.4441L79.133 58.9462L74.5262 57.3196Z" fill="white"/>
<path fill-rule="evenodd" clip-rule="evenodd" d="M74.5254 57.3197L74.8689 61.0896L84.5928 61.8058C84.5928 61.8058 84.6216 61.1613 83.7766 60.9465C82.9317 60.7316 82.0581 60.6886 81.4852 60.0012C80.9124 59.3139 80.0172 57.2754 80.0172 57.2754C80.0172 57.2754 79.6717 56.9321 79.3136 57.2754C78.9556 57.6189 79.0702 57.9769 78.8197 58.0343C78.5689 58.0916 74.5254 57.3197 74.5254 57.3197Z" fill="#38305E"/>
<path fill-rule="evenodd" clip-rule="evenodd" d="M84.5929 62.3595L74.6875 62.1685L74.8688 61.0896L84.5929 61.8058V62.3595Z" fill="white"/>
<path fill-rule="evenodd" clip-rule="evenodd" d="M79.5623 59.061C79.6131 59.1996 79.7667 59.2709 79.9052 59.22L80.9093 58.8522C81.0479 58.8014 81.1192 58.6479 81.0683 58.5091C81.0175 58.3706 80.864 58.2993 80.7254 58.3501L79.7213 58.7181C79.5828 58.7688 79.5115 58.9225 79.5623 59.061Z" fill="white"/>
<path fill-rule="evenodd" clip-rule="evenodd" d="M80.3318 60.3498C80.3827 60.4884 80.5362 60.5597 80.6747 60.5088L81.6789 60.141C81.8174 60.0902 81.8887 59.9367 81.8379 59.7979C81.787 59.6594 81.6335 59.5881 81.495 59.639L80.4908 60.007C80.3523 60.0576 80.281 60.2113 80.3318 60.3498Z" fill="white"/>
<path fill-rule="evenodd" clip-rule="evenodd" d="M81.2625 61.0518C81.3133 61.1905 81.4669 61.2616 81.6056 61.2107L82.6095 60.8429C82.7481 60.7921 82.8194 60.6386 82.7685 60.4999C82.7177 60.3613 82.5642 60.29 82.4256 60.3409L81.4215 60.7089C81.283 60.7595 81.2117 60.9132 81.2625 61.0518Z" fill="white"/>
<path fill-rule="evenodd" clip-rule="evenodd" d="M79.4144 61.4243C79.4144 61.4243 79.1724 59.5501 78.0913 58.9486C77.01 58.3471 74.5605 57.7383 74.5605 57.7383L74.6075 58.2991C74.6075 58.2991 77.2893 58.8913 77.9122 59.3567C78.535 59.8221 78.8716 61.3845 78.8716 61.3845L79.4144 61.4243Z" fill="white"/>
<path fill-rule="evenodd" clip-rule="evenodd" d="M99.7594 12.5176L98.5894 11.3552L98.301 11.6457C97.0874 11.2758 95.7152 11.5715 94.7589 12.5342C93.8027 13.4968 93.5162 14.871 93.8939 16.0819L93.6055 16.3723L94.7755 17.5347C96.1608 18.9109 98.3996 18.9036 99.776 17.518C101.152 16.1325 101.145 13.8938 99.7594 12.5176Z" fill="#1E1D1D"/>
<path fill-rule="evenodd" clip-rule="evenodd" d="M98.607 16.356C97.2308 17.7413 94.992 17.7488 93.6065 16.3726C92.221 14.9962 92.2137 12.7574 93.5899 11.3721C94.9663 9.98658 97.205 9.97928 98.5904 11.3555C99.9759 12.7317 99.9832 14.9705 98.607 16.356Z" fill="#38305E"/>
<path fill-rule="evenodd" clip-rule="evenodd" d="M72.2258 20.0112C72.2258 20.0112 71.9251 11.6989 72.7842 10.2169C73.6433 8.73483 74.8765 8.3006 76.0585 8.30546C77.2405 8.31012 77.8961 8.89604 78.1754 9.11072C78.4547 9.32561 78.7414 9.93239 78.7414 9.93239L79.3033 20.1742L72.2258 20.0112Z" fill="#38305E"/>
<path fill-rule="evenodd" clip-rule="evenodd" d="M75.4364 5.71903C75.4364 5.71903 75.4342 5.60885 75.4644 5.51204C75.4945 5.41544 75.583 5.31073 75.583 5.31073C75.583 5.31073 74.8266 5.36318 74.6496 4.82607C74.4724 4.28916 75.165 3.81666 75.5409 4.17635C75.9168 4.53625 75.8953 4.84774 75.8953 4.84774C75.8953 4.84774 76.2658 4.67579 76.5556 4.8046C76.8456 4.93362 76.91 5.38729 76.91 5.38729L76.4711 6.50425L75.4441 5.99144L75.4364 5.71903Z" fill="#1E1D1D"/>
<path fill-rule="evenodd" clip-rule="evenodd" d="M75.0655 8.66562L75.4359 6.83737C75.4359 6.83737 74.7676 6.56335 74.7755 6.11231C74.7836 5.66127 75.299 5.68558 75.4683 5.72568C75.6374 5.76598 75.8547 6.0076 75.8547 6.0076L76.0079 5.66937C76.0079 5.66937 76.2736 5.76598 76.5636 5.66937C76.8536 5.57277 76.9099 5.38745 76.9099 5.38745L76.9583 6.35393C76.9583 6.35393 77.3369 6.37013 77.345 6.50704C77.3529 6.64396 76.9905 6.87747 76.9905 6.87747L77.2241 8.80253L75.0655 8.66562Z" fill="#E7BA8A"/>
<path fill-rule="evenodd" clip-rule="evenodd" d="M91.9562 20.9888C91.9562 20.9888 89.0243 24.9119 87.2202 25.3989C85.416 25.886 83.4829 25.1772 82.4198 24.0173C81.3565 22.8574 77.5588 17.9282 77.5588 17.9282C77.5588 17.9282 75.5574 17.8745 74.5263 16.1722C73.4954 14.4702 72.9206 10.7543 74.776 9.35826C76.6312 7.96201 78.0273 9.27239 78.6288 9.8093C79.2301 10.3462 84.922 18.7658 85.3945 19.1739C85.8671 19.582 86.3825 19.5606 86.7691 19.2383C87.1558 18.9161 88.2296 17.7348 88.2296 17.7348L91.9562 20.9888Z" fill="#E7BA8A"/>
<path fill-rule="evenodd" clip-rule="evenodd" d="M75.0625 14.7273L77.5581 17.9277L77.2517 17.8959L75.0625 14.7273Z" fill="#1E1D1D"/>
<path fill-rule="evenodd" clip-rule="evenodd" d="M88.2295 17.7351L90.8284 14.8677L94.4476 17.9822L91.9561 20.9892L88.2295 17.7351Z" fill="#1E1D1D"/>
<path fill-rule="evenodd" clip-rule="evenodd" d="M81.0497 13.1003L80.2793 13.8072L81.1123 14.8318L81.8803 14.2837L81.0497 13.1003Z" fill="#1E1D1D"/>
<path fill-rule="evenodd" clip-rule="evenodd" d="M77.7876 15.7566L76.6719 16.7913L77.5584 17.9283L78.7432 16.9321L77.7876 15.7566Z" fill="#1E1D1D"/>
<path fill-rule="evenodd" clip-rule="evenodd" d="M90.8281 14.8676L92.2618 13.3855L95.6929 13.8527C95.6929 13.8527 95.7332 14.0784 95.7332 14.2635C95.7332 14.4488 95.685 14.7791 95.685 14.7791C95.685 14.7791 96.3455 14.1509 96.7965 14.0541C97.2476 13.9574 97.6986 14.175 97.6986 14.175L94.4472 17.9819L90.8281 14.8676Z" fill="#E7BA8A"/>
<path fill-rule="evenodd" clip-rule="evenodd" d="M72.3349 22.8896L72.2275 20.0115L79.305 20.1747L81.2602 22.6373V23.2763L72.3349 22.8896Z" fill="#E7BA8A"/>
<path fill-rule="evenodd" clip-rule="evenodd" d="M81.2696 50.5538L85.6512 44.0674L80.1958 38.44L78.95 52.4439L74.0099 52.8734L71.9512 30.0048L77.9704 27.6147L83.6324 29.2471L85.0606 30.3963C85.0606 30.3963 93.3836 41.1033 92.868 43.8954C92.3526 46.6877 86.5533 53.8616 86.5533 53.8616L81.2696 50.5538Z" fill="#E7BA8A"/>
<path fill-rule="evenodd" clip-rule="evenodd" d="M72.6894 30.8795C72.6894 30.8795 75.299 28.9141 78.9719 28.9787C82.6446 29.0431 85.061 30.3962 85.061 30.3962L81.4527 25.048L81.2603 23.276L72.3349 22.8894C72.3349 22.8894 70.7886 24.4037 70.8852 26.8845C70.9818 29.3651 72.6894 30.8795 72.6894 30.8795Z" fill="#1E1D1D"/>
<path fill-rule="evenodd" clip-rule="evenodd" d="M72.6895 30.8796L80.1963 38.4401L80.0964 39.5624L72.6895 30.8796Z" fill="#1E1D1D"/>
<path fill-rule="evenodd" clip-rule="evenodd" d="M75.3145 6.15771C75.3145 6.15771 75.4487 6.16298 75.5883 6.28126C75.728 6.39933 75.7655 6.50404 75.7655 6.50404L75.3145 6.15771Z" fill="#1E1D1D"/>
<path fill-rule="evenodd" clip-rule="evenodd" d="M76.4706 6.1987C76.4706 6.28214 76.4382 6.34978 76.3981 6.34978C76.358 6.34978 76.3256 6.28214 76.3256 6.1987C76.3256 6.11525 76.358 6.04761 76.3981 6.04761C76.4382 6.04761 76.4706 6.11525 76.4706 6.1987Z" fill="#1E1D1D"/>
<path fill-rule="evenodd" clip-rule="evenodd" d="M96.0045 8.58396L94.8345 7.42163L94.5461 7.71206C93.3325 7.34224 91.9604 7.63793 91.004 8.60057C90.0479 9.5632 89.7611 10.9374 90.139 12.1483L89.8506 12.4387L91.0206 13.6011C92.4059 14.9773 94.6447 14.97 96.0211 13.5845C97.3973 12.1989 97.3898 9.96016 96.0045 8.58396Z" fill="#1E1D1D"/>
<path fill-rule="evenodd" clip-rule="evenodd" d="M94.8501 12.4224C93.4739 13.8079 91.2351 13.8152 89.8496 12.439C88.4641 11.0626 88.4568 8.82381 89.833 7.4385C91.2094 6.05298 93.4482 6.04569 94.8335 7.42189C96.219 8.79809 96.2263 11.0369 94.8501 12.4224Z" fill="#38305E"/>
<path fill-rule="evenodd" clip-rule="evenodd" d="M93.8136 9.8045C93.8136 10.5407 93.2167 11.1376 92.4805 11.1376C91.7443 11.1376 91.1475 10.5407 91.1475 9.8045C91.1475 9.0683 91.7443 8.47144 92.4805 8.47144C93.2167 8.47144 93.8136 9.0683 93.8136 9.8045Z" fill="#D30172"/>
<path fill-rule="evenodd" clip-rule="evenodd" d="M91.5959 10.3199C91.5959 9.58374 92.1927 8.98688 92.9289 8.98688C93.2052 8.98688 93.4618 9.07093 93.6746 9.21493C93.4569 8.77483 93.0047 8.47144 92.4805 8.47144C91.7443 8.47144 91.1475 9.0683 91.1475 9.8045C91.1475 10.2644 91.3804 10.6699 91.7346 10.9095C91.6467 10.7315 91.5959 10.5318 91.5959 10.3199Z" fill="#1E1D1D"/>
<path fill-rule="evenodd" clip-rule="evenodd" d="M82.6469 16.7198L80.1928 18.7147L76.5645 14.2515L79.0187 12.2566L82.6469 16.7198Z" fill="#D30172"/>
<path fill-rule="evenodd" clip-rule="evenodd" d="M81.9741 16.9392L80.1991 18.382L76.8594 14.2738L78.6344 12.8308L81.9741 16.9392Z" fill="#1E1D1D"/>
<path fill-rule="evenodd" clip-rule="evenodd" d="M81.6985 16.89L80.2111 18.0994L77.127 14.3055L78.6145 13.0964L81.6985 16.89Z" fill="#F8F2ED"/>
<path fill-rule="evenodd" clip-rule="evenodd" d="M78.8758 13.4167L78.2295 15.6608L78.5527 16.0582L79.3219 13.9658L78.8758 13.4167Z" fill="#689BEC"/>
<path fill-rule="evenodd" clip-rule="evenodd" d="M80.1791 15.0203L79.582 17.3249L79.9486 17.7755L80.7144 15.6787L80.1791 15.0203Z" fill="#689BEC"/>
<path fill-rule="evenodd" clip-rule="evenodd" d="M86.5539 53.8617L84.8581 56.1734L80.1475 52.0654L81.2703 50.554L86.5539 53.8617Z" fill="white"/>
<path fill-rule="evenodd" clip-rule="evenodd" d="M86.6375 60.7803C86.6375 60.7803 84.4129 60.0431 84.3465 58.7775C84.2801 57.5121 86.2475 54.1709 86.2475 54.1709C86.2475 54.1709 85.841 53.5779 85.2605 53.7444C84.6801 53.9109 84.3894 54.5501 83.8951 54.496C83.4007 54.4417 80.1476 52.0654 80.1476 52.0654L77.9951 55.4647L83.3648 60.4642L86.6375 60.7803Z" fill="#38305E"/>
<path fill-rule="evenodd" clip-rule="evenodd" d="M76.667 57.0648L77.9948 55.4646L83.3647 60.4641L86.6374 60.7802C86.6374 60.7802 87.0779 61.2033 87.0743 61.5974C87.0704 61.9916 86.8632 62.4278 86.8632 62.4278L82.9463 61.8561L76.667 57.0648Z" fill="white"/>
<path fill-rule="evenodd" clip-rule="evenodd" d="M83.8379 55.6341C83.7761 55.8064 83.8656 55.996 84.038 56.058L85.2854 56.5056C85.4577 56.5673 85.6475 56.4778 85.7093 56.3055C85.7711 56.1333 85.6815 55.9435 85.5094 55.8818L84.2618 55.4342C84.0894 55.3722 83.8997 55.4619 83.8379 55.6341Z" fill="white"/>
<path fill-rule="evenodd" clip-rule="evenodd" d="M83.2578 57.0294C83.1961 57.2015 83.2856 57.3913 83.4577 57.4533L84.7053 57.9008C84.8777 57.9626 85.0674 57.8731 85.1292 57.7007C85.191 57.5286 85.1015 57.3388 84.9291 57.2771L83.6817 56.8293C83.5094 56.7677 83.3196 56.8572 83.2578 57.0294Z" fill="white"/>
<path fill-rule="evenodd" clip-rule="evenodd" d="M83.1846 58.6961C83.1228 58.8682 83.2123 59.058 83.3845 59.1198L84.6321 59.5676C84.8044 59.6294 84.9942 59.5398 85.056 59.3675C85.1177 59.1953 85.0282 59.0056 84.8559 58.9438L83.6085 58.4962C83.4361 58.4342 83.2464 58.5239 83.1846 58.6961Z" fill="white"/>
<path fill-rule="evenodd" clip-rule="evenodd" d="M79.957 52.366C79.957 52.366 81.3472 53.7594 81.6716 55.4692C81.9963 57.1789 81.3263 58.5667 81.3263 58.5667L80.8834 58.1541C80.8834 58.1541 81.4964 56.4243 80.9729 55.1759C80.4495 53.9275 79.6406 52.8654 79.6406 52.8654L79.957 52.366Z" fill="white"/>
<path fill-rule="evenodd" clip-rule="evenodd" d="M39.6032 41.5535L36.4591 45.1911L35.3477 49.7339L36.4107 53.2296L36.9584 53.7932L61.7338 62.621L64.3451 57.3104L39.6032 41.5535Z" fill="#E7BA8A"/>
<path fill-rule="evenodd" clip-rule="evenodd" d="M13.6077 46.6911L12.0705 54.0033L10.7656 53.52L11.5227 46.1582L13.6077 46.6911Z" fill="#E7BA8A"/>
<path fill-rule="evenodd" clip-rule="evenodd" d="M11.3965 51.9094L12.6878 46.4589L12.0106 46.374L11.3965 51.9094Z" fill="#1E1D1D"/>
<path fill-rule="evenodd" clip-rule="evenodd" d="M3.33133 34.6404C3.33133 34.6404 2.57427 34.1975 2.74338 33.6496C2.9125 33.102 3.31513 33.1583 3.54075 33.3517C3.76637 33.5451 3.93548 34.3504 3.93548 34.3504L4.82419 34.3625L5.11138 34.8176L4.58784 36.0338L3.99989 36.117C3.99989 36.117 3.39574 36.0822 3.30723 35.5666C3.21852 35.0511 3.33133 34.6404 3.33133 34.6404Z" fill="#1E1D1D"/>
<path fill-rule="evenodd" clip-rule="evenodd" d="M13.6646 56.6202C13.6646 59.9475 10.9673 62.6449 7.63993 62.6449C4.31255 62.6449 1.61523 59.9475 1.61523 56.6202C1.61523 53.2928 4.31255 50.5955 7.63993 50.5955C10.9673 50.5955 13.6646 53.2928 13.6646 56.6202Z" fill="#38305E"/>
<path fill-rule="evenodd" clip-rule="evenodd" d="M9.00346 34.1946C9.00346 34.1946 8.15506 34.7851 7.34959 34.8819C6.54412 34.9786 6.10382 34.8819 6.10382 34.8819C6.10382 34.8819 6.02868 33.926 5.29835 33.9689C4.56823 34.0121 4.86878 34.9249 4.86878 34.9249L3.84863 34.7315C3.84863 34.7315 4.246 35.1288 4.2138 35.494C4.18159 35.8592 3.99891 36.1168 3.99891 36.1168C3.99891 36.1168 5.04073 36.3639 5.14807 36.6002C5.25542 36.8364 5.28762 37.3196 5.51324 37.1693C5.73865 37.0191 5.814 36.8149 6.00721 36.8256C6.20043 36.8364 7.78989 37.6311 7.78989 37.6311L9.00346 34.1946Z" fill="#E7BA8A"/>
<path fill-rule="evenodd" clip-rule="evenodd" d="M5.24397 34.366C5.24397 34.366 5.18767 34.5673 5.27212 34.7163C5.35678 34.8654 5.6306 34.9017 5.6306 34.9017L5.24397 34.366Z" fill="#1E1D1D"/>
<path fill-rule="evenodd" clip-rule="evenodd" d="M4.88545 35.9212C4.88545 35.9212 4.79148 35.8183 4.75928 35.6348C4.72707 35.4513 4.82226 35.3521 4.82226 35.3521C4.82226 35.3521 4.79553 35.5479 4.81902 35.6366C4.84252 35.7251 4.88545 35.9212 4.88545 35.9212Z" fill="#1E1D1D"/>
<path fill-rule="evenodd" clip-rule="evenodd" d="M6.42632 36.4204C6.42632 36.4204 6.74855 36.3694 6.71087 36.0848C6.67341 35.8003 6.37001 35.6808 6.17923 35.7995C5.98865 35.9183 6.09619 36.3345 6.23027 36.399C6.36455 36.4634 6.42632 36.4204 6.42632 36.4204Z" fill="#F8F2ED"/>
<path fill-rule="evenodd" clip-rule="evenodd" d="M18.6156 46.48L21.1072 36.6429C21.1072 36.6429 13.697 33.5285 11.5276 33.4425C9.35834 33.3566 9.00391 34.1943 9.00391 34.1943L11.9742 46.7074C11.9742 46.7074 13.1655 46.8988 13.9386 46.5928C14.7118 46.2868 15.2435 45.5457 15.2435 45.5457L18.6156 46.48Z" fill="#D30172"/>
<path fill-rule="evenodd" clip-rule="evenodd" d="M7.23169 56.9193L4.35352 57.714C4.35352 57.714 4.42865 58.3046 5.21265 58.369C5.99665 58.4336 6.72698 58.1328 6.72698 58.1328L4.82602 60.6673L7.95128 61.1613C7.95128 61.1613 10.346 58.3046 10.6897 57.1663C11.0334 56.0279 12.6014 40.7674 12.6014 40.7674C12.6014 40.7674 14.5773 41.6265 15.3935 39.9727C16.2097 38.3188 15.4364 36.7818 13.7396 35.7999C12.0428 34.8178 11.0549 33.7626 9.59442 33.968C8.13376 34.1736 7.55392 36.8369 7.48951 39.135C7.4249 41.4333 7.23169 56.9193 7.23169 56.9193Z" fill="#E7BA8A"/>
<path fill-rule="evenodd" clip-rule="evenodd" d="M8.44531 45.1659H11.608V39.4141H8.44531V45.1659Z" fill="#25A9A9"/>
<path fill-rule="evenodd" clip-rule="evenodd" d="M8.66016 44.9123H10.9475V39.6179H8.66016V44.9123Z" fill="#1E1D1D"/>
<path fill-rule="evenodd" clip-rule="evenodd" d="M8.84766 44.7006H10.7646V39.8115H8.84766V44.7006Z" fill="#F8F2ED"/>
<path fill-rule="evenodd" clip-rule="evenodd" d="M7.45526 40.8184L8.44524 40.9231V42.2902L7.43359 42.1314L7.45526 40.8184Z" fill="#1E1D1D"/>
<path fill-rule="evenodd" clip-rule="evenodd" d="M11.6084 41.1484L12.5473 41.2937L12.3938 42.7659L11.6084 42.6306V41.1484Z" fill="#1E1D1D"/>
<path fill-rule="evenodd" clip-rule="evenodd" d="M5.82812 60.8257L7.82346 58.3799L6.08453 60.8662L5.82812 60.8257Z" fill="#1E1D1D"/>
<path fill-rule="evenodd" clip-rule="evenodd" d="M6.91211 60.9969L9.03626 58.5945L7.11444 61.0289L6.91211 60.9969Z" fill="#1E1D1D"/>
<path fill-rule="evenodd" clip-rule="evenodd" d="M21.1068 36.6433L25.2092 38.1684L22.9753 48.2202L18.6152 46.4805L21.1068 36.6433Z" fill="#E7BA8A"/>
<path fill-rule="evenodd" clip-rule="evenodd" d="M36.9591 53.7939L22.9766 48.2203L25.2103 38.1682L27.1971 38.9093C27.1971 38.9093 29.3772 36.9439 32.4056 37.0944C35.4341 37.2447 39.604 41.5541 39.604 41.5541C38.4643 43.2676 34.1332 48.5457 36.9591 53.7939Z" fill="#1E1D1D"/>
<path fill-rule="evenodd" clip-rule="evenodd" d="M12.6014 40.7672C12.6014 40.7672 13.1168 37.481 12.988 36.8582C12.8592 36.2352 12.5469 35.7996 12.5469 35.7996C12.5469 35.7996 13.0524 36.042 13.4176 36.8582C13.7827 37.6744 13.4176 40.9722 13.4176 40.9722C13.4176 40.9722 13.1751 40.9633 13.0633 40.939C12.7729 40.8762 12.6014 40.7672 12.6014 40.7672Z" fill="#1E1D1D"/>
<path fill-rule="evenodd" clip-rule="evenodd" d="M7.61788 37.5458C7.61788 37.5458 7.7396 36.7215 7.85282 36.3245C7.96603 35.9274 8.09504 35.5571 8.09504 35.5571C8.09504 35.5571 7.72076 36.2836 7.65636 36.5173C7.59196 36.7508 7.38477 37.4316 7.38477 37.4316L7.61788 37.5458Z" fill="#1E1D1D"/>
<path fill-rule="evenodd" clip-rule="evenodd" d="M10.7646 40.2136L8.84766 41.4217V42.179L10.7646 40.9717V40.2136Z" fill="#689BEC"/>
<path fill-rule="evenodd" clip-rule="evenodd" d="M10.7617 42.3621L8.84473 43.5702V44.3274L10.7617 43.1201V42.3621Z" fill="#689BEC"/>
<path fill-rule="evenodd" clip-rule="evenodd" d="M61.6709 62.5141L66.1053 64.8322L68.1882 59.4805L64.3451 57.311L61.6709 62.5141Z" fill="white"/>
<path fill-rule="evenodd" clip-rule="evenodd" d="M66.6211 69.3403C66.6211 69.3403 68.1174 67.7919 67.632 66.7335C67.1467 65.6753 64.1211 63.7945 64.1211 63.7945C64.1211 63.7945 64.1993 63.1385 64.7425 63.0265C65.2859 62.9145 65.795 63.3109 66.1742 63.0561C66.5535 62.8011 68.1883 59.4802 68.1883 59.4802L71.3893 61.3295L69.1501 67.6878L66.6211 69.3403Z" fill="#38305E"/>
<path fill-rule="evenodd" clip-rule="evenodd" d="M73.1516 62.066L71.3887 61.3296L69.1493 67.6879L66.6203 69.3405C66.6203 69.3405 66.4423 69.8726 66.6132 70.1917C66.7842 70.5109 67.1388 70.7777 67.1388 70.7777L70.0834 68.6426L73.1516 62.066Z" fill="white"/>
<path fill-rule="evenodd" clip-rule="evenodd" d="M66.7053 63.9581C66.8291 64.0719 66.837 64.2645 66.7232 64.3882L65.8987 65.2844C65.7848 65.4082 65.5922 65.4161 65.4685 65.3023C65.3447 65.1884 65.3366 64.9958 65.4505 64.8721L66.2752 63.9759C66.389 63.8523 66.5816 63.8442 66.7053 63.9581Z" fill="white"/>
<path fill-rule="evenodd" clip-rule="evenodd" d="M67.7727 64.847C67.8964 64.9609 67.9043 65.1535 67.7905 65.2772L66.966 66.1734C66.8522 66.2972 66.6596 66.3051 66.5358 66.1912C66.4121 66.0774 66.404 65.8848 66.518 65.7611L67.3425 64.8649C67.4563 64.7411 67.649 64.7332 67.7727 64.847Z" fill="white"/>
<path fill-rule="evenodd" clip-rule="evenodd" d="M68.5423 66.1722C68.666 66.2861 68.6739 66.4787 68.5601 66.6024L67.7356 67.4986C67.6218 67.6224 67.4291 67.6303 67.3054 67.5164C67.1817 67.4026 67.1736 67.21 67.2874 67.0863L68.1121 66.1901C68.2259 66.0663 68.4185 66.0584 68.5423 66.1722Z" fill="white"/>
<path fill-rule="evenodd" clip-rule="evenodd" d="M68.471 59.6436C68.471 59.6436 67.9335 61.3703 68.3983 62.9003C68.8631 64.4304 69.9997 65.2743 69.9997 65.2743L70.1846 64.7496C70.1846 64.7496 68.9481 63.603 68.842 62.3638C68.7357 61.1245 68.9415 59.9154 68.9415 59.9154L68.471 59.6436Z" fill="white"/>
<path d="M61.5537 25.8052L72.0088 36.9576L69.2349 40.3506L66.57 38.7643L61.5537 25.8052Z" fill="#A35824"/>
<path d="M32.1958 29.1616L33.1485 27.8154L33.4827 28.0517C34.6144 27.4786 36.0172 27.5339 37.1248 28.3177C38.2325 29.1015 38.7511 30.4058 38.5873 31.6637L38.9215 31.9L37.9688 33.2463C36.8407 34.8404 34.6341 35.2181 33.04 34.0902C31.4454 32.9623 31.0677 30.7557 32.1958 29.1616Z" fill="#1E1D1D"/>
<path d="M53.0293 43.8631L67.538 42.3166C67.538 42.3166 64.6292 31.2485 63.1775 28.3385C61.7258 25.4285 60.5555 24.9536 60.5555 24.9536L52.8164 28.3385L53.0293 43.8631Z" fill="#38305E"/>
<ellipse cx="36.0333" cy="29.8559" rx="3.53594" ry="3.53594" transform="rotate(-54.7174 36.0333 29.8559)" fill="#38305E"/>
<path d="M41.5061 29.9663L39.7316 28.7268L36.4319 29.7773C36.4319 29.7773 36.4311 30.0064 36.4629 30.1889C36.4947 30.3714 36.5992 30.6883 36.5992 30.6883C36.5992 30.6883 35.8405 30.183 35.3796 30.1654C34.9186 30.1478 34.5117 30.4396 34.5117 30.4396L38.6282 33.7465L41.5061 29.9663Z" fill="#A35824"/>
<path d="M35.2181 24.6401L36.1708 23.2938L36.505 23.5302C37.6368 22.9572 39.0395 23.0123 40.1471 23.7961C41.2548 24.5799 41.7735 25.8842 41.6096 27.1421L41.9438 27.3785L40.9911 28.7247C39.863 30.3188 37.6564 30.6965 36.0623 29.5687C34.468 28.441 34.0902 26.2342 35.2181 24.6401Z" fill="#1E1D1D"/>
<ellipse cx="39.0558" cy="25.3359" rx="3.53594" ry="3.53594" transform="rotate(-54.7174 39.0558 25.3359)" fill="#38305E"/>
<ellipse cx="38.897" cy="25.238" rx="1.33306" ry="1.33307" transform="rotate(-9.90409 38.897 25.238)" fill="#D30172"/>
<path d="M39.8581 25.5918C39.7315 24.8665 39.0409 24.3813 38.3156 24.5081C38.0434 24.5557 37.805 24.6826 37.6201 24.8611C37.7589 24.39 38.1522 24.0135 38.6686 23.9231C39.3939 23.7966 40.0845 24.2818 40.2111 25.0069C40.2903 25.46 40.1305 25.8995 39.8226 26.1964C39.8787 26.006 39.8945 25.8006 39.8581 25.5918Z" fill="#1E1D1D"/>
<path d="M55.2735 22.9421C55.2735 22.9421 55.1125 22.5125 55.1876 22.1044C55.2628 21.6963 55.4777 21.4761 55.4777 21.4761C55.4777 21.4761 55.0696 20.9552 55.0588 20.268C55.0481 19.5807 55.4025 19.366 55.5421 19.527C55.6816 19.688 56.1219 20.762 56.1219 20.762C56.1219 20.762 56.7125 18.7 57.3355 18.7537C57.9583 18.8074 57.4106 20.5793 57.4106 20.5793C57.4106 20.5793 59.4082 19.5377 59.827 20.4613C60.2459 21.3848 58.882 21.5675 58.6779 21.6534C58.4739 21.7392 58.302 21.8358 58.4522 22.2332C58.6025 22.6306 58.957 23.1567 58.5596 23.5219C58.1622 23.8871 57.8293 23.8763 57.8293 23.8763L55.2735 22.9421Z" fill="#1E1D1D"/>
<path d="M56.6361 25.2727L56.0885 24.3063C56.0885 24.3063 55.6267 24.5319 55.5408 24.3063C55.4549 24.0808 55.8308 23.8767 55.8308 23.8767L55.2725 22.9424C55.2725 22.9424 55.7664 22.9639 55.9544 22.7814C56.1423 22.5989 56.0565 22.0296 56.0565 22.0296C56.0565 22.0296 56.2389 22.4806 56.5397 22.4055C56.8405 22.3304 56.7331 21.8364 57.1842 22.0296C57.6352 22.223 57.5278 22.7492 57.4312 22.9102C57.3346 23.0712 57.1842 23.1788 57.1842 23.1788L58.4836 24.4675L56.6361 25.2727Z" fill="#A35824"/>
<path d="M56.8092 22.8703C56.8092 22.8703 56.793 22.591 56.9221 22.4703C57.0509 22.3494 57.1959 22.3816 57.1959 22.3816L56.8092 22.8703Z" fill="#1E1D1D"/>
<path d="M41.8496 36.313C41.8496 36.313 47.0688 40.308 48.1965 40.2114C49.3242 40.1148 56.2832 34.6377 56.2832 34.6377C56.2832 34.6377 57.3463 36.152 59.5695 35.0243C61.7927 33.8966 62.5979 29.9661 61.9859 27.5175C61.3738 25.0689 60.0205 24.328 58.7318 24.2956C57.4431 24.2634 53.7864 27.5819 51.805 29.2411C49.8237 30.9002 47.3822 33.0914 46.3924 33.1394C45.4026 33.1874 44.7332 32.3823 44.7332 32.3823L41.8496 36.313Z" fill="#A35824"/>
<path d="M60.6166 30.6909L56.2832 34.6376L56.4904 34.8623L60.6166 30.6909Z" fill="#1E1D1D"/>
<path d="M41.8498 36.3125L38.6279 33.7458L41.5061 29.9656L44.7332 32.382L41.8498 36.3125Z" fill="#38305E"/>
<path d="M61.7284 56.417L70.4595 52.7119L67.5384 42.3164L53.0296 43.8629L50.8389 44.142L55.3492 52.4972L59.2154 53.0664L61.7284 56.417Z" fill="#1E1D1D"/>
<path d="M56.7334 49.1035L59.214 53.0662L58.6167 52.9783L56.7334 49.1035Z" fill="#F8F2ED"/>
<path d="M61.7275 56.4166C61.7275 56.4166 68.6543 67.7144 70.072 69.0083C71.4898 70.3023 72.2306 70.0769 73.5193 69.8515C74.808 69.6259 78.7385 67.6929 78.7385 67.6929L76.537 62.4093C76.537 62.4093 74.8402 63.3757 73.8737 62.8925C72.9073 62.4093 70.4587 52.7117 70.4587 52.7117L61.7275 56.4166Z" fill="#A35824"/>
<path d="M41.9784 61.3463L48.1481 61.3688C48.1481 61.3688 47.4877 53.6785 48.1481 52.712C48.8086 51.7455 55.3487 52.4973 55.3487 52.4973L50.8382 44.1421C50.8382 44.1421 45.1357 44.679 43.847 44.9583C42.5583 45.2376 41.1086 46.6229 41.173 48.2982C41.2374 49.9734 41.9784 61.3463 41.9784 61.3463Z" fill="#A35824"/>
<path d="M71.8108 42.3163L69.2334 40.3503L72.0073 36.9573L74.1304 39.4059L71.8108 42.3163Z" fill="#38305E"/>
<path d="M78.7386 67.6929L82.4784 66.2217L80.6505 60.4656L76.5371 62.4093L78.7386 67.6929Z" fill="#38305E"/>
<path d="M85.0209 69.1864L87.4481 68.7139L83.4531 59.0754L80.6505 60.4662L79.6777 60.926C79.6777 60.926 81.649 64.2465 81.4126 64.719C81.1763 65.1915 80.3171 65.1056 80.1239 65.5352C79.9307 65.9647 80.7667 66.8958 80.7667 66.8958C80.7667 66.8958 82.6799 66.3621 83.9686 66.9527C85.2573 67.5433 85.5366 68.2199 85.5151 68.4561C85.4934 68.6924 85.0209 69.1864 85.0209 69.1864Z" fill="#1E1D1D"/>
<path d="M85.3422 58.1887L83.4521 59.0748L87.4471 68.7133L85.0199 69.1858C85.0199 69.1858 84.7836 69.3468 84.7621 69.7656C84.7407 70.1844 84.8051 70.3993 84.8051 70.3993L88.9505 69.8302L85.3422 58.1887Z" fill="white"/>
<path d="M41.9785 61.3464L42.2578 66.1146L48.2159 66.7362L48.1482 61.3687L41.9785 61.3464Z" fill="#38305E"/>
<path d="M36.7031 69.7122L48.3795 68.8208L48.2162 65.9212C48.2162 65.9212 43.5791 66.2864 43.3482 65.8138C43.1173 65.3413 43.2246 64.6754 43.0099 64.3534C42.7953 64.0312 42.1368 64.0413 42.1368 64.0413C42.1368 64.0413 41.1843 66.3722 39.8527 67.5536C38.5208 68.735 36.7031 69.7122 36.7031 69.7122Z" fill="#1E1D1D"/>
<path d="M48.3794 70.389V68.821L36.703 69.7124C36.703 69.7124 36.2117 69.9056 35.9863 70.0883C35.7606 70.2708 35.6211 70.5501 35.6211 70.5501L48.3794 70.389Z" fill="white"/>
<path d="M69.8468 42.6758C69.8468 42.6758 75.1627 45.3498 75.2917 46.0265C75.4205 46.7031 74.8084 47.4924 74.5024 47.6534C74.1964 47.8144 68.7677 44.8182 68.7999 44.4315C68.8319 44.0451 69.5935 42.547 69.8468 42.6758Z" fill="#38305E"/>
<path d="M73.3685 38.5265C73.3685 38.5265 77.1755 42.3375 77.5459 42.4826C77.9163 42.6276 79.0762 41.4033 78.9796 41.081C78.883 40.7588 74.7591 37.0055 74.5659 36.9571C74.3724 36.9089 73.1376 38.2272 73.3685 38.5265Z" fill="#38305E"/>
<path d="M71.6826 43.6375L74.8334 39.9766L76.2246 41.3228L73.4475 44.6311L71.6826 43.6375Z" fill="#1E1D1D"/>
<path d="M70.1548 45.4497C70.1548 45.4497 69.7824 46.1717 69.863 46.3167C69.9436 46.4618 72.0216 47.557 72.215 47.557C72.4082 47.557 72.6658 46.8648 72.6658 46.8648L70.1548 45.4497Z" fill="#1E1D1D"/>
<path d="M75.5264 37.7548C75.5264 37.7548 76.1455 37.2636 76.3549 37.3602C76.5643 37.4569 78.3041 39.1484 78.3363 39.3578C78.3685 39.5672 77.9371 39.9765 77.9371 39.9765L75.5264 37.7548Z" fill="#1E1D1D"/>
<path d="M73.7021 40.9093C73.5599 40.9595 71.7799 42.81 71.6831 43.0679C71.5865 43.3257 71.6079 43.7982 72.1126 44.1202C72.6173 44.4424 73.4658 45.0974 73.8846 44.9793C74.3034 44.8613 75.7639 42.9066 75.7639 42.5629C75.7641 42.2195 74.0673 40.7803 73.7021 40.9093Z" fill="#A35824"/>
<path d="M74.1311 39.4058L74.6986 40.1331L72.2763 42.9474L71.8115 42.3161L74.1311 39.4058Z" fill="#A35824"/>
<path d="M75.3092 43.4053L73.1289 41.4421C73.1289 41.4421 73.7049 42.3697 74.2189 42.7886C74.7332 43.2074 75.3092 43.4053 75.3092 43.4053Z" fill="#1E1D1D"/>
<path d="M72.0967 42.5396L74.6265 44.2959C74.6265 44.2959 73.8634 44.019 73.2236 43.5704C72.584 43.1218 72.0967 42.5396 72.0967 42.5396Z" fill="#1E1D1D"/>
<rect x="55.2461" y="28.0886" width="3.95196" height="6.46494" transform="rotate(47.1559 55.2461 28.0886)" fill="#1E1D1D"/>
<rect x="55.1826" y="28.5571" width="3.30771" height="5.78363" transform="rotate(47.1559 55.1826 28.5571)" fill="#F8F2ED"/>
<path d="M57.0978 33.8961L56.0517 32.7307L55.1162 33.5984L56.1736 34.7238L56.2832 34.6379L57.0978 33.8961Z" fill="#1E1D1D"/>
<path d="M52.5206 30.6153L51.4824 29.5125L52.4752 28.6736L53.4612 29.7429L52.5206 30.6153Z" fill="#1E1D1D"/>
<path d="M57.1955 31.1991L53.9601 29.6882L53.332 30.2707L56.6143 31.7378L57.1955 31.1991Z" fill="#689BEC"/>
<path d="M52.2117 31.3093L55.8672 32.4303L55.3311 32.9276L51.418 32.0453L52.2117 31.3093Z" fill="#689BEC"/>
<path d="M40.5074 68.845C40.3804 68.952 40.1906 68.9358 40.0837 68.8088L39.309 67.8887C39.202 67.7617 39.2182 67.5719 39.3452 67.465C39.4722 67.358 39.662 67.3742 39.7689 67.5012L40.5436 68.4213C40.6507 68.5483 40.6345 68.7379 40.5074 68.845Z" fill="white"/>
<path d="M41.4312 67.8699C41.3042 67.9769 41.1144 67.9607 41.0075 67.8337L40.2328 66.9136C40.1259 66.7866 40.1421 66.5968 40.2691 66.4899C40.396 66.3829 40.5858 66.3992 40.6928 66.5261L41.4674 67.4462C41.5744 67.5732 41.5582 67.763 41.4312 67.8699Z" fill="white"/>
<path d="M42.3443 66.806C42.2173 66.9129 42.0275 66.8967 41.9206 66.7697L41.1459 65.8496C41.039 65.7226 41.0552 65.5329 41.1821 65.4259C41.3091 65.319 41.4989 65.3352 41.6058 65.4622L42.3805 66.3823C42.4875 66.5093 42.4713 66.699 42.3443 66.806Z" fill="white"/>
<path d="M81.9279 67.1326C81.7727 67.0733 81.6949 66.8995 81.7543 66.7444L82.1837 65.6207C82.243 65.4656 82.4168 65.3878 82.5719 65.4472C82.727 65.5065 82.8048 65.6803 82.7455 65.8354L82.3161 66.9591C82.2568 67.1142 82.083 67.1918 81.9279 67.1326Z" fill="white"/>
<path d="M83.4259 67.3582C83.2708 67.2989 83.193 67.1251 83.2523 66.97L83.6817 65.8463C83.741 65.6912 83.9148 65.6134 84.07 65.6727C84.2251 65.7321 84.3029 65.9059 84.2435 66.061L83.8142 67.1846C83.7548 67.3398 83.581 67.4176 83.4259 67.3582Z" fill="white"/>
<path d="M84.7784 67.9957C84.6233 67.9363 84.5455 67.7625 84.6049 67.6074L85.0342 66.4838C85.0936 66.3286 85.2674 66.2509 85.4225 66.3102C85.5776 66.3695 85.6554 66.5433 85.5961 66.6985L85.1667 67.8221C85.1074 67.9772 84.9336 68.0548 84.7784 67.9957Z" fill="white"/>
<path d="M48.2387 66.3403C48.2387 66.3403 45.7796 66.7162 44.8236 67.5322C43.8679 68.3484 43.4268 69.1989 43.4268 69.1989L44.2349 69.1371C44.2349 69.1371 44.931 68.026 45.9833 67.575C47.0359 67.1239 48.276 67.0054 48.276 67.0054L48.2387 66.3403Z" fill="white"/>
<path d="M79.9336 60.8041C79.9336 60.8041 80.5424 62.173 82.1855 62.957C83.8287 63.741 85.3936 63.7574 85.3936 63.7574L85.1233 63.105C85.1233 63.105 83.5864 62.9033 82.478 62.3556C81.3695 61.808 80.4889 60.53 80.4889 60.53L79.9336 60.8041Z" fill="white"/>
<path d="M56.0393 23.1496C56.0393 23.1496 56.0312 22.9804 56.117 22.9268C56.2029 22.8731 56.3103 22.943 56.3103 22.943C56.3103 22.943 56.1983 22.9249 56.1197 23.01C56.0411 23.0953 56.0393 23.1496 56.0393 23.1496Z" fill="#1E1D1D"/>
</svg>
