<svg width="52" height="52" viewBox="0 0 52 52" fill="none" xmlns="http://www.w3.org/2000/svg">
<circle cx="26" cy="26" r="25" fill="url(#paint0_linear_121_6804)"/>
<circle cx="26" cy="26" r="25" fill="url(#paint1_radial_121_6804)" fill-opacity="0.5"/>
<circle cx="26" cy="26" r="25" fill="url(#paint2_radial_121_6804)" fill-opacity="0.2"/>
<circle cx="26" cy="26" r="25" stroke="#F2EFF9" stroke-width="2"/>
<path d="M20.7071 18.2929C20.3166 17.9024 19.6834 17.9024 19.2929 18.2929C18.9024 18.6834 18.9024 19.3166 19.2929 19.7071L24.5858 25L19.2929 30.2929C18.9024 30.6834 18.9024 31.3166 19.2929 31.7071C19.6834 32.0976 20.3166 32.0976 20.7071 31.7071L26 26.4142L31.2929 31.7071C31.6834 32.0976 32.3166 32.0976 32.7071 31.7071C33.0976 31.3166 33.0976 30.6834 32.7071 30.2929L27.4142 25L32.7071 19.7071C33.0977 19.3166 33.0977 18.6834 32.7071 18.2929C32.3166 17.9024 31.6834 17.9024 31.2929 18.2929L26 23.5858L20.7071 18.2929Z" fill="white"/>
<defs>
<linearGradient id="paint0_linear_121_6804" x1="26" y1="0" x2="26" y2="52" gradientUnits="userSpaceOnUse">
<stop stop-color="#8652F9"/>
<stop offset="0.535211" stop-color="#2E099B"/>
<stop offset="1" stop-color="#200D5A"/>
</linearGradient>
<radialGradient id="paint1_radial_121_6804" cx="0" cy="0" r="1" gradientUnits="userSpaceOnUse" gradientTransform="rotate(47.0124) scale(34.5421 50.4678)">
<stop stop-color="#9B0595"/>
<stop offset="1" stop-color="#E700DE" stop-opacity="0"/>
</radialGradient>
<radialGradient id="paint2_radial_121_6804" cx="0" cy="0" r="1" gradientUnits="userSpaceOnUse" gradientTransform="translate(1.98473 53.1596) rotate(-32.7096) scale(61.3286 27.1471)">
<stop stop-color="#9B0595"/>
<stop offset="1" stop-color="#E700DE" stop-opacity="0"/>
</radialGradient>
</defs>
</svg>
